<svg width="120" height="60" viewBox="0 0 120 60" fill="none" xmlns="http://www.w3.org/2000/svg">
<path d="M45.9919 31.7928V21.2598H46.9999C47.8199 21.2598 48.4849 21.9248 48.4849 22.7448V27.4288C50.0989 25.9888 51.4849 25.4118 53.3029 25.3748C56.8069 25.3028 59.8729 27.9108 60.1529 31.4098C60.4989 35.5928 57.4569 38.7398 53.4959 38.7398C49.1489 38.7398 45.9929 36.0418 45.9929 31.7938L45.9919 31.7928ZM48.4449 32.6208C48.6899 34.7978 50.7709 36.5958 52.9629 36.6208C55.8099 36.6648 57.7649 34.8028 57.7649 32.0458C57.7649 29.2888 55.8649 27.4688 53.0849 27.4688C50.1179 27.4688 48.1069 29.6258 48.4449 32.6108V32.6208ZM64.3069 25.6408V27.5178C65.8749 25.7658 66.8069 25.3178 68.6429 25.3178C69.1776 25.3185 69.7113 25.3619 70.2389 25.4478V27.9398C69.6749 27.7848 69.0929 27.7068 68.5089 27.7078C67.1789 27.7078 66.0629 28.1458 65.2369 28.9678C64.5189 29.6878 64.3069 30.2528 64.3069 31.3678V38.3078H61.7269V25.6398L64.3069 25.6408ZM70.8499 29.8268C70.9839 28.5938 71.2219 27.9268 71.7539 27.2818C72.8179 25.9678 74.7339 25.3118 77.4479 25.3118C79.6029 25.3118 81.1709 25.6468 82.2659 26.3648C83.1699 26.9648 83.5429 27.8298 83.5429 29.3718V34.9998C83.5429 36.2328 83.8629 36.6698 84.7409 36.6448C84.9367 36.6376 85.132 36.6199 85.3259 36.5918V38.2888C84.8893 38.4385 84.4293 38.5083 83.9679 38.4948C82.3449 38.4948 81.6009 38.0068 81.0979 36.5948C79.5019 38.0598 77.8529 38.6778 75.4849 38.6778C72.3209 38.6778 70.3779 37.2378 70.3779 34.8998C70.3639 33.5648 71.1479 32.3498 72.3729 31.8168C73.3299 31.4048 73.9059 31.2768 76.6559 30.9938L80.0609 30.5058C80.7789 30.2738 81.0989 29.8908 81.0989 29.2458C81.0989 27.8838 79.9559 27.2758 77.5589 27.2758C75.2949 27.2758 74.1289 27.7138 73.6609 28.8698C73.4309 29.4578 72.8659 29.8458 72.2349 29.8468L70.8499 29.8268ZM81.0919 31.9998C79.4485 32.4778 77.7609 32.7881 76.0549 32.9258C73.7399 33.1578 73.0219 33.5828 73.0219 34.7498C73.0219 36.0348 74.0859 36.7028 76.1859 36.7028C77.9159 36.7028 79.2189 36.2648 80.1499 35.4178C80.8949 34.7238 81.0799 34.2348 81.0799 33.0178L81.0919 31.9998ZM91.5669 38.3058H90.8999C90.3139 38.3078 89.7799 37.9758 89.5199 37.4498L83.9199 25.6498H85.4699C85.9118 25.6463 86.3451 25.7713 86.7172 26.0096C87.0893 26.2478 87.3842 26.589 87.5659 26.9918L91.2889 35.4918L95.1319 26.9618C95.3172 26.5657 95.6124 26.2312 95.9824 25.9982C96.3525 25.7653 96.7817 25.6436 97.2189 25.6478H98.6269L92.9269 37.4738C92.7987 37.7275 92.6023 37.9405 92.3598 38.0889C92.1173 38.2373 91.8382 38.3151 91.5539 38.3138L91.5669 38.3058ZM100.399 32.7038C100.664 35.1458 102.599 36.6608 105.436 36.6608C107.052 36.6608 108.256 36.1808 109.016 35.2208C109.453 34.6678 110.118 34.3458 110.823 34.3448H112.323C111.009 37.2248 108.679 38.6368 105.195 38.6368C100.833 38.6368 97.9069 35.9888 97.9069 32.0318C97.9069 28.0748 100.914 25.2978 105.25 25.2978C108.388 25.2978 110.915 26.7098 111.927 29.0758C112.377 30.1558 112.567 31.1318 112.567 32.6978L100.399 32.7038ZM109.921 30.7508C109.336 28.5148 107.606 27.2468 105.213 27.2468C102.82 27.2468 101.089 28.5068 100.478 30.7508H109.921Z" fill="white"/>
<path d="M39.2146 23.4229L38.0648 20.3015L38.8639 18.51C38.9665 18.2786 38.9164 18.009 38.7387 17.8277L36.5655 15.6307C36.0991 15.1571 35.5077 14.8258 34.8602 14.6755C34.2128 14.5251 33.5359 14.5619 32.9085 14.7815L32.3122 14.9926L28.9927 11.3953L23.3248 11.3643L17.6569 11.4084L14.3411 15.0343L13.7506 14.8256C13.1192 14.6034 12.4375 14.566 11.7855 14.7177C11.1335 14.8694 10.5384 15.2039 10.0698 15.682L7.84417 17.9208C7.77473 17.9909 7.72811 18.0803 7.71044 18.1774C7.69277 18.2745 7.70488 18.3746 7.74517 18.4647L8.58009 20.3254L7.43506 23.4444L11.5465 39.0777C11.9353 40.5543 12.8287 41.8485 14.0727 42.7347L22.2036 48.2452C22.5229 48.5005 22.9196 48.6395 23.3284 48.6395C23.7372 48.6395 24.1339 48.5005 24.4532 48.2452L32.5793 42.7263C33.8222 41.8401 34.7263 40.546 35.102 39.0694L38.456 26.245L39.2146 23.4229Z" fill="url(#paint0_linear)"/>
<path d="M24.2521 34.4682C24.0373 34.3721 23.8157 34.2918 23.5891 34.2282H23.1891C22.9625 34.2918 22.7409 34.3721 22.5261 34.4682L21.5201 34.8862L20.3841 35.4082L18.5341 36.3722C18.3971 36.4162 18.3011 36.5402 18.2911 36.6722C18.2811 36.8042 18.3611 36.9522 18.4911 37.0142L20.0971 38.1482L21.0841 38.9322L21.5361 39.3322L22.4821 40.1602L22.9101 40.5402C23.1831 40.7682 23.5801 40.7682 23.8531 40.5402L25.7031 38.9262L26.6881 38.1422L28.2941 36.9922C28.3575 36.9616 28.4102 36.9125 28.4454 36.8515C28.4805 36.7905 28.4964 36.7203 28.491 36.6501C28.4856 36.5799 28.4591 36.513 28.4151 36.458C28.371 36.4031 28.3115 36.3627 28.2441 36.3422L26.3971 35.4042L25.2571 34.8822L24.2521 34.4682ZM35.6521 24.1202L35.7041 23.9532C35.7071 23.7294 35.6931 23.5058 35.6621 23.2842C35.5066 22.8885 35.3066 22.5117 35.0661 22.1612L34.0211 20.6282L33.2771 19.6282L31.8771 17.8752C31.7491 17.7052 31.6111 17.5422 31.4621 17.3892H31.4321L30.8101 17.5042L27.7331 18.0972C27.4331 18.1122 27.1101 18.0672 26.8161 17.9642L25.1161 17.4182L23.9161 17.0842C23.5611 17.0462 23.2031 17.0462 22.8481 17.0842L21.6481 17.4212L19.9481 17.9712C19.6541 18.0742 19.3421 18.1192 19.0311 18.1042L18.0931 17.9262L15.3291 17.4112H15.2991C15.1498 17.5635 15.0112 17.7259 14.8841 17.8972L13.4871 19.6502L12.7431 20.6602L11.6931 22.1702C11.5131 22.4342 11.3481 22.7102 11.1991 22.9932C11.1096 23.3096 11.0622 23.6364 11.0581 23.9652L11.1101 24.1322C11.1354 24.2395 11.1678 24.3451 11.2071 24.4482L12.0321 25.3962L15.6891 29.2832C15.9361 29.5832 16.0071 29.9832 15.8741 30.3282L15.2761 31.7462C15.1398 32.122 15.1296 32.532 15.2471 32.9142L15.3671 33.2442C15.5631 33.7792 15.9001 34.2502 16.3411 34.6102L16.9161 35.0782C17.2191 35.2982 17.6141 35.3442 17.9611 35.2032L20.0041 34.2292C20.3791 34.0412 20.7301 33.8092 21.0491 33.5372L22.6841 32.0612C22.8161 31.9412 22.8841 31.7752 22.9001 31.5982C22.903 31.5106 22.8883 31.4233 22.8571 31.3414C22.8258 31.2595 22.7786 31.1846 22.7181 31.1212L19.0181 28.6342C18.8791 28.5345 18.7801 28.3886 18.7389 28.2226C18.6977 28.0566 18.7169 27.8813 18.7931 27.7282L20.2231 25.0282C20.3871 24.6952 20.4231 24.3112 20.2931 23.9602C20.115 23.6286 19.8283 23.3684 19.4811 23.2232L14.9941 21.5282C14.6701 21.4052 14.6881 21.2682 15.0311 21.2462L17.6671 20.9862C18.0798 20.9613 18.4939 20.995 18.8971 21.0862L21.1901 21.7262C21.3531 21.775 21.4928 21.8815 21.583 22.0258C21.6731 22.1701 21.7077 22.3423 21.6801 22.5102L20.7801 27.4302C20.7201 27.7032 20.7051 27.9832 20.7361 28.2602C20.7731 28.3782 21.0811 28.5202 21.4181 28.6052L22.8151 28.9032C23.221 28.9781 23.6372 28.9781 24.0431 28.9032L25.2991 28.6182C25.6361 28.5422 25.9421 28.3832 25.9811 28.2652C26.0112 27.9875 25.9954 27.7067 25.9341 27.4342L25.0281 22.5142C25.001 22.3449 25.037 22.1716 25.1291 22.0271C25.2213 21.8826 25.3632 21.777 25.5281 21.7302L27.8211 21.0872C28.2231 20.9872 28.6381 20.9512 29.0511 20.9872L31.6871 21.2332C32.0321 21.2632 32.0471 21.3932 31.7271 21.5152L27.2421 23.2152C26.8944 23.3597 26.6075 23.6201 26.4301 23.9522C26.3114 24.3035 26.3369 24.6876 26.5011 25.0202L27.9351 27.7202C28.0951 28.0362 27.9991 28.4202 27.7101 28.6262L24.0221 31.1182C23.8991 31.2462 23.8341 31.4182 23.8401 31.5952C23.8461 31.7722 23.9241 31.9392 24.0561 32.0582L25.6931 33.5332C26.0131 33.8032 26.3631 34.0362 26.7381 34.2332L28.7811 35.2052C29.1281 35.3452 29.5231 35.2972 29.8261 35.0772L30.4011 34.6072C30.843 34.2467 31.1795 33.7738 31.3751 33.2382L31.4951 32.9082C31.6126 32.526 31.6024 32.116 31.4661 31.7402L30.8661 30.3222C30.7331 29.9662 30.8041 29.5662 31.0511 29.2772L34.7081 25.3852L35.5311 24.4372C35.5752 24.3371 35.6126 24.2342 35.6431 24.1292L35.6521 24.1202Z" fill="white"/>
<defs>
<linearGradient id="paint0_linear" x1="7.4446" y1="30.0009" x2="39.2038" y2="30.0009" gradientUnits="userSpaceOnUse">
<stop stop-color="#F1562B"/>
<stop offset="0.3" stop-color="#F1542B"/>
<stop offset="0.41" stop-color="#F04D2A"/>
<stop offset="0.49" stop-color="#EF4229"/>
<stop offset="0.5" stop-color="#EF4029"/>
<stop offset="0.56" stop-color="#E83E28"/>
<stop offset="0.67" stop-color="#E13C26"/>
<stop offset="1" stop-color="#DF3C26"/>
</linearGradient>
</defs>
</svg>
