<svg width="628" height="125" viewBox="0 0 628 125" fill="none" xmlns="http://www.w3.org/2000/svg">
<g clip-path="url(#clip0)">
<path d="M21.1562 89.4375C18.0312 89.4375 15.1875 88.6875 12.625 87.1875C10.125 85.6875 7.96875 83.625 6.15625 81C4.40625 78.375 3.0625 75.3125 2.125 71.8125C1.25 68.25 0.875 64.4688 1 60.4688C1.125 56.7188 1.59375 52.6562 2.40625 48.2812C3.28125 43.9062 4.5 39.5312 6.0625 35.1562C7.625 30.7188 9.5 26.4688 11.6875 22.4062C13.9375 18.2812 16.5 14.6563 19.375 11.5312C22.25 8.40625 25.4375 5.90625 28.9375 4.03125C32.4375 2.09375 36.2812 1.125 40.4688 1.125C43.0312 1.125 45.1875 1.65625 46.9375 2.71875C48.75 3.71875 50.1875 5.0625 51.25 6.75C52.375 8.4375 53.1562 10.3438 53.5938 12.4688C54.0312 14.5937 54.2188 16.75 54.1562 18.9375C54.0312 21 53.7188 23 53.2188 24.9375C52.7812 26.875 52.125 28.625 51.25 30.1875C50.4375 31.6875 49.4062 32.9062 48.1562 33.8438C46.9688 34.7188 45.5938 35.1562 44.0312 35.1562C43.2812 35.0938 42.5625 34.8438 41.875 34.4062C41.25 34.0312 40.5938 33.4688 39.9062 32.7188C39.2812 31.9688 38.6875 30.875 38.125 29.4375C39.8125 28.75 41.125 27.5625 42.0625 25.875C43.0625 24.125 43.8125 22.3125 44.3125 20.4375C44.875 18.3125 45.25 15.9375 45.4375 13.3125C45.5625 10.75 45.0312 8.875 43.8438 7.6875C42.6562 6.5 41.3125 5.90625 39.8125 5.90625C36.875 5.90625 33.7812 7.4375 30.5312 10.5C27.2812 13.5625 24.25 17.7188 21.4375 22.9688C18.6875 28.1562 16.3438 34.2188 14.4062 41.1562C12.5312 48.0938 11.4375 55.4375 11.125 63.1875C11 66.6875 11.2188 69.6562 11.7812 72.0938C12.4062 74.5312 13.25 76.5312 14.3125 78.0938C15.4375 79.6562 16.6875 80.7812 18.0625 81.4688C19.4375 82.1562 20.8125 82.5 22.1875 82.5C24.375 82.5 26.4375 82.0312 28.375 81.0938C30.3125 80.1562 32.0625 79 33.625 77.625C35.25 76.25 36.625 74.8125 37.75 73.3125C38.9375 71.875 39.8438 70.5938 40.4688 69.4688C40.9062 68.6562 41.375 68.1562 41.875 67.9688C42.375 67.7812 42.8125 67.8438 43.1875 68.1562C43.5625 68.4062 43.8125 68.8438 43.9375 69.4688C44.0625 70.0312 43.9375 70.7188 43.5625 71.5312C42.5 73.6562 41.1875 75.7812 39.625 77.9062C38.125 80.0312 36.4062 81.9375 34.4688 83.625C32.5938 85.375 30.5312 86.7812 28.2812 87.8438C26.0312 88.9062 23.6562 89.4375 21.1562 89.4375ZM101.781 53.3438C100.906 54.5938 99.7812 56.1562 98.4062 58.0312C97.0312 59.8438 95.5938 61.6875 94.0938 63.5625C92.6562 65.375 91.2188 67.0625 89.7812 68.625C88.4062 70.125 87.25 71.1875 86.3125 71.8125C85.6875 72.1875 84.9688 72.5 84.1562 72.75C83.3438 73 82.5 73.1562 81.625 73.2188C80.8125 73.2812 80.0312 73.2188 79.2812 73.0312C78.5312 72.9062 77.875 72.6562 77.3125 72.2812C76.75 71.8438 76.2812 71.2188 75.9062 70.4062C75.5938 69.7188 75.2812 68.8125 74.9688 67.6875C74.7188 66.5625 74.625 65.1562 74.6875 63.4688C73.1875 65.9688 71.5312 67.9062 69.7188 69.2812C67.9062 70.5938 66.1875 71.5625 64.5625 72.1875C62.6875 72.875 60.8125 73.2812 58.9375 73.4062C58.0625 73.4062 57.125 73.0938 56.125 72.4688C55.125 71.9062 54.2812 71 53.5938 69.75C52.9062 68.4375 52.4688 66.7812 52.2812 64.7812C52.0938 62.7188 52.3438 60.2812 53.0312 57.4688C53.9062 53.6562 55.2812 50.1875 57.1562 47.0625C59.0938 43.9375 61.1875 41.2812 63.4375 39.0938C65.6875 36.8438 67.9062 35.1562 70.0938 34.0312C72.2812 32.9062 74.0938 32.4062 75.5312 32.5312C77.2188 32.8438 78.5938 33.3438 79.6562 34.0312C80.5312 34.6562 81.0938 35.5938 81.3438 36.8438C81.6562 38.0312 81.1562 39.625 79.8438 41.625C80.7188 41.4375 81.4375 41.3125 82 41.25C82.625 41.1875 83.0938 41.1562 83.4062 41.1562C83.7812 41.1562 84.0312 41.1875 84.1562 41.25C84.2188 41.375 84.25 41.6562 84.25 42.0938C84.25 42.4688 84.1562 43.1875 83.9688 44.25C83.7812 45.3125 83.5 46.75 83.125 48.5625C82.75 50.375 82.25 52.7188 81.625 55.5938C81.5 56.1562 81.375 56.6875 81.25 57.1875C81.1875 57.625 81.0938 58.0938 80.9688 58.5938C80.9062 59.0312 80.8125 59.5625 80.6875 60.1875C80.5625 60.8125 80.4062 61.5938 80.2188 62.5312C80.1562 63.0938 80.125 63.7188 80.125 64.4062C80.1875 65.0312 80.3125 65.625 80.5 66.1875C80.6875 66.75 80.9688 67.2188 81.3438 67.5938C81.7812 67.9062 82.375 68.0625 83.125 68.0625C83.75 68.0625 84.5625 67.6875 85.5625 66.9375C86.5625 66.125 87.625 65.125 88.75 63.9375C89.875 62.6875 91.0312 61.3438 92.2188 59.9062C93.4688 58.4062 94.625 56.9688 95.6875 55.5938C96.75 54.2188 97.6875 53 98.5 51.9375C99.375 50.875 100 50.0938 100.375 49.5938C100.875 49.0312 101.375 48.7188 101.875 48.6562C102.375 48.5312 102.75 48.6562 103 49.0312C103.25 49.4062 103.281 49.9688 103.094 50.7188C102.969 51.4688 102.531 52.3438 101.781 53.3438ZM74.3125 57.4688C74.625 56.2188 75 54.75 75.4375 53.0625C75.875 51.375 76.25 49.75 76.5625 48.1875C76.875 46.625 77.0938 45.3438 77.2188 44.3438C77.4062 43.2812 77.375 42.7812 77.125 42.8438C76.8125 42.9062 76.4688 43 76.0938 43.125C75.7812 43.25 75.375 43.3438 74.875 43.4062C74.375 43.4688 73.875 43.5625 73.375 43.6875C73.875 42.6875 74.1562 41.875 74.2188 41.25C74.3438 40.5625 74.375 40.0312 74.3125 39.6562C74.25 39.2188 74.125 38.875 73.9375 38.625C73.25 38.0625 72.0312 38.5312 70.2812 40.0312C68.5938 41.4688 66.625 44.1562 64.375 48.0938C63.4375 49.7188 62.6875 51.4688 62.125 53.3438C61.5625 55.1562 61.1562 56.875 60.9062 58.5C60.7188 60.125 60.6875 61.5625 60.8125 62.8125C60.9375 64 61.1875 64.7812 61.5625 65.1562C62.25 65.8438 63.0312 66.1875 63.9062 66.1875C64.7812 66.125 65.6562 65.875 66.5312 65.4375C67.4688 64.9375 68.375 64.3125 69.25 63.5625C70.1875 62.8125 71 62.0312 71.6875 61.2188C72.4375 60.4062 73.0312 59.6562 73.4688 58.9688C73.9688 58.2812 74.25 57.7812 74.3125 57.4688ZM91.9375 71.5312C91.5 72.2188 91.0312 72.6562 90.5312 72.8438C89.9688 73.0938 89.5 73.125 89.125 72.9375C88.6875 72.8125 88.4062 72.5 88.2812 72C88.1562 71.5 88.2812 70.875 88.6562 70.125C88.8438 69.75 89.2812 68.9062 89.9688 67.5938C90.5938 66.2812 91.375 64.7188 92.3125 62.9062C93.1875 61.0312 94.1562 59.0312 95.2188 56.9062C96.2812 54.7188 97.2812 52.6562 98.2188 50.7188C99.2188 48.7812 100.125 47.0625 100.938 45.5625C101.75 44 102.344 42.875 102.719 42.1875C102.031 41.5625 101.562 41.125 101.312 40.875C101.062 40.5625 100.875 39.9375 100.75 39C100.625 38.1875 100.812 37.125 101.312 35.8125C101.812 34.5 102.469 33.25 103.281 32.0625C104.094 30.8125 105 29.75 106 28.875C107 28 107.969 27.5625 108.906 27.5625C110.656 27.5625 111.875 28.125 112.562 29.25C113.312 30.375 113.75 31.5312 113.875 32.7188C114 33.5312 113.938 34.5625 113.688 35.8125C113.438 37.0625 112.969 38.1875 112.281 39.1875C112.469 39.3125 112.719 39.4688 113.031 39.6562C113.344 39.7812 113.844 39.8438 114.531 39.8438C115.531 39.8438 116.219 39.7812 116.594 39.6562C117.031 39.5312 117.688 39.4688 118.562 39.4688C119.625 39.4688 120.5 39.75 121.188 40.3125C121.875 40.8125 122.438 41.4688 122.875 42.2812C123.312 43.0312 123.625 43.875 123.812 44.8125C124.062 45.6875 124.219 46.5 124.281 47.25C124.469 48.8125 124.062 50.4375 123.062 52.125C122.062 53.8125 120.844 55.6562 119.406 57.6562C118.531 58.9062 117.656 60.3125 116.781 61.875C115.906 63.4375 115.531 64.8438 115.656 66.0938C115.781 66.9062 116 67.5625 116.312 68.0625C116.625 68.5625 117.5 68.8125 118.938 68.8125C120 68.8125 121.156 68.4375 122.406 67.6875C123.719 66.875 125.031 65.875 126.344 64.6875C127.719 63.4375 129.062 62.0938 130.375 60.6562C131.688 59.1562 132.906 57.7188 134.031 56.3438C135.156 54.9062 136.094 53.625 136.844 52.5C137.656 51.375 138.25 50.5625 138.625 50.0625C138.938 49.5625 139.344 49.2188 139.844 49.0312C140.344 48.8438 140.781 48.8438 141.156 49.0312C141.531 49.2188 141.75 49.5938 141.812 50.1562C141.938 50.7188 141.719 51.4688 141.156 52.4062C140.781 53.0312 140.125 54.0312 139.188 55.4062C138.312 56.7812 137.219 58.3125 135.906 60C134.656 61.6875 133.25 63.4375 131.688 65.25C130.125 67 128.469 68.625 126.719 70.125C125.031 71.5625 123.312 72.75 121.562 73.6875C119.875 74.625 118.25 75.0938 116.688 75.0938C115.062 75.0938 113.719 74.7812 112.656 74.1562C111.594 73.5312 110.719 72.7812 110.031 71.9062C109.406 70.9688 108.938 69.9688 108.625 68.9062C108.375 67.7812 108.281 66.75 108.344 65.8125C108.406 65.0625 108.594 64.2812 108.906 63.4688C109.281 62.5938 109.688 61.7188 110.125 60.8438C110.625 59.9062 111.125 59 111.625 58.125C112.188 57.1875 112.688 56.2812 113.125 55.4062C114.188 53.5938 115.031 52.0625 115.656 50.8125C116.344 49.5 116.688 48.4062 116.688 47.5312C116.688 46.9688 116.562 46.4688 116.312 46.0312C116.062 45.5938 115.656 45.375 115.094 45.375C114.719 45.375 114.438 45.4062 114.25 45.4688C114.125 45.4688 113.969 45.4688 113.781 45.4688C113.656 45.4688 113.438 45.5 113.125 45.5625C112.875 45.5625 112.469 45.5625 111.906 45.5625C111.094 45.5625 110.406 45.4375 109.844 45.1875C109.281 44.9375 108.75 44.75 108.25 44.625C108 45.0625 107.438 46 106.562 47.4375C105.688 48.875 104.656 50.5625 103.469 52.5C102.344 54.4375 101.125 56.4688 99.8125 58.5938C98.5625 60.7188 97.375 62.7188 96.25 64.5938C95.125 66.4062 94.1875 67.9688 93.4375 69.2812C92.625 70.5312 92.125 71.2812 91.9375 71.5312ZM162.25 57.0938C161.625 59.4688 160.781 61.6875 159.719 63.75C158.656 65.8125 157.375 67.5938 155.875 69.0938C154.438 70.5938 152.781 71.75 150.906 72.5625C149.094 73.4375 147.094 73.875 144.906 73.875C142.344 73.875 140.312 73.3125 138.812 72.1875C137.375 71.125 136.281 69.7812 135.531 68.1562C134.844 66.5312 134.438 64.75 134.312 62.8125C134.125 60.875 134.031 59.0625 134.031 57.375C134.031 56.1875 134.188 54.875 134.5 53.4375C134.75 52 135.125 50.5312 135.625 49.0312C136.125 47.5312 136.75 46.0312 137.5 44.5312C138.312 43.0312 139.25 41.6562 140.312 40.4062C140.688 39.3438 141.25 38.4062 142 37.5938C142.812 36.7812 143.719 36.125 144.719 35.625C145.781 35.0625 146.906 34.6562 148.094 34.4062C149.281 34.0938 150.438 33.9375 151.562 33.9375C151.75 33.9375 151.906 33.9688 152.031 34.0312C152.219 34.0938 152.406 34.1562 152.594 34.2188C153.406 34.2812 154.406 34.5938 155.594 35.1562C156.844 35.7188 158.031 36.5625 159.156 37.6875C160.344 38.8125 161.344 40.25 162.156 42C162.969 43.6875 163.375 45.75 163.375 48.1875C163.375 48.6875 163.344 49.3125 163.281 50.0625C163.219 50.75 163.156 51.3438 163.094 51.8438C164.531 51.2812 166.031 50.5938 167.594 49.7812C169.156 48.9688 170.656 48.125 172.094 47.25C173.594 46.3125 174.969 45.375 176.219 44.4375C177.469 43.5 178.469 42.6562 179.219 41.9062C179.844 41.3438 180.375 41.0312 180.812 40.9688C181.25 40.9062 181.562 41.0312 181.75 41.3438C181.938 41.6562 181.969 42.0938 181.844 42.6562C181.719 43.2188 181.375 43.8438 180.812 44.5312C180.5 44.9062 179.688 45.6562 178.375 46.7812C177.125 47.9062 175.625 49.125 173.875 50.4375C172.125 51.75 170.219 53.0312 168.156 54.2812C166.094 55.5312 164.125 56.4688 162.25 57.0938ZM146.406 42.8438C146.219 43.4062 146.125 44 146.125 44.625C146.125 45.625 146.188 46.6875 146.312 47.8125C146.438 48.875 146.75 49.8438 147.25 50.7188C147.75 51.5938 148.531 52.3438 149.594 52.9688C150.719 53.5312 152.25 53.8125 154.188 53.8125C154.5 53.8125 154.812 53.8125 155.125 53.8125C155.438 53.75 155.75 53.6875 156.062 53.625C156.25 52.8125 156.406 52.0938 156.531 51.4688C156.719 50.7812 156.812 50.1875 156.812 49.6875C156.938 48.5 156.938 47.2812 156.812 46.0312C156.688 44.7812 156.438 43.6562 156.062 42.6562C155.75 41.5938 155.312 40.75 154.75 40.125C154.25 39.4375 153.625 39.0938 152.875 39.0938C151.688 39.0938 150.531 39.4375 149.406 40.125C148.344 40.75 147.344 41.6562 146.406 42.8438ZM140.406 59.3438C140.406 60.4688 140.469 61.5938 140.594 62.7188C140.719 63.7812 140.969 64.75 141.344 65.625C141.719 66.4375 142.219 67.125 142.844 67.6875C143.469 68.1875 144.281 68.4375 145.281 68.4375C146.406 68.4375 147.438 68.1875 148.375 67.6875C149.312 67.125 150.156 66.4375 150.906 65.625C151.656 64.75 152.312 63.7812 152.875 62.7188C153.5 61.5938 154.031 60.4375 154.469 59.25C154.031 59.3125 153.594 59.375 153.156 59.4375C152.781 59.4375 152.344 59.4375 151.844 59.4375C149.469 59.4375 147.406 58.75 145.656 57.375C143.969 55.9375 142.656 54.125 141.719 51.9375C141.344 53.25 141.031 54.5312 140.781 55.7812C140.531 57.0312 140.406 58.2188 140.406 59.3438ZM170.875 70.5C173.625 58.9375 175.812 49.6562 177.438 42.6562C179.125 35.6562 180.406 30.3125 181.281 26.625C182.281 22.25 182.969 19.2188 183.344 17.5312C183.531 16.3438 183.688 15.1875 183.812 14.0625C183.938 13.0625 184 12.0313 184 10.9688C184 9.90625 183.906 8.9375 183.719 8.0625C184.219 7.75 184.75 7.5 185.312 7.3125C185.938 7.125 186.531 6.96875 187.094 6.84375C187.781 6.65625 188.469 6.5 189.156 6.375C189.844 6.25 190.469 6.1875 191.031 6.1875C191.531 6.1875 192 6.25 192.438 6.375C192.875 6.4375 193.156 6.625 193.281 6.9375C193.656 7.25 193.812 7.875 193.75 8.8125C193.75 9.75 193.688 10.7188 193.562 11.7188C193.312 12.9062 193.031 14.1875 192.719 15.5625C191.969 18.25 190.938 22.125 189.625 27.1875C188.5 31.5 186.969 37.375 185.031 44.8125C183.156 52.25 180.781 61.625 177.906 72.9375C177.594 73.25 177.219 73.4688 176.781 73.5938C176.344 73.7188 175.938 73.7812 175.562 73.7812C175.125 73.7812 174.656 73.75 174.156 73.6875C173.719 73.5625 173.281 73.375 172.844 73.125C172.469 72.875 172.094 72.5312 171.719 72.0938C171.344 71.7188 171.062 71.1875 170.875 70.5ZM213.906 16.7812C213.719 17.4688 213.344 18.1562 212.781 18.8438C212.281 19.4687 211.688 20 211 20.4375C210.375 20.8125 209.719 21.0625 209.031 21.1875C208.344 21.3125 207.781 21.1875 207.344 20.8125C206.031 19.8125 205.344 18.75 205.281 17.625C205.219 16.4375 205.5 15.3437 206.125 14.3438C206.75 13.2812 207.531 12.4063 208.469 11.7188C209.406 10.9688 210.219 10.5313 210.906 10.4062C211.594 10.2812 212.156 10.4375 212.594 10.875C213.094 11.25 213.469 11.7812 213.719 12.4688C213.969 13.0937 214.094 13.8125 214.094 14.625C214.156 15.4375 214.094 16.1563 213.906 16.7812ZM200.969 36.75C201.281 36.375 201.875 36.0625 202.75 35.8125C203.625 35.5625 204.531 35.375 205.469 35.25C206.406 35.0625 207.25 34.9688 208 34.9688C208.812 34.9062 209.281 34.9062 209.406 34.9688C209.469 35.0312 209.312 35.6875 208.938 36.9375C208.562 38.1875 208.094 39.6562 207.531 41.3438C206.969 43.0312 206.375 44.7812 205.75 46.5938C205.125 48.3438 204.656 49.7812 204.344 50.9062C204.031 52.0312 203.656 53.3125 203.219 54.75C202.781 56.125 202.375 57.5 202 58.875C201.688 60.1875 201.469 61.4375 201.344 62.625C201.219 63.8125 201.312 64.7188 201.625 65.3438C201.938 66.0938 202.281 66.625 202.656 66.9375C203.031 67.1875 203.438 67.3125 203.875 67.3125C205.125 67.3125 206.688 66.625 208.562 65.25C210.5 63.875 212.438 62.25 214.375 60.375C216.375 58.4375 218.219 56.5 219.906 54.5625C221.594 52.5625 222.844 50.9688 223.656 49.7812C224.156 49.1562 224.656 48.75 225.156 48.5625C225.719 48.375 226.156 48.4062 226.469 48.6562C226.844 48.9062 227.031 49.3125 227.031 49.875C227.094 50.4375 226.906 51.0938 226.469 51.8438C225.469 53.5938 224 55.6875 222.062 58.125C220.125 60.5 218.062 62.8125 215.875 65.0625C213.688 67.25 211.531 69.125 209.406 70.6875C207.344 72.25 205.656 73.0625 204.344 73.125C203.281 73.1875 202.219 73 201.156 72.5625C200.156 72.1875 199.219 71.6562 198.344 70.9688C197.531 70.2188 196.844 69.375 196.281 68.4375C195.719 67.4375 195.406 66.4062 195.344 65.3438C195.156 63.7812 195.156 61.6562 195.344 58.9688C195.531 56.2188 195.875 53.4375 196.375 50.625C196.875 47.75 197.5 45.0312 198.25 42.4688C199.062 39.9062 199.969 38 200.969 36.75ZM247.469 74.3438C246.031 74.3438 244.781 74.0625 243.719 73.5C242.719 73 241.906 72.3125 241.281 71.4375C240.656 70.5625 240.25 69.5625 240.062 68.4375C239.875 67.25 239.938 66 240.25 64.6875C240.438 63.8125 240.75 62.6562 241.188 61.2188C241.625 59.7188 242.062 58.125 242.5 56.4375C243 54.6875 243.438 52.9688 243.812 51.2812C244.25 49.5312 244.531 47.9688 244.656 46.5938C244.781 45.1562 244.719 44 244.469 43.125C244.219 42.1875 243.688 41.7188 242.875 41.7188C241.875 41.7188 240.844 42.0625 239.781 42.75C238.719 43.375 237.625 44.25 236.5 45.375C235.438 46.5 234.344 47.8125 233.219 49.3125C232.156 50.75 231.094 52.25 230.031 53.8125C229.469 55.9375 229 57.8125 228.625 59.4375C228.25 61 227.906 62.4375 227.594 63.75C227.344 65 227.094 66.125 226.844 67.125C226.594 68.0625 226.375 68.9688 226.188 69.8438C226 70.4688 225.438 71.0938 224.5 71.7188C223.562 72.2812 222.562 72.75 221.5 73.125C220.438 73.5 219.531 73.6875 218.781 73.6875C217.969 73.6875 217.625 73.4062 217.75 72.8438C217.812 72.4688 218.031 71.625 218.406 70.3125C218.719 69 219.125 67.4688 219.625 65.7188C220.062 63.9062 220.531 62 221.031 60C221.531 58 222 56.0938 222.438 54.2812C222.75 52.8438 223.094 51.25 223.469 49.5C223.781 48 224.156 46.25 224.594 44.25C225.094 42.25 225.656 40.0625 226.281 37.6875C226.719 37.3125 227.156 37.0312 227.594 36.8438C228.094 36.5938 228.594 36.4062 229.094 36.2812C229.594 36.0938 230.125 35.9688 230.688 35.9062C231.188 35.9062 231.688 35.9375 232.188 36C232.625 36.0625 233.062 36.1875 233.5 36.375C234 36.5 234.438 36.7188 234.812 37.0312C234.625 37.4688 234.406 38.0938 234.156 38.9062C233.906 39.6562 233.656 40.4688 233.406 41.3438C233.156 42.3438 232.844 43.375 232.469 44.4375C233.281 43.3125 234.188 42.1875 235.188 41.0625C236.25 39.875 237.375 38.8125 238.562 37.875C239.812 36.9375 241.125 36.1875 242.5 35.625C243.875 35 245.281 34.6875 246.719 34.6875C247.906 34.6875 248.969 35.0312 249.906 35.7188C250.844 36.4062 251.562 37.375 252.062 38.625C252.625 39.8125 252.938 41.25 253 42.9375C253.125 44.625 252.906 46.4688 252.344 48.4688L251.312 52.5938C251 53.9062 250.594 55.4688 250.094 57.2812C249.656 59.0312 249.094 60.9688 248.406 63.0938C248.031 64.4688 247.875 65.6562 247.938 66.6562C248.062 67.6562 248.688 68.1562 249.812 68.1562C250.938 68.1562 252.344 67.4688 254.031 66.0938C255.781 64.7188 257.531 63.0625 259.281 61.125C261.031 59.1875 262.688 57.2188 264.25 55.2188C265.812 53.1562 267 51.5 267.812 50.25C268.375 49.4375 268.906 48.9062 269.406 48.6562C269.906 48.4062 270.281 48.375 270.531 48.5625C270.844 48.75 271 49.1875 271 49.875C271 50.5 270.75 51.3125 270.25 52.3125C269.812 53.1875 269.125 54.3438 268.188 55.7812C267.312 57.2188 266.25 58.75 265 60.375C263.75 62 262.406 63.6562 260.969 65.3438C259.531 66.9688 258.031 68.4688 256.469 69.8438C254.906 71.1562 253.344 72.2188 251.781 73.0312C250.281 73.9062 248.844 74.3438 247.469 74.3438ZM306.438 52.5C304.562 55.25 302.438 57.9375 300.062 60.5625C297.688 63.125 295.156 65.4375 292.469 67.5C289.844 69.5 287.125 71.125 284.312 72.375C281.562 73.625 278.875 74.25 276.25 74.25C274.875 74.25 273.375 73.9062 271.75 73.2188C270.188 72.5938 268.75 71.5938 267.438 70.2188C266.125 68.8438 265.062 67.0625 264.25 64.875C263.5 62.6875 263.281 60.0312 263.594 56.9062C263.844 54.3438 264.625 51.6562 265.938 48.8438C267.312 45.9688 268.969 43.3438 270.906 40.9688C272.906 38.5938 275.125 36.625 277.562 35.0625C280.062 33.5 282.562 32.7188 285.062 32.7188C287.438 32.7188 289.156 33.3125 290.219 34.5C291.281 35.6875 291.75 37.1562 291.625 38.9062C291.438 40.8438 290.875 42.625 289.938 44.25C289.062 45.875 288 47.3438 286.75 48.6562C285.5 49.9688 284.156 51.1562 282.719 52.2188C281.344 53.2812 280.031 54.25 278.781 55.125C277.406 56.0625 276.094 56.9688 274.844 57.8438C273.594 58.6562 272.5 59.4062 271.562 60.0938C271.625 61.6562 271.906 62.9688 272.406 64.0312C272.906 65.0938 273.531 65.9688 274.281 66.6562C275.031 67.2812 275.875 67.75 276.812 68.0625C277.812 68.3125 278.812 68.4375 279.812 68.4375C281.938 68.4375 284.156 67.7812 286.469 66.4688C288.781 65.0938 291.031 63.4688 293.219 61.5938C295.469 59.6562 297.531 57.6562 299.406 55.5938C301.344 53.5312 302.938 51.75 304.188 50.25C304.625 49.75 305.062 49.4688 305.5 49.4062C306 49.2812 306.375 49.3438 306.625 49.5938C306.938 49.7812 307.094 50.1562 307.094 50.7188C307.094 51.2188 306.875 51.8125 306.438 52.5ZM282.438 38.0625C281.688 38.0625 280.781 38.4375 279.719 39.1875C278.719 39.9375 277.719 41.0312 276.719 42.4688C275.719 43.8438 274.781 45.5625 273.906 47.625C273.031 49.625 272.375 51.9375 271.938 54.5625C272.688 54 273.5 53.4375 274.375 52.875C275.25 52.25 276.125 51.5938 277 50.9062C279.688 48.8438 281.562 47.0312 282.625 45.4688C283.688 43.9062 284.281 42.5625 284.406 41.4375C284.531 40.25 284.406 39.4062 284.031 38.9062C283.656 38.3438 283.125 38.0625 282.438 38.0625ZM328.75 89.7188C327.25 89.7188 326.344 89.5312 326.031 89.1562C325.656 88.8438 325.594 88.1875 325.844 87.1875C325.906 86.875 326.219 85.4688 326.781 82.9688C327.344 80.5312 328.031 77.5312 328.844 73.9688C329.719 70.4688 330.625 66.6562 331.562 62.5312C332.562 58.4062 333.5 54.5312 334.375 50.9062C333.062 51.0312 332.094 50.9375 331.469 50.625C330.844 50.25 330.531 49.7812 330.531 49.2188C330.594 48.5938 330.938 47.9688 331.562 47.3438C332.25 46.7188 333.219 46.1875 334.469 45.75C334.719 45.625 335.094 45.5 335.594 45.375C335.906 44.3125 336.188 43.2188 336.438 42.0938C336.688 41.1562 336.938 40.1562 337.188 39.0938C337.438 38.0312 337.688 37 337.938 36L344.5 7.96875C344.875 6.53125 345.438 5.46875 346.188 4.78125C347 4.03125 348.469 3.40625 350.594 2.90625C352.344 2.46875 353.562 2.3125 354.25 2.4375C354.938 2.5 355.25 2.6875 355.188 3C355 3.6875 354.531 5.34375 353.781 7.96875C353.031 10.5938 352.125 13.8125 351.062 17.625C350.062 21.375 348.969 25.5312 347.781 30.0938C346.594 34.5938 345.438 39.0625 344.312 43.5C348.062 42.9375 352.625 42.4688 358 42.0938C360.062 41.8438 362.062 41.6875 364 41.625C366 41.5625 367.906 41.5625 369.719 41.625C370.594 38.25 371.438 34.875 372.25 31.5C373.125 28.125 373.938 25 374.688 22.125C375.438 19.25 376.094 16.7188 376.656 14.5312C377.281 12.2812 377.75 10.625 378.062 9.5625C378.438 8.375 378.781 7.40625 379.094 6.65625C379.469 5.90625 379.875 5.3125 380.312 4.875C380.812 4.4375 381.375 4.125 382 3.9375C382.625 3.75 383.344 3.59375 384.156 3.46875C384.594 3.46875 385.125 3.4375 385.75 3.375C386.25 3.375 386.844 3.375 387.531 3.375C388.219 3.3125 389 3.34375 389.875 3.46875C387.5 9.84375 385.281 16.3125 383.219 22.875C381.219 29.375 379.344 35.7188 377.594 41.9062C378.719 42.0312 379.688 42.125 380.5 42.1875C381.375 42.25 382.062 42.3438 382.562 42.4688C384.062 42.7188 385 43.125 385.375 43.6875C385.812 44.25 385.688 45.0625 385 46.125L383.875 47.5312C383.5 48.0312 383.031 48.625 382.469 49.3125C381.906 49.9375 381.188 50.6562 380.312 51.4688C379.812 51.2812 379.281 51.0938 378.719 50.9062C378.219 50.7188 377.719 50.5312 377.219 50.3438C376.594 50.1562 376 49.9688 375.438 49.7812C375 51.2812 374.594 52.75 374.219 54.1875C373.844 55.5625 373.5 56.9688 373.188 58.4062C372.438 61.4688 371.719 64.625 371.031 67.875C370.469 70.6875 369.875 73.7812 369.25 77.1562C368.688 80.5938 368.25 83.9688 367.938 87.2812C367.438 87.5312 366.938 87.6875 366.438 87.75C365.938 87.875 365.5 87.9688 365.125 88.0312C364.688 88.0938 364.25 88.1562 363.812 88.2188H363.719H363.531H363.344C363.094 88.2188 362.844 88.2188 362.594 88.2188C362.344 88.2188 362.094 88.1562 361.844 88.0312C361.531 87.9688 361.219 87.875 360.906 87.75C360.594 87.625 360.281 87.5 359.969 87.375C359.719 87.3125 359.438 87.1875 359.125 87C359.625 84.9375 360 83 360.25 81.1875C360.562 79.375 360.781 77.7812 360.906 76.4062C361.094 74.7812 361.219 73.3438 361.281 72.0938C361.344 70.4688 361.156 68.6875 360.719 66.75C360.344 64.8125 359.719 62.9062 358.844 61.0312C358.031 59.1562 357 57.4062 355.75 55.7812C354.562 54.1562 353.188 52.7812 351.625 51.6562C350.062 50.5938 348.562 49.9062 347.125 49.5938C345.75 49.2812 344.344 49.1875 342.906 49.3125C342.469 51.1875 342.062 53 341.688 54.75C341.312 56.5 341 58.1875 340.75 59.8125C340.062 63.4375 339.406 66.9688 338.781 70.4062C338.281 73.3438 337.75 76.375 337.188 79.5C336.688 82.6875 336.312 85.4062 336.062 87.6562C335.062 88.1562 334.125 88.5312 333.25 88.7812C332.375 89.0938 331.594 89.3125 330.906 89.4375C330.156 89.625 329.438 89.7188 328.75 89.7188ZM365.875 48.0938C363.688 47.8438 361.594 47.7188 359.594 47.7188C357.656 47.6562 355.938 47.625 354.438 47.625C355.688 48.3125 356.781 49.2188 357.719 50.3438C358.719 51.4688 359.75 52.75 360.812 54.1875C361.812 55.5 362.625 56.9375 363.25 58.5C363.875 60.0625 364.406 61.5625 364.844 63C365.344 60.375 365.875 57.8125 366.438 55.3125C367 52.8125 367.531 50.4688 368.031 48.2812C367.656 48.2188 367.281 48.1875 366.906 48.1875C366.594 48.125 366.25 48.0938 365.875 48.0938ZM431.406 52.5C429.531 55.25 427.406 57.9375 425.031 60.5625C422.656 63.125 420.125 65.4375 417.438 67.5C414.812 69.5 412.094 71.125 409.281 72.375C406.531 73.625 403.844 74.25 401.219 74.25C399.844 74.25 398.344 73.9062 396.719 73.2188C395.156 72.5938 393.719 71.5938 392.406 70.2188C391.094 68.8438 390.031 67.0625 389.219 64.875C388.469 62.6875 388.25 60.0312 388.562 56.9062C388.812 54.3438 389.594 51.6562 390.906 48.8438C392.281 45.9688 393.938 43.3438 395.875 40.9688C397.875 38.5938 400.094 36.625 402.531 35.0625C405.031 33.5 407.531 32.7188 410.031 32.7188C412.406 32.7188 414.125 33.3125 415.188 34.5C416.25 35.6875 416.719 37.1562 416.594 38.9062C416.406 40.8438 415.844 42.625 414.906 44.25C414.031 45.875 412.969 47.3438 411.719 48.6562C410.469 49.9688 409.125 51.1562 407.688 52.2188C406.312 53.2812 405 54.25 403.75 55.125C402.375 56.0625 401.062 56.9688 399.812 57.8438C398.562 58.6562 397.469 59.4062 396.531 60.0938C396.594 61.6562 396.875 62.9688 397.375 64.0312C397.875 65.0938 398.5 65.9688 399.25 66.6562C400 67.2812 400.844 67.75 401.781 68.0625C402.781 68.3125 403.781 68.4375 404.781 68.4375C406.906 68.4375 409.125 67.7812 411.438 66.4688C413.75 65.0938 416 63.4688 418.188 61.5938C420.438 59.6562 422.5 57.6562 424.375 55.5938C426.312 53.5312 427.906 51.75 429.156 50.25C429.594 49.75 430.031 49.4688 430.469 49.4062C430.969 49.2812 431.344 49.3438 431.594 49.5938C431.906 49.7812 432.062 50.1562 432.062 50.7188C432.062 51.2188 431.844 51.8125 431.406 52.5ZM407.406 38.0625C406.656 38.0625 405.75 38.4375 404.688 39.1875C403.688 39.9375 402.688 41.0312 401.688 42.4688C400.688 43.8438 399.75 45.5625 398.875 47.625C398 49.625 397.344 51.9375 396.906 54.5625C397.656 54 398.469 53.4375 399.344 52.875C400.219 52.25 401.094 51.5938 401.969 50.9062C404.656 48.8438 406.531 47.0312 407.594 45.4688C408.656 43.9062 409.25 42.5625 409.375 41.4375C409.5 40.25 409.375 39.4062 409 38.9062C408.625 38.3438 408.094 38.0625 407.406 38.0625ZM421.094 71.5312C420.656 72.2188 420.188 72.6562 419.688 72.8438C419.125 73.0938 418.656 73.125 418.281 72.9375C417.844 72.8125 417.562 72.5 417.438 72C417.312 71.5 417.438 70.875 417.812 70.125C418 69.75 418.438 68.9062 419.125 67.5938C419.75 66.2812 420.531 64.7188 421.469 62.9062C422.344 61.0312 423.312 59.0312 424.375 56.9062C425.438 54.7188 426.438 52.6562 427.375 50.7188C428.375 48.7812 429.281 47.0625 430.094 45.5625C430.906 44 431.5 42.875 431.875 42.1875C431.188 41.5625 430.719 41.125 430.469 40.875C430.219 40.5625 430.031 39.9375 429.906 39C429.781 38.1875 429.969 37.125 430.469 35.8125C430.969 34.5 431.625 33.25 432.438 32.0625C433.25 30.8125 434.156 29.75 435.156 28.875C436.156 28 437.125 27.5625 438.062 27.5625C439.812 27.5625 441.031 28.125 441.719 29.25C442.469 30.375 442.906 31.5312 443.031 32.7188C443.156 33.5312 443.094 34.5625 442.844 35.8125C442.594 37.0625 442.125 38.1875 441.438 39.1875C441.625 39.3125 441.875 39.4688 442.188 39.6562C442.5 39.7812 443 39.8438 443.688 39.8438C444.688 39.8438 445.375 39.7812 445.75 39.6562C446.188 39.5312 446.844 39.4688 447.719 39.4688C448.781 39.4688 449.656 39.75 450.344 40.3125C451.031 40.8125 451.594 41.4688 452.031 42.2812C452.469 43.0312 452.781 43.875 452.969 44.8125C453.219 45.6875 453.375 46.5 453.438 47.25C453.625 48.8125 453.219 50.4375 452.219 52.125C451.219 53.8125 450 55.6562 448.562 57.6562C447.688 58.9062 446.812 60.3125 445.938 61.875C445.062 63.4375 444.688 64.8438 444.812 66.0938C444.938 66.9062 445.156 67.5625 445.469 68.0625C445.781 68.5625 446.656 68.8125 448.094 68.8125C449.156 68.8125 450.312 68.4375 451.562 67.6875C452.875 66.875 454.188 65.875 455.5 64.6875C456.875 63.4375 458.219 62.0938 459.531 60.6562C460.844 59.1562 462.062 57.7188 463.188 56.3438C464.312 54.9062 465.25 53.625 466 52.5C466.812 51.375 467.406 50.5625 467.781 50.0625C468.094 49.5625 468.5 49.2188 469 49.0312C469.5 48.8438 469.938 48.8438 470.312 49.0312C470.688 49.2188 470.906 49.5938 470.969 50.1562C471.094 50.7188 470.875 51.4688 470.312 52.4062C469.938 53.0312 469.281 54.0312 468.344 55.4062C467.469 56.7812 466.375 58.3125 465.062 60C463.812 61.6875 462.406 63.4375 460.844 65.25C459.281 67 457.625 68.625 455.875 70.125C454.188 71.5625 452.469 72.75 450.719 73.6875C449.031 74.625 447.406 75.0938 445.844 75.0938C444.219 75.0938 442.875 74.7812 441.812 74.1562C440.75 73.5312 439.875 72.7812 439.188 71.9062C438.562 70.9688 438.094 69.9688 437.781 68.9062C437.531 67.7812 437.438 66.75 437.5 65.8125C437.562 65.0625 437.75 64.2812 438.062 63.4688C438.438 62.5938 438.844 61.7188 439.281 60.8438C439.781 59.9062 440.281 59 440.781 58.125C441.344 57.1875 441.844 56.2812 442.281 55.4062C443.344 53.5938 444.188 52.0625 444.812 50.8125C445.5 49.5 445.844 48.4062 445.844 47.5312C445.844 46.9688 445.719 46.4688 445.469 46.0312C445.219 45.5938 444.812 45.375 444.25 45.375C443.875 45.375 443.594 45.4062 443.406 45.4688C443.281 45.4688 443.125 45.4688 442.938 45.4688C442.812 45.4688 442.594 45.5 442.281 45.5625C442.031 45.5625 441.625 45.5625 441.062 45.5625C440.25 45.5625 439.562 45.4375 439 45.1875C438.438 44.9375 437.906 44.75 437.406 44.625C437.156 45.0625 436.594 46 435.719 47.4375C434.844 48.875 433.812 50.5625 432.625 52.5C431.5 54.4375 430.281 56.4688 428.969 58.5938C427.719 60.7188 426.531 62.7188 425.406 64.5938C424.281 66.4062 423.344 67.9688 422.594 69.2812C421.781 70.5312 421.281 71.2812 421.094 71.5312ZM460.094 71.5312C459.656 72.2188 459.188 72.6562 458.688 72.8438C458.125 73.0938 457.656 73.125 457.281 72.9375C456.844 72.8125 456.562 72.5 456.438 72C456.312 71.5 456.438 70.875 456.812 70.125C457 69.75 457.438 68.9062 458.125 67.5938C458.75 66.2812 459.531 64.7188 460.469 62.9062C461.344 61.0312 462.312 59.0312 463.375 56.9062C464.438 54.7188 465.438 52.6562 466.375 50.7188C467.375 48.7812 468.281 47.0625 469.094 45.5625C469.906 44 470.5 42.875 470.875 42.1875C470.188 41.5625 469.719 41.125 469.469 40.875C469.219 40.5625 469.031 39.9375 468.906 39C468.781 38.1875 468.969 37.125 469.469 35.8125C469.969 34.5 470.625 33.25 471.438 32.0625C472.25 30.8125 473.156 29.75 474.156 28.875C475.156 28 476.125 27.5625 477.062 27.5625C478.812 27.5625 480.031 28.125 480.719 29.25C481.469 30.375 481.906 31.5312 482.031 32.7188C482.156 33.5312 482.094 34.5625 481.844 35.8125C481.594 37.0625 481.125 38.1875 480.438 39.1875C480.625 39.3125 480.875 39.4688 481.188 39.6562C481.5 39.7812 482 39.8438 482.688 39.8438C483.688 39.8438 484.375 39.7812 484.75 39.6562C485.188 39.5312 485.844 39.4688 486.719 39.4688C487.781 39.4688 488.656 39.75 489.344 40.3125C490.031 40.8125 490.594 41.4688 491.031 42.2812C491.469 43.0312 491.781 43.875 491.969 44.8125C492.219 45.6875 492.375 46.5 492.438 47.25C492.625 48.8125 492.219 50.4375 491.219 52.125C490.219 53.8125 489 55.6562 487.562 57.6562C486.688 58.9062 485.812 60.3125 484.938 61.875C484.062 63.4375 483.688 64.8438 483.812 66.0938C483.938 66.9062 484.156 67.5625 484.469 68.0625C484.781 68.5625 485.656 68.8125 487.094 68.8125C488.156 68.8125 489.312 68.4375 490.562 67.6875C491.875 66.875 493.188 65.875 494.5 64.6875C495.875 63.4375 497.219 62.0938 498.531 60.6562C499.844 59.1562 501.062 57.7188 502.188 56.3438C503.312 54.9062 504.25 53.625 505 52.5C505.812 51.375 506.406 50.5625 506.781 50.0625C507.094 49.5625 507.5 49.2188 508 49.0312C508.5 48.8438 508.938 48.8438 509.312 49.0312C509.688 49.2188 509.906 49.5938 509.969 50.1562C510.094 50.7188 509.875 51.4688 509.312 52.4062C508.938 53.0312 508.281 54.0312 507.344 55.4062C506.469 56.7812 505.375 58.3125 504.062 60C502.812 61.6875 501.406 63.4375 499.844 65.25C498.281 67 496.625 68.625 494.875 70.125C493.188 71.5625 491.469 72.75 489.719 73.6875C488.031 74.625 486.406 75.0938 484.844 75.0938C483.219 75.0938 481.875 74.7812 480.812 74.1562C479.75 73.5312 478.875 72.7812 478.188 71.9062C477.562 70.9688 477.094 69.9688 476.781 68.9062C476.531 67.7812 476.438 66.75 476.5 65.8125C476.562 65.0625 476.75 64.2812 477.062 63.4688C477.438 62.5938 477.844 61.7188 478.281 60.8438C478.781 59.9062 479.281 59 479.781 58.125C480.344 57.1875 480.844 56.2812 481.281 55.4062C482.344 53.5938 483.188 52.0625 483.812 50.8125C484.5 49.5 484.844 48.4062 484.844 47.5312C484.844 46.9688 484.719 46.4688 484.469 46.0312C484.219 45.5938 483.812 45.375 483.25 45.375C482.875 45.375 482.594 45.4062 482.406 45.4688C482.281 45.4688 482.125 45.4688 481.938 45.4688C481.812 45.4688 481.594 45.5 481.281 45.5625C481.031 45.5625 480.625 45.5625 480.062 45.5625C479.25 45.5625 478.562 45.4375 478 45.1875C477.438 44.9375 476.906 44.75 476.406 44.625C476.156 45.0625 475.594 46 474.719 47.4375C473.844 48.875 472.812 50.5625 471.625 52.5C470.5 54.4375 469.281 56.4688 467.969 58.5938C466.719 60.7188 465.531 62.7188 464.406 64.5938C463.281 66.4062 462.344 67.9688 461.594 69.2812C460.781 70.5312 460.281 71.2812 460.094 71.5312ZM545.125 52.5C543.25 55.25 541.125 57.9375 538.75 60.5625C536.375 63.125 533.844 65.4375 531.156 67.5C528.531 69.5 525.812 71.125 523 72.375C520.25 73.625 517.562 74.25 514.938 74.25C513.562 74.25 512.062 73.9062 510.438 73.2188C508.875 72.5938 507.438 71.5938 506.125 70.2188C504.812 68.8438 503.75 67.0625 502.938 64.875C502.188 62.6875 501.969 60.0312 502.281 56.9062C502.531 54.3438 503.312 51.6562 504.625 48.8438C506 45.9688 507.656 43.3438 509.594 40.9688C511.594 38.5938 513.812 36.625 516.25 35.0625C518.75 33.5 521.25 32.7188 523.75 32.7188C526.125 32.7188 527.844 33.3125 528.906 34.5C529.969 35.6875 530.438 37.1562 530.312 38.9062C530.125 40.8438 529.562 42.625 528.625 44.25C527.75 45.875 526.688 47.3438 525.438 48.6562C524.188 49.9688 522.844 51.1562 521.406 52.2188C520.031 53.2812 518.719 54.25 517.469 55.125C516.094 56.0625 514.781 56.9688 513.531 57.8438C512.281 58.6562 511.188 59.4062 510.25 60.0938C510.312 61.6562 510.594 62.9688 511.094 64.0312C511.594 65.0938 512.219 65.9688 512.969 66.6562C513.719 67.2812 514.562 67.75 515.5 68.0625C516.5 68.3125 517.5 68.4375 518.5 68.4375C520.625 68.4375 522.844 67.7812 525.156 66.4688C527.469 65.0938 529.719 63.4688 531.906 61.5938C534.156 59.6562 536.219 57.6562 538.094 55.5938C540.031 53.5312 541.625 51.75 542.875 50.25C543.312 49.75 543.75 49.4688 544.188 49.4062C544.688 49.2812 545.062 49.3438 545.312 49.5938C545.625 49.7812 545.781 50.1562 545.781 50.7188C545.781 51.2188 545.562 51.8125 545.125 52.5ZM521.125 38.0625C520.375 38.0625 519.469 38.4375 518.406 39.1875C517.406 39.9375 516.406 41.0312 515.406 42.4688C514.406 43.8438 513.469 45.5625 512.594 47.625C511.719 49.625 511.062 51.9375 510.625 54.5625C511.375 54 512.188 53.4375 513.062 52.875C513.938 52.25 514.812 51.5938 515.688 50.9062C518.375 48.8438 520.25 47.0312 521.312 45.4688C522.375 43.9062 522.969 42.5625 523.094 41.4375C523.219 40.25 523.094 39.4062 522.719 38.9062C522.344 38.3438 521.812 38.0625 521.125 38.0625ZM534.812 71.5312C534.375 72.2188 533.906 72.6562 533.406 72.8438C532.844 73.0938 532.375 73.125 532 72.9375C531.562 72.8125 531.281 72.5 531.156 72C531.031 71.5 531.156 70.875 531.531 70.125C531.719 69.75 532.156 68.9062 532.844 67.5938C533.469 66.2812 534.25 64.7188 535.188 62.9062C536.062 61.0312 537.031 59.0312 538.094 56.9062C539.156 54.7188 540.156 52.6562 541.094 50.7188C542.094 48.7812 543 47.0625 543.812 45.5625C544.625 44 545.219 42.875 545.594 42.1875C544.906 41.5625 544.438 41.125 544.188 40.875C543.938 40.5625 543.75 39.9375 543.625 39C543.5 38.1875 543.688 37.125 544.188 35.8125C544.688 34.5 545.344 33.25 546.156 32.0625C546.969 30.8125 547.875 29.75 548.875 28.875C549.875 28 550.844 27.5625 551.781 27.5625C553.531 27.5625 554.75 28.125 555.438 29.25C556.188 30.375 556.625 31.5312 556.75 32.7188C556.875 33.5312 556.812 34.5625 556.562 35.8125C556.312 37.0625 555.844 38.1875 555.156 39.1875C555.344 39.3125 555.594 39.4688 555.906 39.6562C556.219 39.7812 556.719 39.8438 557.406 39.8438C558.406 39.8438 559.094 39.7812 559.469 39.6562C559.906 39.5312 560.562 39.4688 561.438 39.4688C562.5 39.4688 563.375 39.75 564.062 40.3125C564.75 40.8125 565.312 41.4688 565.75 42.2812C566.188 43.0312 566.5 43.875 566.688 44.8125C566.938 45.6875 567.094 46.5 567.156 47.25C567.344 48.8125 566.938 50.4375 565.938 52.125C564.938 53.8125 563.719 55.6562 562.281 57.6562C561.406 58.9062 560.531 60.3125 559.656 61.875C558.781 63.4375 558.406 64.8438 558.531 66.0938C558.656 66.9062 558.875 67.5625 559.188 68.0625C559.5 68.5625 560.375 68.8125 561.812 68.8125C562.875 68.8125 564.031 68.4375 565.281 67.6875C566.594 66.875 567.906 65.875 569.219 64.6875C570.594 63.4375 571.938 62.0938 573.25 60.6562C574.562 59.1562 575.781 57.7188 576.906 56.3438C578.031 54.9062 578.969 53.625 579.719 52.5C580.531 51.375 581.125 50.5625 581.5 50.0625C581.812 49.5625 582.219 49.2188 582.719 49.0312C583.219 48.8438 583.656 48.8438 584.031 49.0312C584.406 49.2188 584.625 49.5938 584.688 50.1562C584.812 50.7188 584.594 51.4688 584.031 52.4062C583.656 53.0312 583 54.0312 582.062 55.4062C581.188 56.7812 580.094 58.3125 578.781 60C577.531 61.6875 576.125 63.4375 574.562 65.25C573 67 571.344 68.625 569.594 70.125C567.906 71.5625 566.188 72.75 564.438 73.6875C562.75 74.625 561.125 75.0938 559.562 75.0938C557.938 75.0938 556.594 74.7812 555.531 74.1562C554.469 73.5312 553.594 72.7812 552.906 71.9062C552.281 70.9688 551.812 69.9688 551.5 68.9062C551.25 67.7812 551.156 66.75 551.219 65.8125C551.281 65.0625 551.469 64.2812 551.781 63.4688C552.156 62.5938 552.562 61.7188 553 60.8438C553.5 59.9062 554 59 554.5 58.125C555.062 57.1875 555.562 56.2812 556 55.4062C557.062 53.5938 557.906 52.0625 558.531 50.8125C559.219 49.5 559.562 48.4062 559.562 47.5312C559.562 46.9688 559.438 46.4688 559.188 46.0312C558.938 45.5938 558.531 45.375 557.969 45.375C557.594 45.375 557.312 45.4062 557.125 45.4688C557 45.4688 556.844 45.4688 556.656 45.4688C556.531 45.4688 556.312 45.5 556 45.5625C555.75 45.5625 555.344 45.5625 554.781 45.5625C553.969 45.5625 553.281 45.4375 552.719 45.1875C552.156 44.9375 551.625 44.75 551.125 44.625C550.875 45.0625 550.312 46 549.438 47.4375C548.562 48.875 547.531 50.5625 546.344 52.5C545.219 54.4375 544 56.4688 542.688 58.5938C541.438 60.7188 540.25 62.7188 539.125 64.5938C538 66.4062 537.062 67.9688 536.312 69.2812C535.5 70.5312 535 71.2812 534.812 71.5312ZM625.469 53.3438C624.594 54.5938 623.469 56.1562 622.094 58.0312C620.719 59.8438 619.281 61.6875 617.781 63.5625C616.344 65.375 614.906 67.0625 613.469 68.625C612.094 70.125 610.938 71.1875 610 71.8125C609.375 72.1875 608.656 72.5 607.844 72.75C607.031 73 606.188 73.1562 605.312 73.2188C604.5 73.2812 603.719 73.2188 602.969 73.0312C602.219 72.9062 601.562 72.6562 601 72.2812C600.438 71.8438 599.969 71.2188 599.594 70.4062C599.281 69.7188 598.969 68.8125 598.656 67.6875C598.406 66.5625 598.312 65.1562 598.375 63.4688C596.875 65.9688 595.219 67.9062 593.406 69.2812C591.594 70.5938 589.875 71.5625 588.25 72.1875C586.375 72.875 584.5 73.2812 582.625 73.4062C581.75 73.4062 580.812 73.0938 579.812 72.4688C578.812 71.9062 577.969 71 577.281 69.75C576.594 68.4375 576.156 66.7812 575.969 64.7812C575.781 62.7188 576.031 60.2812 576.719 57.4688C577.594 53.6562 578.969 50.1875 580.844 47.0625C582.781 43.9375 584.875 41.2812 587.125 39.0938C589.375 36.8438 591.594 35.1562 593.781 34.0312C595.969 32.9062 597.781 32.4062 599.219 32.5312C600.906 32.8438 602.281 33.3438 603.344 34.0312C604.219 34.6562 604.781 35.5938 605.031 36.8438C605.344 38.0312 604.844 39.625 603.531 41.625C604.406 41.4375 605.125 41.3125 605.688 41.25C606.312 41.1875 606.781 41.1562 607.094 41.1562C607.469 41.1562 607.719 41.1875 607.844 41.25C607.906 41.375 607.938 41.6562 607.938 42.0938C607.938 42.4688 607.844 43.1875 607.656 44.25C607.469 45.3125 607.188 46.75 606.812 48.5625C606.438 50.375 605.938 52.7188 605.312 55.5938C605.188 56.1562 605.062 56.6875 604.938 57.1875C604.875 57.625 604.781 58.0938 604.656 58.5938C604.594 59.0312 604.5 59.5625 604.375 60.1875C604.25 60.8125 604.094 61.5938 603.906 62.5312C603.844 63.0938 603.812 63.7188 603.812 64.4062C603.875 65.0312 604 65.625 604.188 66.1875C604.375 66.75 604.656 67.2188 605.031 67.5938C605.469 67.9062 606.062 68.0625 606.812 68.0625C607.438 68.0625 608.25 67.6875 609.25 66.9375C610.25 66.125 611.312 65.125 612.438 63.9375C613.562 62.6875 614.719 61.3438 615.906 59.9062C617.156 58.4062 618.312 56.9688 619.375 55.5938C620.438 54.2188 621.375 53 622.188 51.9375C623.062 50.875 623.688 50.0938 624.062 49.5938C624.562 49.0312 625.062 48.7188 625.562 48.6562C626.062 48.5312 626.438 48.6562 626.688 49.0312C626.938 49.4062 626.969 49.9688 626.781 50.7188C626.656 51.4688 626.219 52.3438 625.469 53.3438ZM598 57.4688C598.312 56.2188 598.688 54.75 599.125 53.0625C599.562 51.375 599.938 49.75 600.25 48.1875C600.562 46.625 600.781 45.3438 600.906 44.3438C601.094 43.2812 601.062 42.7812 600.812 42.8438C600.5 42.9062 600.156 43 599.781 43.125C599.469 43.25 599.062 43.3438 598.562 43.4062C598.062 43.4688 597.562 43.5625 597.062 43.6875C597.562 42.6875 597.844 41.875 597.906 41.25C598.031 40.5625 598.062 40.0312 598 39.6562C597.938 39.2188 597.812 38.875 597.625 38.625C596.938 38.0625 595.719 38.5312 593.969 40.0312C592.281 41.4688 590.312 44.1562 588.062 48.0938C587.125 49.7188 586.375 51.4688 585.812 53.3438C585.25 55.1562 584.844 56.875 584.594 58.5C584.406 60.125 584.375 61.5625 584.5 62.8125C584.625 64 584.875 64.7812 585.25 65.1562C585.938 65.8438 586.719 66.1875 587.594 66.1875C588.469 66.125 589.344 65.875 590.219 65.4375C591.156 64.9375 592.062 64.3125 592.938 63.5625C593.875 62.8125 594.688 62.0312 595.375 61.2188C596.125 60.4062 596.719 59.6562 597.156 58.9688C597.656 58.2812 597.938 57.7812 598 57.4688Z" fill="#817E7E"/>
<path d="M209.582 112.4V125H208.268V119.186H200.384V125H199.052V112.4H200.384V118.016H208.268V112.4H209.582ZM227.177 121.634H220.157L218.645 125H217.259L223.019 112.4H224.333L230.093 125H228.689L227.177 121.634ZM226.691 120.554L223.667 113.786L220.643 120.554H226.691ZM242.569 125.108C240.937 125.108 239.665 124.64 238.753 123.704C237.841 122.768 237.385 121.406 237.385 119.618V112.4H238.717V119.564C238.717 121.028 239.047 122.12 239.707 122.84C240.367 123.56 241.321 123.92 242.569 123.92C243.829 123.92 244.789 123.56 245.449 122.84C246.109 122.12 246.439 121.028 246.439 119.564V112.4H247.735V119.618C247.735 121.406 247.279 122.768 246.367 123.704C245.467 124.64 244.201 125.108 242.569 125.108ZM259.531 113.552H255.103V112.4H265.291V113.552H260.863V125H259.531V113.552ZM281.909 123.848V125H272.999V112.4H281.639V113.552H274.331V118.034H280.847V119.168H274.331V123.848H281.909ZM306.383 125.108C305.135 125.108 304.007 124.832 302.999 124.28C302.003 123.728 301.217 122.966 300.641 121.994C300.077 121.01 299.795 119.912 299.795 118.7C299.795 117.488 300.077 116.396 300.641 115.424C301.217 114.44 302.009 113.672 303.017 113.12C304.025 112.568 305.153 112.292 306.401 112.292C307.337 112.292 308.201 112.448 308.993 112.76C309.785 113.072 310.457 113.528 311.009 114.128L310.163 114.974C309.179 113.978 307.937 113.48 306.437 113.48C305.441 113.48 304.535 113.708 303.719 114.164C302.903 114.62 302.261 115.244 301.793 116.036C301.337 116.828 301.109 117.716 301.109 118.7C301.109 119.684 301.337 120.572 301.793 121.364C302.261 122.156 302.903 122.78 303.719 123.236C304.535 123.692 305.441 123.92 306.437 123.92C307.949 123.92 309.191 123.416 310.163 122.408L311.009 123.254C310.457 123.854 309.779 124.316 308.975 124.64C308.183 124.952 307.319 125.108 306.383 125.108ZM324.673 125.108C323.425 125.108 322.291 124.832 321.271 124.28C320.263 123.716 319.471 122.948 318.895 121.976C318.331 121.004 318.049 119.912 318.049 118.7C318.049 117.488 318.331 116.396 318.895 115.424C319.471 114.452 320.263 113.69 321.271 113.138C322.291 112.574 323.425 112.292 324.673 112.292C325.921 112.292 327.043 112.568 328.039 113.12C329.047 113.672 329.839 114.44 330.415 115.424C330.991 116.396 331.279 117.488 331.279 118.7C331.279 119.912 330.991 121.01 330.415 121.994C329.839 122.966 329.047 123.728 328.039 124.28C327.043 124.832 325.921 125.108 324.673 125.108ZM324.673 123.92C325.669 123.92 326.569 123.698 327.373 123.254C328.177 122.798 328.807 122.174 329.263 121.382C329.719 120.578 329.947 119.684 329.947 118.7C329.947 117.716 329.719 116.828 329.263 116.036C328.807 115.232 328.177 114.608 327.373 114.164C326.569 113.708 325.669 113.48 324.673 113.48C323.677 113.48 322.771 113.708 321.955 114.164C321.151 114.608 320.515 115.232 320.047 116.036C319.591 116.828 319.363 117.716 319.363 118.7C319.363 119.684 319.591 120.578 320.047 121.382C320.515 122.174 321.151 122.798 321.955 123.254C322.771 123.698 323.677 123.92 324.673 123.92ZM344.92 125.108C343.288 125.108 342.016 124.64 341.104 123.704C340.192 122.768 339.736 121.406 339.736 119.618V112.4H341.068V119.564C341.068 121.028 341.398 122.12 342.058 122.84C342.718 123.56 343.672 123.92 344.92 123.92C346.18 123.92 347.14 123.56 347.8 122.84C348.46 122.12 348.79 121.028 348.79 119.564V112.4H350.086V119.618C350.086 121.406 349.63 122.768 348.718 123.704C347.818 124.64 346.552 125.108 344.92 125.108ZM361.882 113.552H357.454V112.4H367.642V113.552H363.214V125H361.882V113.552ZM380.18 125.108C378.548 125.108 377.276 124.64 376.364 123.704C375.452 122.768 374.996 121.406 374.996 119.618V112.4H376.328V119.564C376.328 121.028 376.658 122.12 377.318 122.84C377.978 123.56 378.932 123.92 380.18 123.92C381.44 123.92 382.4 123.56 383.06 122.84C383.72 122.12 384.05 121.028 384.05 119.564V112.4H385.346V119.618C385.346 121.406 384.89 122.768 383.978 123.704C383.078 124.64 381.812 125.108 380.18 125.108ZM403.544 125L400.664 120.95C400.34 120.986 400.004 121.004 399.656 121.004H396.272V125H394.94V112.4H399.656C401.264 112.4 402.524 112.784 403.436 113.552C404.348 114.32 404.804 115.376 404.804 116.72C404.804 117.704 404.552 118.538 404.048 119.222C403.556 119.894 402.848 120.38 401.924 120.68L405.002 125H403.544ZM399.62 119.87C400.868 119.87 401.822 119.594 402.482 119.042C403.142 118.49 403.472 117.716 403.472 116.72C403.472 115.7 403.142 114.92 402.482 114.38C401.822 113.828 400.868 113.552 399.62 113.552H396.272V119.87H399.62ZM422.438 123.848V125H413.528V112.4H422.168V113.552H414.86V118.034H421.376V119.168H414.86V123.848H422.438Z" fill="#817E7E"/>
</g>
<defs>
<clipPath id="clip0">
<rect width="628" height="125" fill="white"/>
</clipPath>
</defs>
</svg>
