<svg width="274" height="105" viewBox="0 0 274 105" fill="none" xmlns="http://www.w3.org/2000/svg">
<g clip-path="url(#clip0)">
<path d="M114.328 30.968C114.744 32.024 115.224 32.792 115.768 33.272C116.312 33.752 116.84 34.008 117.352 34.04V35C115.432 34.904 113 34.856 110.056 34.856C106.792 34.856 104.36 34.904 102.76 35V34.04C103.976 33.976 104.84 33.832 105.352 33.608C105.864 33.352 106.12 32.92 106.12 32.312C106.12 31.736 105.928 30.968 105.544 30.008L102.664 22.136H92.2L90.952 25.448C90.056 27.752 89.608 29.528 89.608 30.776C89.608 31.96 89.96 32.792 90.664 33.272C91.4 33.72 92.472 33.976 93.88 34.04V35C91.704 34.904 89.72 34.856 87.928 34.856C86.456 34.856 85.24 34.904 84.28 35V34.04C85.848 33.752 87.224 32.072 88.408 29L99.352 0.919998C99.704 0.951998 100.264 0.967998 101.032 0.967998C101.8 0.967998 102.344 0.951998 102.664 0.919998L114.328 30.968ZM102.328 21.176L97.576 8.216L92.584 21.176H102.328ZM135.422 1.016C141.662 1.016 146.334 2.44 149.438 5.288C152.542 8.104 154.094 12.216 154.094 17.624C154.094 21.112 153.326 24.168 151.79 26.792C150.286 29.384 148.094 31.4 145.214 32.84C142.366 34.28 138.958 35 134.99 35L132.014 34.952C130.158 34.888 128.814 34.856 127.982 34.856C124.686 34.856 122.222 34.904 120.59 35V34.04C121.646 33.976 122.414 33.848 122.894 33.656C123.406 33.464 123.742 33.096 123.902 32.552C124.094 32.008 124.19 31.128 124.19 29.912V6.104C124.19 4.888 124.094 4.008 123.902 3.464C123.742 2.92 123.406 2.552 122.894 2.36C122.414 2.168 121.646 2.04 120.59 1.976V1.016C121.934 1.112 123.87 1.16 126.398 1.16H127.886L129.806 1.112C132.43 1.048 134.302 1.016 135.422 1.016ZM135.374 1.88C134.382 1.88 133.63 1.992 133.118 2.216C132.638 2.44 132.302 2.84 132.11 3.416C131.918 3.992 131.822 4.856 131.822 6.008V30.008C131.822 31.16 131.918 32.024 132.11 32.6C132.302 33.176 132.638 33.576 133.118 33.8C133.63 34.024 134.398 34.136 135.422 34.136C139.294 34.136 142.046 32.792 143.678 30.104C145.31 27.384 146.126 23.288 146.126 17.816C146.126 12.344 145.278 8.328 143.582 5.768C141.918 3.176 139.182 1.88 135.374 1.88ZM187.026 30.968C187.442 32.024 187.922 32.792 188.466 33.272C189.01 33.752 189.538 34.008 190.05 34.04V35C188.13 34.904 185.698 34.856 182.754 34.856C179.49 34.856 177.058 34.904 175.458 35V34.04C176.674 33.976 177.538 33.832 178.05 33.608C178.562 33.352 178.818 32.92 178.818 32.312C178.818 31.736 178.626 30.968 178.242 30.008L175.362 22.136H164.898L163.65 25.448C162.754 27.752 162.306 29.528 162.306 30.776C162.306 31.96 162.658 32.792 163.362 33.272C164.098 33.72 165.17 33.976 166.578 34.04V35C164.402 34.904 162.418 34.856 160.626 34.856C159.154 34.856 157.938 34.904 156.978 35V34.04C158.546 33.752 159.922 32.072 161.106 29L172.05 0.919998C172.402 0.951998 172.962 0.967998 173.73 0.967998C174.498 0.967998 175.042 0.951998 175.362 0.919998L187.026 30.968ZM175.026 21.176L170.274 8.216L165.282 21.176H175.026Z" fill="#817E7E"/>
<path d="M8.75391 30.2285H4.09863V34.2891H9.45117V35H3.25781V25.0469H9.41699V25.7646H4.09863V29.5176H8.75391V30.2285ZM16.8613 32.5527C16.8613 32.0013 16.6676 31.5661 16.2803 31.2471C15.8929 30.9235 15.1842 30.6182 14.1543 30.3311C13.1243 30.0394 12.3724 29.7227 11.8984 29.3809C11.224 28.8978 10.8867 28.2643 10.8867 27.4805C10.8867 26.7194 11.1989 26.1019 11.8232 25.6279C12.4521 25.1494 13.2542 24.9102 14.2295 24.9102C14.8903 24.9102 15.4805 25.0378 16 25.293C16.5241 25.5482 16.9297 25.9036 17.2168 26.3594C17.5039 26.8151 17.6475 27.3232 17.6475 27.8838H16.7998C16.7998 27.2048 16.5674 26.6602 16.1025 26.25C15.6377 25.8353 15.0133 25.6279 14.2295 25.6279C13.4684 25.6279 12.8623 25.7988 12.4111 26.1406C11.96 26.4779 11.7344 26.9199 11.7344 27.4668C11.7344 27.9727 11.9372 28.3851 12.3428 28.7041C12.7484 29.0231 13.3978 29.3057 14.291 29.5518C15.1842 29.7933 15.861 30.0462 16.3213 30.3105C16.7816 30.5703 17.1279 30.8825 17.3604 31.2471C17.5928 31.6117 17.709 32.0423 17.709 32.5391C17.709 33.3229 17.3945 33.9518 16.7656 34.4258C16.1413 34.8997 15.3164 35.1367 14.291 35.1367C13.5892 35.1367 12.9443 35.0114 12.3564 34.7607C11.7731 34.5101 11.3288 34.1592 11.0234 33.708C10.7227 33.2568 10.5723 32.7396 10.5723 32.1562H11.4131C11.4131 32.8581 11.6751 33.4118 12.1992 33.8174C12.7233 34.223 13.4206 34.4258 14.291 34.4258C15.0658 34.4258 15.6878 34.2549 16.1572 33.9131C16.6266 33.5713 16.8613 33.1178 16.8613 32.5527ZM26.2812 25.7646H22.8701V35H22.0293V25.7646H18.625V25.0469H26.2812V25.7646ZM26.1377 34.5078C26.1377 34.3483 26.1878 34.2139 26.2881 34.1045C26.3929 33.9906 26.5365 33.9336 26.7188 33.9336C26.901 33.9336 27.0446 33.9906 27.1494 34.1045C27.2542 34.2139 27.3066 34.3483 27.3066 34.5078C27.3066 34.6673 27.2542 34.7995 27.1494 34.9043C27.0446 35.0046 26.901 35.0547 26.7188 35.0547C26.5365 35.0547 26.3929 35.0046 26.2881 34.9043C26.1878 34.7995 26.1377 34.6673 26.1377 34.5078Z" fill="#817E7E"/>
<path d="M245.744 35H244.924V26.0312L242.217 27.0361V26.2705L245.607 25.0127H245.744V35ZM255.567 27.6104C255.567 28.1253 255.417 28.5879 255.116 28.998C254.815 29.4036 254.419 29.7021 253.927 29.8936C254.501 30.0895 254.961 30.4062 255.308 30.8438C255.654 31.2812 255.827 31.7871 255.827 32.3613C255.827 33.2135 255.538 33.8903 254.959 34.3916C254.38 34.8883 253.615 35.1367 252.662 35.1367C251.701 35.1367 250.93 34.8883 250.352 34.3916C249.777 33.8949 249.49 33.2181 249.49 32.3613C249.49 31.7962 249.657 31.2926 249.989 30.8506C250.322 30.4085 250.778 30.0895 251.356 29.8936C250.864 29.7021 250.472 29.4036 250.181 28.998C249.889 28.5879 249.743 28.1253 249.743 27.6104C249.743 26.7855 250.007 26.1292 250.536 25.6416C251.069 25.154 251.773 24.9102 252.648 24.9102C253.523 24.9102 254.228 25.1562 254.761 25.6484C255.299 26.1406 255.567 26.7946 255.567 27.6104ZM255.007 32.3682C255.007 31.7484 254.786 31.2402 254.344 30.8438C253.902 30.4427 253.337 30.2422 252.648 30.2422C251.96 30.2422 251.397 30.4382 250.96 30.8301C250.522 31.222 250.304 31.7347 250.304 32.3682C250.304 33.0016 250.516 33.5075 250.939 33.8857C251.363 34.2594 251.938 34.4463 252.662 34.4463C253.368 34.4463 253.936 34.2594 254.364 33.8857C254.793 33.512 255.007 33.0062 255.007 32.3682ZM254.747 27.6035C254.747 27.0339 254.549 26.5599 254.152 26.1816C253.76 25.7988 253.259 25.6074 252.648 25.6074C252.029 25.6074 251.525 25.792 251.138 26.1611C250.755 26.5257 250.563 27.0065 250.563 27.6035C250.563 28.1868 250.755 28.6562 251.138 29.0117C251.525 29.3672 252.031 29.5449 252.655 29.5449C253.271 29.5449 253.772 29.3672 254.159 29.0117C254.551 28.6517 254.747 28.1823 254.747 27.6035ZM261.275 35H260.455V26.0312L257.748 27.0361V26.2705L261.139 25.0127H261.275V35ZM265.787 29.9004L266.272 25.0469H271.249V25.8057H266.977L266.628 29.1689C267.161 28.8044 267.785 28.6221 268.501 28.6221C269.399 28.6221 270.114 28.9137 270.647 29.4971C271.181 30.0804 271.447 30.8574 271.447 31.8281C271.447 32.8763 271.188 33.6898 270.668 34.2686C270.148 34.8473 269.417 35.1367 268.474 35.1367C267.608 35.1367 266.906 34.8952 266.368 34.4121C265.83 33.929 265.523 33.2523 265.445 32.3818H266.231C266.309 33.0609 266.539 33.5758 266.922 33.9268C267.305 34.2731 267.822 34.4463 268.474 34.4463C269.185 34.4463 269.72 34.2207 270.08 33.7695C270.445 33.3184 270.627 32.6758 270.627 31.8418C270.627 31.1126 270.424 30.5179 270.019 30.0576C269.613 29.5973 269.059 29.3672 268.357 29.3672C267.97 29.3672 267.633 29.4173 267.346 29.5176C267.059 29.6133 266.756 29.8024 266.437 30.085L265.787 29.9004Z" fill="#817E7E"/>
<path d="M16.752 70.976C15.6 71.04 14.752 71.168 14.208 71.36C13.696 71.552 13.344 71.92 13.152 72.464C12.96 73.008 12.864 73.888 12.864 75.104V99.488C12.864 100.512 12.944 101.264 13.104 101.744C13.264 102.192 13.536 102.496 13.92 102.656C14.336 102.816 14.992 102.896 15.888 102.896H18.24C20.416 102.896 22.288 101.92 23.856 99.968C25.456 98.016 26.496 95.424 26.976 92.192H28.08C27.984 93.28 27.936 94.688 27.936 96.416C27.936 99.488 28.048 102.016 28.272 104C26.096 103.904 22.432 103.856 17.28 103.856C10.304 103.856 5.088 103.904 1.632 104V103.04C2.688 102.976 3.456 102.848 3.936 102.656C4.448 102.464 4.784 102.096 4.944 101.552C5.136 101.008 5.232 100.128 5.232 98.912V75.104C5.232 73.888 5.136 73.008 4.944 72.464C4.784 71.92 4.448 71.552 3.936 71.36C3.456 71.168 2.688 71.04 1.632 70.976V70.016C3.264 70.112 5.792 70.16 9.216 70.16C12.48 70.16 14.992 70.112 16.752 70.016V70.976ZM51.2798 69.344C54.6718 69.344 57.6318 70.032 60.1598 71.408C62.7198 72.784 64.7038 74.784 66.1118 77.408C67.5198 80 68.2238 83.104 68.2238 86.72C68.2238 90.24 67.5038 93.36 66.0638 96.08C64.6238 98.8 62.6078 100.912 60.0158 102.416C57.4558 103.92 54.5278 104.672 51.2318 104.672C47.8398 104.672 44.8638 103.984 42.3038 102.608C39.7758 101.232 37.8078 99.248 36.3998 96.656C34.9918 94.032 34.2878 90.912 34.2878 87.296C34.2878 83.776 35.0078 80.656 36.4478 77.936C37.8878 75.216 39.8878 73.104 42.4478 71.6C45.0398 70.096 47.9838 69.344 51.2798 69.344ZM51.0878 70.208C49.3278 70.208 47.7758 70.928 46.4318 72.368C45.0878 73.776 44.0478 75.76 43.3118 78.32C42.6078 80.88 42.2558 83.808 42.2558 87.104C42.2558 90.432 42.6558 93.36 43.4558 95.888C44.2878 98.416 45.3918 100.368 46.7678 101.744C48.1758 103.12 49.7278 103.808 51.4238 103.808C53.1838 103.808 54.7358 103.104 56.0798 101.696C57.4238 100.256 58.4478 98.256 59.1518 95.696C59.8878 93.136 60.2558 90.208 60.2558 86.912C60.2558 83.584 59.8398 80.656 59.0078 78.128C58.2078 75.6 57.1038 73.648 55.6958 72.272C54.3198 70.896 52.7838 70.208 51.0878 70.208ZM100.984 70.16C102.456 70.16 103.672 70.112 104.632 70.016V70.976C103.832 71.264 103.048 71.872 102.28 72.8C101.512 73.728 100.824 75.024 100.216 76.688L90.0881 104.096C89.7361 104.064 89.1761 104.048 88.4081 104.048C87.6721 104.048 87.1281 104.064 86.7761 104.096L74.5361 74.048C74.1201 72.992 73.6401 72.224 73.0961 71.744C72.5521 71.264 72.0241 71.008 71.5121 70.976V70.016C73.4321 70.112 75.8641 70.16 78.8081 70.16C82.1041 70.16 84.5361 70.112 86.1041 70.016V70.976C84.8881 71.04 84.0241 71.184 83.5121 71.408C83.0001 71.632 82.7441 72.08 82.7441 72.752C82.7441 73.296 82.9361 74.048 83.3201 75.008L91.7681 96.512L97.6721 80.576C98.5681 78.112 99.0161 76.16 99.0161 74.72C99.0161 73.44 98.6641 72.512 97.9601 71.936C97.2881 71.36 96.2961 71.04 94.9841 70.976V70.016C97.1601 70.112 99.1601 70.16 100.984 70.16ZM134.967 96.704C134.967 99.648 135.079 102.08 135.303 104C133.127 103.904 129.463 103.856 124.311 103.856C117.335 103.856 112.119 103.904 108.663 104V103.04C109.719 102.976 110.487 102.848 110.967 102.656C111.479 102.464 111.815 102.096 111.975 101.552C112.167 101.008 112.263 100.128 112.263 98.912V75.104C112.263 73.888 112.167 73.008 111.975 72.464C111.815 71.92 111.479 71.552 110.967 71.36C110.487 71.168 109.719 71.04 108.663 70.976V70.016C112.119 70.112 117.335 70.16 124.311 70.16C129.015 70.16 132.359 70.112 134.343 70.016C134.119 72.672 134.007 75.04 134.007 77.12C134.007 78.528 134.055 79.616 134.151 80.384H133.047C132.567 76.96 131.703 74.56 130.455 73.184C129.207 71.808 127.447 71.12 125.175 71.12H123.207C122.215 71.12 121.495 71.2 121.047 71.36C120.599 71.52 120.295 71.84 120.135 72.32C119.975 72.768 119.895 73.504 119.895 74.528V86.432H121.431C123.127 86.432 124.407 85.808 125.271 84.56C126.167 83.312 126.791 81.824 127.143 80.096H128.247C128.151 81.44 128.103 82.944 128.103 84.608V86.912C128.103 88.544 128.199 90.816 128.391 93.728H127.287C126.615 89.504 124.663 87.392 121.431 87.392H119.895V99.488C119.895 100.512 119.975 101.264 120.135 101.744C120.295 102.192 120.599 102.496 121.047 102.656C121.495 102.816 122.215 102.896 123.207 102.896H125.559C127.831 102.896 129.655 102.128 131.031 100.592C132.439 99.024 133.431 96.384 134.007 92.672H135.111C135.015 93.728 134.967 95.072 134.967 96.704ZM157.085 70.976C155.933 71.04 155.085 71.168 154.541 71.36C154.029 71.552 153.677 71.92 153.485 72.464C153.293 73.008 153.197 73.888 153.197 75.104V99.488C153.197 100.512 153.277 101.264 153.437 101.744C153.597 102.192 153.869 102.496 154.253 102.656C154.669 102.816 155.325 102.896 156.221 102.896H158.573C160.749 102.896 162.621 101.92 164.189 99.968C165.789 98.016 166.829 95.424 167.309 92.192H168.413C168.317 93.28 168.269 94.688 168.269 96.416C168.269 99.488 168.381 102.016 168.605 104C166.429 103.904 162.765 103.856 157.613 103.856C150.637 103.856 145.421 103.904 141.965 104V103.04C143.021 102.976 143.789 102.848 144.269 102.656C144.781 102.464 145.117 102.096 145.277 101.552C145.469 101.008 145.565 100.128 145.565 98.912V75.104C145.565 73.888 145.469 73.008 145.277 72.464C145.117 71.92 144.781 71.552 144.269 71.36C143.789 71.168 143.021 71.04 141.965 70.976V70.016C143.597 70.112 146.125 70.16 149.549 70.16C152.813 70.16 155.325 70.112 157.085 70.016V70.976ZM201.884 99.968C202.3 101.024 202.78 101.792 203.324 102.272C203.868 102.752 204.396 103.008 204.908 103.04V104C202.988 103.904 200.556 103.856 197.612 103.856C194.348 103.856 191.916 103.904 190.316 104V103.04C191.532 102.976 192.396 102.832 192.908 102.608C193.42 102.352 193.676 101.92 193.676 101.312C193.676 100.736 193.484 99.968 193.1 99.008L190.22 91.136H179.756L178.508 94.448C177.612 96.752 177.164 98.528 177.164 99.776C177.164 100.96 177.516 101.792 178.22 102.272C178.956 102.72 180.028 102.976 181.436 103.04V104C179.26 103.904 177.276 103.856 175.484 103.856C174.012 103.856 172.796 103.904 171.836 104V103.04C173.404 102.752 174.78 101.072 175.964 98L186.908 69.92C187.26 69.952 187.82 69.968 188.588 69.968C189.356 69.968 189.9 69.952 190.22 69.92L201.884 99.968ZM189.884 90.176L185.132 77.216L180.14 90.176H189.884ZM226.039 69.344C227.959 69.344 229.591 69.616 230.935 70.16C232.279 70.704 233.591 71.472 234.871 72.464C235.223 72.752 235.527 72.896 235.783 72.896C236.423 72.896 236.839 71.936 237.031 70.016H238.135C238.007 72.192 237.943 76.064 237.943 81.632H236.839C236.551 79.264 236.167 77.456 235.687 76.208C235.207 74.96 234.391 73.872 233.239 72.944C232.439 72.176 231.511 71.6 230.455 71.216C229.399 70.8 228.295 70.592 227.143 70.592C223.911 70.592 221.511 72.176 219.943 75.344C218.375 78.48 217.591 82.4 217.591 87.104C217.591 91.776 218.407 95.68 220.039 98.816C221.671 101.952 224.103 103.52 227.335 103.52C228.423 103.52 229.495 103.328 230.551 102.944C231.639 102.528 232.551 101.936 233.287 101.168C234.471 100.272 235.287 99.152 235.735 97.808C236.215 96.464 236.583 94.496 236.839 91.904H237.943C237.943 97.696 238.007 101.728 238.135 104H237.031C236.935 102.976 236.791 102.256 236.599 101.84C236.439 101.392 236.199 101.168 235.879 101.168C235.623 101.168 235.287 101.296 234.871 101.552C233.431 102.576 232.055 103.36 230.743 103.904C229.431 104.416 227.847 104.672 225.991 104.672C222.599 104.672 219.623 103.984 217.063 102.608C214.535 101.232 212.567 99.248 211.159 96.656C209.751 94.032 209.047 90.912 209.047 87.296C209.047 83.776 209.767 80.656 211.207 77.936C212.647 75.216 214.647 73.104 217.207 71.6C219.799 70.096 222.743 69.344 226.039 69.344ZM271.643 96.704C271.643 99.648 271.755 102.08 271.979 104C269.803 103.904 266.139 103.856 260.987 103.856C254.011 103.856 248.795 103.904 245.339 104V103.04C246.395 102.976 247.163 102.848 247.643 102.656C248.155 102.464 248.491 102.096 248.651 101.552C248.843 101.008 248.939 100.128 248.939 98.912V75.104C248.939 73.888 248.843 73.008 248.651 72.464C248.491 71.92 248.155 71.552 247.643 71.36C247.163 71.168 246.395 71.04 245.339 70.976V70.016C248.795 70.112 254.011 70.16 260.987 70.16C265.691 70.16 269.035 70.112 271.019 70.016C270.795 72.672 270.683 75.04 270.683 77.12C270.683 78.528 270.731 79.616 270.827 80.384H269.723C269.243 76.96 268.379 74.56 267.131 73.184C265.883 71.808 264.123 71.12 261.851 71.12H259.883C258.891 71.12 258.171 71.2 257.723 71.36C257.275 71.52 256.971 71.84 256.811 72.32C256.651 72.768 256.571 73.504 256.571 74.528V86.432H258.107C259.803 86.432 261.083 85.808 261.947 84.56C262.843 83.312 263.467 81.824 263.819 80.096H264.923C264.827 81.44 264.779 82.944 264.779 84.608V86.912C264.779 88.544 264.875 90.816 265.067 93.728H263.963C263.291 89.504 261.339 87.392 258.107 87.392H256.571V99.488C256.571 100.512 256.651 101.264 256.811 101.744C256.971 102.192 257.275 102.496 257.723 102.656C258.171 102.816 258.891 102.896 259.883 102.896H262.235C264.507 102.896 266.331 102.128 267.707 100.592C269.115 99.024 270.107 96.384 270.683 92.672H271.787C271.691 93.728 271.643 95.072 271.643 96.704Z" fill="#817E7E"/>
<line x1="2" y1="51.5" x2="272" y2="51.5" stroke="#817E7E"/>
</g>
<defs>
<clipPath id="clip0">
<rect width="274" height="105" fill="white"/>
</clipPath>
</defs>
</svg>
