<svg width="496" height="201" viewBox="0 0 496 201" fill="none" xmlns="http://www.w3.org/2000/svg">
<g clip-path="url(#clip0)">
<path d="M87.774 176.718C87.774 175.494 88.05 174.396 88.602 173.424C89.154 172.44 89.904 171.672 90.852 171.12C91.812 170.568 92.874 170.292 94.038 170.292C95.406 170.292 96.6 170.622 97.62 171.282C98.64 171.942 99.384 172.878 99.852 174.09H97.89C97.542 173.334 97.038 172.752 96.378 172.344C95.73 171.936 94.95 171.732 94.038 171.732C93.162 171.732 92.376 171.936 91.68 172.344C90.984 172.752 90.438 173.334 90.042 174.09C89.646 174.834 89.448 175.71 89.448 176.718C89.448 177.714 89.646 178.59 90.042 179.346C90.438 180.09 90.984 180.666 91.68 181.074C92.376 181.482 93.162 181.686 94.038 181.686C94.95 181.686 95.73 181.488 96.378 181.092C97.038 180.684 97.542 180.102 97.89 179.346H99.852C99.384 180.546 98.64 181.476 97.62 182.136C96.6 182.784 95.406 183.108 94.038 183.108C92.874 183.108 91.812 182.838 90.852 182.298C89.904 181.746 89.154 180.984 88.602 180.012C88.05 179.04 87.774 177.942 87.774 176.718ZM113.558 183.126C112.394 183.126 111.332 182.856 110.372 182.316C109.412 181.764 108.65 181.002 108.086 180.03C107.534 179.046 107.258 177.942 107.258 176.718C107.258 175.494 107.534 174.396 108.086 173.424C108.65 172.44 109.412 171.678 110.372 171.138C111.332 170.586 112.394 170.31 113.558 170.31C114.734 170.31 115.802 170.586 116.762 171.138C117.722 171.678 118.478 172.434 119.03 173.406C119.582 174.378 119.858 175.482 119.858 176.718C119.858 177.954 119.582 179.058 119.03 180.03C118.478 181.002 117.722 181.764 116.762 182.316C115.802 182.856 114.734 183.126 113.558 183.126ZM113.558 181.704C114.434 181.704 115.22 181.5 115.916 181.092C116.624 180.684 117.176 180.102 117.572 179.346C117.98 178.59 118.184 177.714 118.184 176.718C118.184 175.71 117.98 174.834 117.572 174.09C117.176 173.334 116.63 172.752 115.934 172.344C115.238 171.936 114.446 171.732 113.558 171.732C112.67 171.732 111.878 171.936 111.182 172.344C110.486 172.752 109.934 173.334 109.526 174.09C109.13 174.834 108.932 175.71 108.932 176.718C108.932 177.714 109.13 178.59 109.526 179.346C109.934 180.102 110.486 180.684 111.182 181.092C111.89 181.5 112.682 181.704 113.558 181.704ZM140.327 170.544V183H138.689V173.712L134.549 183H133.397L129.239 173.694V183H127.601V170.544H129.365L133.973 180.84L138.581 170.544H140.327ZM156.101 180.21H150.629L149.621 183H147.893L152.429 170.526H154.319L158.837 183H157.109L156.101 180.21ZM155.633 178.878L153.365 172.542L151.097 178.878H155.633ZM176.257 183H174.62L168.031 173.01V183H166.393V170.436H168.031L174.62 180.408V170.436H176.257V183ZM188.536 170.454C189.904 170.454 191.086 170.712 192.082 171.228C193.09 171.732 193.858 172.458 194.386 173.406C194.926 174.354 195.196 175.47 195.196 176.754C195.196 178.038 194.926 179.154 194.386 180.102C193.858 181.038 193.09 181.758 192.082 182.262C191.086 182.754 189.904 183 188.536 183H184.63V170.454H188.536ZM188.536 181.65C190.156 181.65 191.392 181.224 192.244 180.372C193.096 179.508 193.522 178.302 193.522 176.754C193.522 175.194 193.09 173.976 192.226 173.1C191.374 172.224 190.144 171.786 188.536 171.786H186.268V181.65H188.536ZM210.352 180.21H204.88L203.872 183H202.144L206.68 170.526H208.57L213.088 183H211.36L210.352 180.21ZM209.884 178.878L207.616 172.542L205.348 178.878H209.884ZM230.509 183H228.871L222.283 173.01V183H220.645V170.436H222.283L228.871 180.408V170.436H230.509V183ZM246.603 170.454V171.786H243.183V183H241.545V171.786H238.107V170.454H246.603ZM255.838 171.786V175.98H260.41V177.33H255.838V181.65H260.95V183H254.2V170.436H260.95V171.786H255.838ZM283.293 170.454C284.661 170.454 285.843 170.712 286.839 171.228C287.847 171.732 288.615 172.458 289.143 173.406C289.683 174.354 289.953 175.47 289.953 176.754C289.953 178.038 289.683 179.154 289.143 180.102C288.615 181.038 287.847 181.758 286.839 182.262C285.843 182.754 284.661 183 283.293 183H279.387V170.454H283.293ZM283.293 181.65C284.913 181.65 286.149 181.224 287.001 180.372C287.853 179.508 288.279 178.302 288.279 176.754C288.279 175.194 287.847 173.976 286.983 173.1C286.131 172.224 284.901 171.786 283.293 171.786H281.025V181.65H283.293ZM299.332 171.786V175.98H303.904V177.33H299.332V181.65H304.444V183H297.694V170.436H304.444V171.786H299.332ZM316.48 183.126C315.652 183.126 314.908 182.982 314.248 182.694C313.6 182.394 313.09 181.986 312.718 181.47C312.346 180.942 312.154 180.336 312.142 179.652H313.888C313.948 180.24 314.188 180.738 314.608 181.146C315.04 181.542 315.664 181.74 316.48 181.74C317.26 181.74 317.872 181.548 318.316 181.164C318.772 180.768 319 180.264 319 179.652C319 179.172 318.868 178.782 318.604 178.482C318.34 178.182 318.01 177.954 317.614 177.798C317.218 177.642 316.684 177.474 316.012 177.294C315.184 177.078 314.518 176.862 314.014 176.646C313.522 176.43 313.096 176.094 312.736 175.638C312.388 175.17 312.214 174.546 312.214 173.766C312.214 173.082 312.388 172.476 312.736 171.948C313.084 171.42 313.57 171.012 314.194 170.724C314.83 170.436 315.556 170.292 316.372 170.292C317.548 170.292 318.508 170.586 319.252 171.174C320.008 171.762 320.434 172.542 320.53 173.514H318.73C318.67 173.034 318.418 172.614 317.974 172.254C317.53 171.882 316.942 171.696 316.21 171.696C315.526 171.696 314.968 171.876 314.536 172.236C314.104 172.584 313.888 173.076 313.888 173.712C313.888 174.168 314.014 174.54 314.266 174.828C314.53 175.116 314.848 175.338 315.22 175.494C315.604 175.638 316.138 175.806 316.822 175.998C317.65 176.226 318.316 176.454 318.82 176.682C319.324 176.898 319.756 177.24 320.116 177.708C320.476 178.164 320.656 178.788 320.656 179.58C320.656 180.192 320.494 180.768 320.17 181.308C319.846 181.848 319.366 182.286 318.73 182.622C318.094 182.958 317.344 183.126 316.48 183.126ZM330.285 170.454V183H328.647V170.454H330.285ZM348.16 174.09C347.812 173.358 347.308 172.794 346.648 172.398C345.988 171.99 345.22 171.786 344.344 171.786C343.468 171.786 342.676 171.99 341.968 172.398C341.272 172.794 340.72 173.37 340.312 174.126C339.916 174.87 339.718 175.734 339.718 176.718C339.718 177.702 339.916 178.566 340.312 179.31C340.72 180.054 341.272 180.63 341.968 181.038C342.676 181.434 343.468 181.632 344.344 181.632C345.568 181.632 346.576 181.266 347.368 180.534C348.16 179.802 348.622 178.812 348.754 177.564H343.75V176.232H350.5V177.492C350.404 178.524 350.08 179.472 349.528 180.336C348.976 181.188 348.25 181.866 347.35 182.37C346.45 182.862 345.448 183.108 344.344 183.108C343.18 183.108 342.118 182.838 341.158 182.298C340.198 181.746 339.436 180.984 338.872 180.012C338.32 179.04 338.044 177.942 338.044 176.718C338.044 175.494 338.32 174.396 338.872 173.424C339.436 172.44 340.198 171.678 341.158 171.138C342.118 170.586 343.18 170.31 344.344 170.31C345.676 170.31 346.852 170.64 347.872 171.3C348.904 171.96 349.654 172.89 350.122 174.09H348.16ZM368.11 183H366.472L359.884 173.01V183H358.246V170.436H359.884L366.472 180.408V170.436H368.11V183ZM378.12 171.786V175.98H382.692V177.33H378.12V181.65H383.232V183H376.482V170.436H383.232V171.786H378.12ZM397.897 183L394.909 177.87H392.929V183H391.291V170.454H395.341C396.289 170.454 397.087 170.616 397.735 170.94C398.395 171.264 398.887 171.702 399.211 172.254C399.535 172.806 399.697 173.436 399.697 174.144C399.697 175.008 399.445 175.77 398.941 176.43C398.449 177.09 397.705 177.528 396.709 177.744L399.859 183H397.897ZM392.929 176.556H395.341C396.229 176.556 396.895 176.34 397.339 175.908C397.783 175.464 398.005 174.876 398.005 174.144C398.005 173.4 397.783 172.824 397.339 172.416C396.907 172.008 396.241 171.804 395.341 171.804H392.929V176.556Z" fill="#817E7E"/>
<path fill-rule="evenodd" clip-rule="evenodd" d="M496 0H-7V152H496V0ZM80.1719 33.5625C77.7344 32.7188 74.8906 32.2969 71.6406 32.2969C67.4219 32.2969 63.375 32.8906 59.5 34.0781C55.6562 35.2344 52.0781 36.9062 48.7656 39.0938C45.4844 41.25 42.5 43.8594 39.8125 46.9219C37.125 49.9844 34.8281 53.4062 32.9219 57.1875C31.0469 60.9375 29.5938 65.0156 28.5625 69.4219C27.5312 73.7969 27.0156 78.375 27.0156 83.1562C27.0156 87.7188 27.375 91.7344 28.0938 95.2031C28.8438 98.6719 29.8594 101.578 31.1406 103.922C32.4219 106.266 33.9375 108.031 35.6875 109.219C37.4688 110.406 39.375 111 41.4062 111C42.8438 111 44.1562 110.766 45.3438 110.297C46.5625 109.797 47.6406 109.016 48.5781 107.953C49.5156 106.859 50.3125 105.469 50.9688 103.781C51.625 102.062 52.125 99.9844 52.4688 97.5469C52.5938 96.6719 52.7031 95.7656 52.7969 94.8281C52.8906 93.8906 52.9688 92.8125 53.0312 91.5938C53.0938 90.3438 53.1406 88.9062 53.1719 87.2812C53.2344 85.625 53.2812 83.6719 53.3125 81.4219L55.0938 81.1406C55.7188 81.0469 56.3438 80.9219 56.9688 80.7656C58.2812 82.1406 59.4062 83.8125 60.3438 85.7812C61.3125 87.7188 62.2188 89.8281 63.0625 92.1094C63.9375 94.3594 64.8125 96.7031 65.6875 99.1406C66.5625 101.547 67.5781 103.922 68.7344 106.266C69.9219 108.578 71.2969 110.766 72.8594 112.828C74.4219 114.922 76.3125 116.75 78.5312 118.312C80.7812 119.906 83.4219 121.156 86.4531 122.062C89.4844 123 93.0312 123.469 97.0938 123.469C97.9375 123.469 98.6875 123.438 99.3438 123.375C100 123.344 100.547 123.297 100.984 123.234C101.516 123.172 101.984 123.094 102.391 123L102.203 121.078C98.9844 121.078 96.125 120.641 93.625 119.766C91.125 118.922 88.8594 117.75 86.8281 116.25C84.8281 114.781 83.0312 113.062 81.4375 111.094C79.875 109.125 78.4219 107.047 77.0781 104.859C75.7344 102.641 74.4531 100.359 73.2344 98.0156C72.0156 95.6719 70.7812 93.3906 69.5312 91.1719C68.2812 88.9219 66.9688 86.8125 65.5938 84.8438C64.2188 82.8438 62.6875 81.0938 61 79.5938C63.375 78.8125 65.7656 77.8438 68.1719 76.6875C70.6094 75.5312 72.9531 74.2188 75.2031 72.75C77.4531 71.2812 79.5625 69.6562 81.5312 67.875C83.5 66.0938 85.2031 64.1875 86.6406 62.1562C88.1094 60.125 89.25 57.9844 90.0625 55.7344C90.9062 53.4531 91.3281 51.0781 91.3281 48.6094C91.3281 46.3594 90.9062 44.25 90.0625 42.2812C89.25 40.2812 88.0156 38.5469 86.3594 37.0781C84.7031 35.5781 82.6406 34.4062 80.1719 33.5625ZM43.7969 75.7969C43.1719 76.3594 42.8594 77.0469 42.8594 77.8594C42.8594 78.7656 43.1875 79.5312 43.8438 80.1562C44.5 80.7812 45.4219 81.2344 46.6094 81.5156C46.6406 82.6094 46.6562 83.6094 46.6562 84.5156C46.6875 85.4219 46.7031 86.3281 46.7031 87.2344V90V93.2344C46.7031 96.6094 46.5312 99.3125 46.1875 101.344C45.8438 103.344 45.3906 104.891 44.8281 105.984C44.2656 107.047 43.6094 107.75 42.8594 108.094C42.1094 108.438 41.3125 108.609 40.4688 108.609C38.9062 108.609 37.5938 108.031 36.5312 106.875C35.5 105.719 34.6719 104.188 34.0469 102.281C33.4219 100.344 32.9688 98.1406 32.6875 95.6719C32.4375 93.1719 32.3125 90.5938 32.3125 87.9375C32.3125 81.8438 32.7812 76.3125 33.7188 71.3438C34.6562 66.375 35.9531 61.9375 37.6094 58.0312C39.2969 54.125 41.2812 50.7344 43.5625 47.8594C45.875 44.9844 48.3906 42.6094 51.1094 40.7344C53.8594 38.8594 56.7656 37.4688 59.8281 36.5625C62.9219 35.625 66.0625 35.1562 69.25 35.1562C71.1562 35.1562 72.9531 35.4375 74.6406 36C76.3594 36.5625 77.8438 37.4531 79.0938 38.6719C80.3438 39.8594 81.3281 41.3906 82.0469 43.2656C82.7969 45.1406 83.1719 47.4062 83.1719 50.0625C83.1719 54.125 82.4375 57.7188 80.9688 60.8438C79.5312 63.9375 77.6406 66.625 75.2969 68.9062C72.9844 71.1562 70.375 73.0156 67.4688 74.4844C64.5625 75.9531 61.6719 77.0781 58.7969 77.8594C57.9844 77.3281 57.1094 76.8594 56.1719 76.4531C55.2656 76.0156 54.3125 75.6562 53.3125 75.375C53.375 72.625 53.4062 69.6875 53.4062 66.5625V56.2969C53.4062 55.0781 52.9688 54.2188 52.0938 53.7188C51.2188 53.1875 50.0625 52.9219 48.625 52.9219C48.125 52.9219 47.7031 52.9688 47.3594 53.0625C47.0156 53.1562 46.7188 53.2656 46.4688 53.3906C46.1875 53.5156 45.9375 53.6719 45.7188 53.8594C45.7812 55.5781 45.8594 57.5156 45.9531 59.6719C46.0156 61.5156 46.0938 63.7031 46.1875 66.2344C46.2812 68.7656 46.3594 71.5625 46.4219 74.625C45.3281 74.8125 44.4531 75.2031 43.7969 75.7969ZM45.3906 78.6562C45.2969 78.4375 45.25 78.1719 45.25 77.8594C45.25 77.4844 45.6719 77.2031 46.5156 77.0156V79.2188C45.8906 79.0625 45.5156 78.875 45.3906 78.6562ZM54.0156 78.9844C53.7969 79.0156 53.5625 79.0312 53.3125 79.0312V78.0938C53.5625 78.1875 53.7969 78.2969 54.0156 78.4219C54.2656 78.5469 54.5156 78.6875 54.7656 78.8438C54.5156 78.9062 54.2656 78.9531 54.0156 78.9844ZM90.3906 92.2969L90.8594 91.3125L91.3281 90.375H91.7969C91.7344 91.3438 91.7031 92.2812 91.7031 93.1875V95.7188C91.7031 98.5938 91.8438 101.016 92.125 102.984C92.4375 104.922 92.8906 106.484 93.4844 107.672C94.1094 108.859 94.875 109.719 95.7812 110.25C96.7188 110.75 97.8281 111 99.1094 111C100.328 111 101.547 110.469 102.766 109.406C103.984 108.312 105.188 106.891 106.375 105.141C107.594 103.391 108.781 101.391 109.938 99.1406C110.446 98.1778 110.954 97.2092 111.462 96.2349C111.542 97.9711 111.815 99.6428 112.281 101.25C112.875 103.156 113.719 104.844 114.812 106.312C115.906 107.75 117.25 108.891 118.844 109.734C120.438 110.578 122.25 111 124.281 111C125.719 111 127.203 110.656 128.734 109.969C130.297 109.281 131.891 108.188 133.516 106.688C135.141 105.188 136.781 103.25 138.438 100.875C139.292 99.673 140.146 98.347 141 96.8969C141.137 98.7714 141.454 100.457 141.953 101.953C142.641 103.984 143.547 105.672 144.672 107.016C145.828 108.359 147.141 109.359 148.609 110.016C150.078 110.672 151.594 111 153.156 111C154.219 111 155.281 110.719 156.344 110.156C157.406 109.594 158.422 108.828 159.391 107.859C160.391 106.891 161.344 105.766 162.25 104.484C163.156 103.172 163.984 101.766 164.734 100.266C164.828 101.734 165 103.125 165.25 104.438C165.5 105.719 165.859 106.859 166.328 107.859C166.797 108.828 167.375 109.594 168.062 110.156C168.781 110.719 169.656 111 170.688 111C171.656 111 172.625 110.625 173.594 109.875C174.594 109.094 175.609 107.984 176.641 106.547C177.672 105.109 178.75 103.359 179.875 101.297C181.031 99.2031 182.266 96.8438 183.578 94.2188L184.51 92.2927L184.516 92.2969L184.984 91.3125C185.453 90.3438 185.906 89.3125 186.344 88.2188C186.781 87.125 187.172 86.0625 187.516 85.0312C187.859 84 188.125 83.0625 188.312 82.2188C188.531 81.375 188.672 80.7344 188.734 80.2969C189.953 80.1719 191.156 79.8125 192.344 79.2188C193.531 78.625 194.641 78 195.672 77.3438C196.734 76.6562 197.688 76.0469 198.531 75.5156C199.375 74.9844 200.047 74.7188 200.547 74.7188L200.828 75C200.578 75.9688 200.156 77.0938 199.562 78.375C198.969 79.6562 198.297 81.0469 197.547 82.5469C196.828 84.0156 196.062 85.5781 195.25 87.2344C194.438 88.8906 193.703 90.5781 193.047 92.2969C192.391 93.9844 191.844 95.6875 191.406 97.4062C190.969 99.125 190.75 100.781 190.75 102.375C190.75 105.312 191.328 107.484 192.484 108.891C193.641 110.297 195.141 111 196.984 111C198.078 111 199.172 110.734 200.266 110.203C201.359 109.641 202.516 108.656 203.734 107.25C204.984 105.844 206.344 103.938 207.812 101.531C208.468 100.457 209.165 99.2485 209.901 97.9062C209.999 99.2099 210.193 100.465 210.484 101.672C210.922 103.484 211.594 105.094 212.5 106.5C213.406 107.875 214.547 108.969 215.922 109.781C217.328 110.594 218.984 111 220.891 111C222.297 111 223.672 110.656 225.016 109.969C226.359 109.281 227.641 108.312 228.859 107.062C230.109 105.781 231.312 104.25 232.469 102.469C233.625 100.688 234.75 98.7031 235.844 96.5156C236.031 99.0781 236.297 101.281 236.641 103.125C236.984 104.938 237.438 106.438 238 107.625C238.562 108.781 239.234 109.641 240.016 110.203C240.828 110.734 241.781 111 242.875 111C244 111 245.078 110.719 246.109 110.156C247.141 109.562 248.219 108.547 249.344 107.109C250.5 105.672 251.766 103.766 253.141 101.391C254.099 99.7132 255.164 97.732 256.335 95.4471C256.514 96.7685 256.793 98.0466 257.172 99.2812C257.891 101.594 258.922 103.625 260.266 105.375C261.609 107.094 263.234 108.469 265.141 109.5C267.078 110.5 269.25 111 271.656 111C273.312 111 274.844 110.719 276.25 110.156C277.688 109.594 278.969 108.812 280.094 107.812C281.25 106.812 282.266 105.641 283.141 104.297C284.047 102.922 284.781 101.438 285.344 99.8438C287.406 99.4688 289.312 98.6562 291.062 97.4062C292.844 96.125 294.266 94.4219 295.328 92.2969L295.844 91.3125L293.922 89.8594L293.406 90.8438C292.594 92.4375 291.562 93.7188 290.312 94.6875C289.094 95.6562 287.734 96.3594 286.234 96.7969C286.484 95.7969 286.672 94.7656 286.797 93.7031C286.922 92.6406 286.984 91.5625 286.984 90.4688C286.984 87.5625 286.641 85.0156 285.953 82.8281C285.266 80.6406 284.375 78.8281 283.281 77.3906C282.188 75.9219 280.969 74.8281 279.625 74.1094C278.281 73.3594 276.969 72.9844 275.688 72.9844C274.594 72.9844 273.547 73.2188 272.547 73.6875C271.578 74.125 270.719 74.7969 269.969 75.7031C269.219 76.5781 268.609 77.6875 268.141 79.0312C267.703 80.3438 267.484 81.875 267.484 83.625C267.484 85.75 267.812 87.7188 268.469 89.5312C269.156 91.3438 270.062 92.9531 271.188 94.3594C272.312 95.7344 273.609 96.8906 275.078 97.8281C276.547 98.7656 278.094 99.4062 279.719 99.75C279.094 102.5 278.125 104.672 276.812 106.266C275.531 107.828 273.906 108.609 271.938 108.609C270.5 108.609 269.203 108.141 268.047 107.203C266.922 106.266 265.969 105.016 265.188 103.453C264.406 101.891 263.812 100.094 263.406 98.0625C263 96.0312 262.797 93.9375 262.797 91.7812C262.797 88.25 263.141 85.2969 263.828 82.9219C264.547 80.5469 265.344 78.6406 266.219 77.2031C267.219 75.5156 268.359 74.2031 269.641 73.2656L269.031 71.625C268.625 71.625 268.016 71.8125 267.203 72.1875C266.422 72.5312 265.547 73.0625 264.578 73.7812C263.609 74.5 262.625 75.4219 261.625 76.5469C260.625 77.6406 259.719 78.9375 258.906 80.4375C258.094 81.9062 257.422 83.5938 256.891 85.5C256.45 87.0562 256.192 88.7632 256.117 90.6208L256 90.8438C254.812 93.25 253.719 95.375 252.719 97.2188C251.75 99.0625 250.844 100.625 250 101.906C249.156 103.156 248.359 104.109 247.609 104.766C246.891 105.391 246.172 105.703 245.453 105.703C245.047 105.703 244.672 105.609 244.328 105.422C244.016 105.203 243.734 104.812 243.484 104.25C243.266 103.656 243.062 102.828 242.875 101.766C242.719 100.703 242.578 99.3281 242.453 97.6406C242.359 95.9531 242.281 93.8906 242.219 91.4531C242.156 89.0156 242.109 86.125 242.078 82.7812C243.391 78.9688 244.578 75.2969 245.641 71.7656C246.734 68.2031 247.656 64.8594 248.406 61.7344C249.156 58.5781 249.734 55.6719 250.141 53.0156C250.547 50.3281 250.75 47.9531 250.75 45.8906C250.75 44.8906 250.656 44.0781 250.469 43.4531C250.312 42.7969 250.062 42.2812 249.719 41.9062C249.406 41.5312 249 41.2812 248.5 41.1562C248.031 41 247.5 40.9219 246.906 40.9219C245.219 40.9219 243.672 41.7188 242.266 43.3125C240.859 44.875 239.641 47.1875 238.609 50.25C237.609 53.3125 236.828 57.1094 236.266 61.6406C235.703 66.1719 235.406 71.3906 235.375 77.2969C234.5 75.9844 233.344 74.875 231.906 73.9688C230.5 73.0625 228.781 72.6094 226.75 72.6094C224.969 72.6094 223.297 72.9375 221.734 73.5938C220.203 74.25 218.812 75.1406 217.562 76.2656C216.312 77.3906 215.203 78.7188 214.234 80.25C213.266 81.75 212.453 83.375 211.797 85.125C211.172 86.8438 210.688 88.625 210.344 90.4688C210.211 91.1788 210.104 91.8842 210.023 92.585C208.788 94.9836 207.676 96.9813 206.688 98.5781C205.5 100.516 204.469 102.016 203.594 103.078C202.719 104.109 201.969 104.812 201.344 105.188C200.75 105.531 200.25 105.703 199.844 105.703C198.875 105.703 198.203 105.406 197.828 104.812C197.453 104.219 197.266 103.078 197.266 101.391C197.266 100.047 197.406 98.5156 197.688 96.7969C198 95.0781 198.375 93.3125 198.812 91.5C199.25 89.6562 199.719 87.8438 200.219 86.0625C200.75 84.25 201.234 82.5781 201.672 81.0469C202.109 79.5156 202.469 78.1719 202.75 77.0156C203.062 75.8594 203.219 75.0312 203.219 74.5312C203.219 73.8438 203 73.3594 202.562 73.0781C202.125 72.7656 201.547 72.6094 200.828 72.6094C199.984 72.6094 199.062 72.7344 198.062 72.9844C197.062 73.2344 196.047 73.5156 195.016 73.8281C193.984 74.1094 192.953 74.375 191.922 74.625C190.922 74.875 189.984 75 189.109 75C189.109 74.2812 189.016 73.5938 188.828 72.9375C188.641 72.25 188.359 71.6562 187.984 71.1562C187.609 70.625 187.141 70.2031 186.578 69.8906C186.016 69.5781 185.359 69.4219 184.609 69.4219C184.047 69.4219 183.516 69.5312 183.016 69.75C182.484 69.9375 182.016 70.2188 181.609 70.5938C181.172 70.9688 180.828 71.4375 180.578 72C180.328 72.5625 180.203 73.2031 180.203 73.9219C180.203 74.8281 180.375 75.6406 180.719 76.3594C181.031 77.0781 181.469 77.7031 182.031 78.2344C182.594 78.7656 183.25 79.1875 184 79.5C184.75 79.8125 185.531 80.0156 186.344 80.1094C186.281 80.4844 186.172 81.0312 186.016 81.75C185.859 82.4375 185.641 83.2344 185.359 84.1406C185.078 85.0156 184.734 85.9531 184.328 86.9531C183.953 87.9531 183.531 88.9219 183.062 89.8594L181.656 92.7656C180.469 95.1406 179.406 97.1562 178.469 98.8125C177.562 100.438 176.75 101.766 176.031 102.797C175.312 103.828 174.672 104.578 174.109 105.047C173.578 105.484 173.078 105.703 172.609 105.703C171.828 105.703 171.281 105.094 170.969 103.875C170.656 102.656 170.5 101.156 170.5 99.375C170.5 95.8125 170.625 92.5469 170.875 89.5781C171.156 86.6094 171.438 84.0312 171.719 81.8438C172.031 79.625 172.312 77.8125 172.562 76.4062C172.844 74.9688 172.984 74.0156 172.984 73.5469C172.984 73.1719 172.922 72.9219 172.797 72.7969C172.672 72.6719 172.422 72.6094 172.047 72.6094C171.797 72.6094 171.375 72.6719 170.781 72.7969C170.188 72.8906 169.578 73.0625 168.953 73.3125C168.328 73.5312 167.75 73.8438 167.219 74.25C166.719 74.6562 166.438 75.1562 166.375 75.75L165.812 80.2969C165.625 79.6719 165.266 78.9219 164.734 78.0469C164.203 77.1406 163.531 76.2969 162.719 75.5156C161.938 74.7031 161.016 74.0156 159.953 73.4531C158.891 72.8906 157.734 72.6094 156.484 72.6094C154.422 72.6094 152.453 73.1562 150.578 74.25C148.703 75.3125 147.047 76.8281 145.609 78.7969C144.172 80.7344 143.031 83.0625 142.188 85.7812C141.589 87.6876 141.203 89.7355 141.029 91.925C139.908 94.096 138.809 96.0012 137.734 97.6406C136.484 99.5156 135.266 101.047 134.078 102.234C132.922 103.422 131.766 104.297 130.609 104.859C129.484 105.422 128.375 105.703 127.281 105.703C125.781 105.703 124.422 105.359 123.203 104.672C122.016 103.953 121 102.969 120.156 101.719C119.312 100.469 118.672 98.9688 118.234 97.2188C117.797 95.4688 117.578 93.5312 117.578 91.4062C117.578 88.7188 117.828 86.375 118.328 84.375C118.828 82.375 119.469 80.7188 120.25 79.4062C121.062 78.0938 121.938 77.1094 122.875 76.4531C123.812 75.7969 124.734 75.4688 125.641 75.4688C127.016 75.4688 127.969 75.8594 128.5 76.6406C129.031 77.4219 129.297 78.3438 129.297 79.4062C129.297 80.2812 129.156 81.1562 128.875 82.0312C128.625 82.9062 128.312 83.6406 127.938 84.2344L128.406 85.5469C129.344 85.3281 130.188 84.9844 130.938 84.5156C131.688 84.0156 132.328 83.4688 132.859 82.875C133.422 82.25 133.844 81.5938 134.125 80.9062C134.406 80.1875 134.547 79.5 134.547 78.8438C134.547 78.1875 134.422 77.5 134.172 76.7812C133.922 76.0625 133.5 75.3906 132.906 74.7656C132.312 74.1406 131.531 73.625 130.562 73.2188C129.594 72.8125 128.391 72.6094 126.953 72.6094C125.078 72.6094 123.219 73.1562 121.375 74.25C119.531 75.3438 117.875 76.875 116.406 78.8438C114.938 80.8125 113.734 83.1875 112.797 85.9688C112.325 87.3996 111.976 88.915 111.75 90.515L111.578 90.8438C110.109 93.75 108.828 96.1562 107.734 98.0625C106.641 99.9375 105.672 101.438 104.828 102.562C103.984 103.656 103.25 104.422 102.625 104.859C102 105.297 101.438 105.516 100.938 105.516C100.562 105.516 100.188 105.438 99.8125 105.281C99.4688 105.125 99.1406 104.766 98.8281 104.203C98.5469 103.641 98.3125 102.797 98.125 101.672C97.9375 100.516 97.8438 98.9531 97.8438 96.9844C97.8438 94.2656 97.9062 91.6406 98.0312 89.1094C98.1875 86.5469 98.3438 84.25 98.5 82.2188C98.6875 80.1562 98.8438 78.4531 98.9688 77.1094C99.125 75.7344 99.2031 74.875 99.2031 74.5312C99.2031 73.8125 99.0781 73.3125 98.8281 73.0312C98.6094 72.75 98.1562 72.6094 97.4688 72.6094C97.3125 72.6094 97.0469 72.6406 96.6719 72.7031C96.3281 72.7656 95.9531 72.875 95.5469 73.0312C95.1719 73.1875 94.7969 73.3906 94.4219 73.6406C94.0781 73.8594 93.8125 74.1562 93.625 74.5312C93.4062 75 93.1875 75.7656 92.9688 76.8281C92.75 77.8906 92.4688 79.125 92.125 80.5312C91.8125 81.9375 91.3906 83.4531 90.8594 85.0781C90.3594 86.6719 89.7188 88.2656 88.9375 89.8594L88.4688 90.8438L90.3906 92.2969ZM99.8125 65.7656C100.562 65.0156 100.938 64.0938 100.938 63C100.938 61.9375 100.562 61.0312 99.8125 60.2812C99.0938 59.5312 98.1875 59.1562 97.0938 59.1562C96.0312 59.1562 95.125 59.5312 94.375 60.2812C93.625 61.0312 93.25 61.9375 93.25 63C93.25 64.0938 93.625 65.0156 94.375 65.7656C95.125 66.4844 96.0312 66.8438 97.0938 66.8438C98.1875 66.8438 99.0938 66.4844 99.8125 65.7656ZM164.688 82.7812C165.125 84.1562 165.344 85.5625 165.344 87C165.344 89.9062 165.031 92.5156 164.406 94.8281C163.812 97.1406 163.031 99.1094 162.062 100.734C161.125 102.328 160.078 103.562 158.922 104.438C157.797 105.281 156.703 105.703 155.641 105.703C153.203 105.703 151.25 104.484 149.781 102.047C148.312 99.5781 147.578 96 147.578 91.3125C147.578 88.9688 147.828 86.8281 148.328 84.8906C148.828 82.9219 149.5 81.25 150.344 79.875C151.219 78.4688 152.234 77.3906 153.391 76.6406C154.578 75.8594 155.844 75.4688 157.188 75.4688C158.281 75.4688 159.312 75.7969 160.281 76.4531C161.281 77.1094 162.156 77.9844 162.906 79.0781C163.656 80.1406 164.25 81.375 164.688 82.7812ZM184.188 72.3281C184.375 72.1406 184.609 72.0469 184.891 72.0469C185.422 72.0469 185.828 72.3438 186.109 72.9375C186.391 73.5 186.531 74.2188 186.531 75.0938C186.312 75.0938 186.047 75.0625 185.734 75C185.453 74.9062 185.172 74.7812 184.891 74.625C184.609 74.4375 184.375 74.2188 184.188 73.9688C184 73.6875 183.906 73.3594 183.906 72.9844C183.906 72.7344 184 72.5156 184.188 72.3281ZM223.188 76.5938C224.469 75.5312 225.969 75 227.688 75C229.344 75 230.859 75.5781 232.234 76.7344C233.641 77.8906 234.688 79.4844 235.375 81.5156C235.375 83.4531 235.391 85.2812 235.422 87C235.453 88.6875 235.5 90.2812 235.562 91.7812C234.469 94.3125 233.438 96.4688 232.469 98.25C231.5 100 230.547 101.438 229.609 102.562C228.672 103.656 227.719 104.453 226.75 104.953C225.812 105.453 224.844 105.703 223.844 105.703C222.812 105.703 221.906 105.344 221.125 104.625C220.344 103.906 219.672 102.938 219.109 101.719C218.578 100.5 218.172 99.1094 217.891 97.5469C217.641 95.9531 217.516 94.2969 217.516 92.5781C217.516 90.4844 217.719 88.3906 218.125 86.2969C218.531 84.2031 219.156 82.3281 220 80.6719C220.844 78.9844 221.906 77.625 223.188 76.5938ZM246.859 44.625C247.203 45.1875 247.375 46.1875 247.375 47.625C247.375 49.7812 247.281 51.875 247.094 53.9062C246.906 55.9375 246.609 58.0469 246.203 60.2344C245.797 62.4219 245.25 64.7812 244.562 67.3125C243.875 69.8438 243.047 72.6875 242.078 75.8438V70.6875C242.078 67.0938 242.125 63.6719 242.219 60.4219C242.344 57.1719 242.531 54.3125 242.781 51.8438C243.062 49.375 243.438 47.4219 243.906 45.9844C244.375 44.5156 244.984 43.7812 245.734 43.7812C246.172 43.7812 246.547 44.0625 246.859 44.625ZM271.328 88.3594C270.828 86.7969 270.578 85.0938 270.578 83.25C270.578 81.1875 270.953 79.5938 271.703 78.4688C272.453 77.3125 273.359 76.7344 274.422 76.7344C275.203 76.7344 275.969 77.0781 276.719 77.7656C277.469 78.4531 278.125 79.4375 278.688 80.7188C279.25 81.9688 279.703 83.5 280.047 85.3125C280.391 87.0938 280.562 89.0938 280.562 91.3125C280.562 92.3125 280.531 93.2969 280.469 94.2656C280.438 95.2031 280.344 96.1094 280.188 96.9844C278.875 96.6719 277.641 96.125 276.484 95.3438C275.328 94.5625 274.312 93.5938 273.438 92.4375C272.562 91.25 271.859 89.8906 271.328 88.3594ZM354.531 63.9375V72.6094H346.375L345.438 75.4688H354.531V91.9688C354.531 95.5938 354.156 98.625 353.406 101.062C352.656 103.5 351.609 105.453 350.266 106.922C348.922 108.391 347.297 109.438 345.391 110.062C343.516 110.688 341.438 111 339.156 111C337.125 111 335.25 110.719 333.531 110.156C331.844 109.562 330.375 108.719 329.125 107.625C327.906 106.5 326.953 105.141 326.266 103.547C325.578 101.922 325.234 100.094 325.234 98.0625C325.234 96.1562 325.5 94.5 326.031 93.0938C326.562 91.6875 327.219 90.5 328 89.5312C328.781 88.5312 329.609 87.7188 330.484 87.0938C331.391 86.4375 332.203 85.9219 332.922 85.5469L331.984 83.625C331.578 83.7188 330.969 83.9062 330.156 84.1875C329.344 84.4688 328.438 84.8594 327.438 85.3594C326.438 85.8594 325.406 86.4844 324.344 87.2344C323.312 87.9844 322.359 88.8906 321.484 89.9531C320.609 90.9844 319.891 92.1719 319.328 93.5156C318.797 94.8594 318.531 96.375 318.531 98.0625C318.531 100.344 319.078 102.422 320.172 104.297C321.266 106.172 322.734 107.781 324.578 109.125C326.422 110.469 328.562 111.516 331 112.266C333.438 113.016 336 113.391 338.688 113.391C343.062 113.391 346.781 112.766 349.844 111.516C352.906 110.266 355.297 108.656 357.016 106.688C358.016 105.531 358.797 104.359 359.359 103.172C359.922 101.953 360.344 100.594 360.625 99.0938C360.906 97.5625 361.078 95.8281 361.141 93.8906C361.203 91.9219 361.234 89.625 361.234 87V75.4688H366.531L367.516 72.6094H361.234V57.4219C361.234 55.0156 361.297 52.8594 361.422 50.9531C361.578 49.0156 361.781 47.2656 362.031 45.7031C362.406 45.7656 362.781 45.7969 363.156 45.7969H364.328C365.984 45.7969 367.531 45.6562 368.969 45.375C370.406 45.0625 371.656 44.5938 372.719 43.9688C373.781 43.3125 374.609 42.5156 375.203 41.5781C375.828 40.6094 376.141 39.4688 376.141 38.1562C376.141 37.375 376 36.6406 375.719 35.9531C375.469 35.2344 375.078 34.6094 374.547 34.0781C374.016 33.5469 373.359 33.125 372.578 32.8125C371.797 32.4688 370.906 32.2969 369.906 32.2969C367.562 32.2969 365.391 33.0469 363.391 34.5469C361.391 36.0156 359.719 37.9844 358.375 40.4531C356.094 39.8906 353.703 39.2656 351.203 38.5781C348.734 37.8594 346.188 37.2031 343.562 36.6094C340.969 35.9844 338.328 35.4688 335.641 35.0625C332.984 34.625 330.328 34.4062 327.672 34.4062C324.797 34.4062 322.375 34.75 320.406 35.4375C318.438 36.0938 316.859 36.9844 315.672 38.1094C314.453 39.2344 313.594 40.5156 313.094 41.9531C312.562 43.3906 312.297 44.875 312.297 46.4062C312.297 47.8438 312.578 49.2031 313.141 50.4844C313.703 51.7656 314.531 52.8906 315.625 53.8594C316.719 54.7969 318.062 55.5469 319.656 56.1094C321.281 56.6719 323.141 56.9531 325.234 56.9531C326.828 56.9531 328.281 56.7656 329.594 56.3906C330.938 55.9844 332.109 55.5312 333.109 55.0312C334.266 54.4688 335.328 53.8281 336.297 53.1094L335.359 51.0938C334.578 51.75 333.672 52.3281 332.641 52.8281C331.766 53.2656 330.703 53.6719 329.453 54.0469C328.234 54.3906 326.828 54.5625 325.234 54.5625C323.797 54.5625 322.484 54.3906 321.297 54.0469C320.141 53.7031 319.141 53.2344 318.297 52.6406C317.453 52.0156 316.797 51.2969 316.328 50.4844C315.891 49.6719 315.672 48.7812 315.672 47.8125C315.672 46.8438 315.859 45.9375 316.234 45.0938C316.641 44.2188 317.328 43.4531 318.297 42.7969C319.266 42.1406 320.547 41.625 322.141 41.25C323.734 40.8438 325.734 40.6406 328.141 40.6406C329.922 40.6406 331.922 40.8125 334.141 41.1562C336.391 41.4688 338.75 41.8594 341.219 42.3281C343.719 42.7969 346.266 43.2969 348.859 43.8281C351.453 44.3281 353.984 44.7656 356.453 45.1406C355.641 47.7656 355.109 50.625 354.859 53.7188C354.641 56.7812 354.531 60.1875 354.531 63.9375ZM366.016 36.4219C367.203 35.3906 368.5 34.875 369.906 34.875C370.875 34.875 371.672 35.2031 372.297 35.8594C372.922 36.4844 373.234 37.25 373.234 38.1562C373.234 38.625 373.141 39.0938 372.953 39.5625C372.766 40.0312 372.484 40.4531 372.109 40.8281C371.734 41.2031 371.234 41.5156 370.609 41.7656C370.016 41.9844 369.297 42.0938 368.453 42.0938C367.641 42.0938 366.781 42.0469 365.875 41.9531C364.969 41.8594 364.031 41.7344 363.062 41.5781C363.844 39.1406 364.828 37.4219 366.016 36.4219ZM410.667 92.2461L410.641 92.2969C409.578 94.4219 408.156 96.125 406.375 97.4062C404.625 98.6562 402.719 99.4688 400.656 99.8438C400.094 101.438 399.359 102.922 398.453 104.297C397.578 105.641 396.562 106.812 395.406 107.812C394.281 108.812 393 109.594 391.562 110.156C390.156 110.719 388.625 111 386.969 111C384.562 111 382.391 110.5 380.453 109.5C378.547 108.469 376.922 107.094 375.578 105.375C374.234 103.625 373.203 101.594 372.484 99.2812C371.766 96.9375 371.406 94.4375 371.406 91.7812C371.406 89.4688 371.672 87.375 372.203 85.5C372.734 83.5938 373.406 81.9062 374.219 80.4375C375.031 78.9375 375.938 77.6406 376.938 76.5469C377.938 75.4219 378.922 74.5 379.891 73.7812C380.859 73.0625 381.734 72.5312 382.516 72.1875C383.328 71.8125 383.938 71.625 384.344 71.625L384.953 73.2656C383.672 74.2031 382.531 75.5156 381.531 77.2031C380.656 78.6406 379.859 80.5469 379.141 82.9219C378.453 85.2969 378.109 88.25 378.109 91.7812C378.109 93.9375 378.312 96.0312 378.719 98.0625C379.125 100.094 379.719 101.891 380.5 103.453C381.281 105.016 382.234 106.266 383.359 107.203C384.516 108.141 385.812 108.609 387.25 108.609C389.219 108.609 390.844 107.828 392.125 106.266C393.438 104.672 394.406 102.5 395.031 99.75C393.406 99.4062 391.859 98.7656 390.391 97.8281C388.922 96.8906 387.625 95.7344 386.5 94.3594C385.375 92.9531 384.469 91.3438 383.781 89.5312C383.125 87.7188 382.797 85.75 382.797 83.625C382.797 81.875 383.016 80.3438 383.453 79.0312C383.922 77.6875 384.531 76.5781 385.281 75.7031C386.031 74.7969 386.891 74.125 387.859 73.6875C388.859 73.2188 389.906 72.9844 391 72.9844C392.281 72.9844 393.594 73.3594 394.938 74.1094C396.281 74.8281 397.5 75.9219 398.594 77.3906C399.688 78.8281 400.578 80.6406 401.266 82.8281C401.953 85.0156 402.297 87.5625 402.297 90.4688C402.297 91.5625 402.234 92.6406 402.109 93.7031C401.984 94.7656 401.797 95.7969 401.547 96.7969C403.047 96.3594 404.406 95.6562 405.625 94.6875C406.875 93.7188 407.906 92.4375 408.719 90.8438L409.234 89.8594L409.269 89.8854L409.281 89.8594C409.75 88.9219 410.172 87.9531 410.547 86.9531C410.953 85.9531 411.297 85.0156 411.578 84.1406C411.859 83.2344 412.078 82.4375 412.234 81.75C412.391 81.0312 412.5 80.4844 412.562 80.1094C411.75 80.0156 410.969 79.8125 410.219 79.5C409.469 79.1875 408.812 78.7656 408.25 78.2344C407.688 77.7031 407.25 77.0781 406.938 76.3594C406.594 75.6406 406.422 74.8281 406.422 73.9219C406.422 73.2031 406.547 72.5625 406.797 72C407.047 71.4375 407.391 70.9688 407.828 70.5938C408.234 70.2188 408.703 69.9375 409.234 69.75C409.734 69.5312 410.266 69.4219 410.828 69.4219C411.578 69.4219 412.234 69.5781 412.797 69.8906C413.359 70.2031 413.828 70.625 414.203 71.1562C414.578 71.6562 414.859 72.25 415.047 72.9375C415.234 73.5938 415.328 74.2812 415.328 75C416.203 75 417.141 74.875 418.141 74.625C419.172 74.375 420.203 74.1094 421.234 73.8281C422.266 73.5156 423.281 73.2344 424.281 72.9844C425.281 72.7344 426.203 72.6094 427.047 72.6094C427.766 72.6094 428.344 72.7656 428.781 73.0781C429.219 73.3594 429.438 73.8438 429.438 74.5312C429.438 75.0312 429.281 75.8594 428.969 77.0156C428.688 78.1719 428.328 79.5156 427.891 81.0469C427.453 82.5781 426.969 84.25 426.438 86.0625C425.938 87.8438 425.469 89.6562 425.031 91.5C424.594 93.3125 424.219 95.0781 423.906 96.7969C423.625 98.5156 423.484 100.047 423.484 101.391C423.484 103.078 423.672 104.219 424.047 104.812C424.422 105.406 425.094 105.703 426.062 105.703C426.469 105.703 426.969 105.531 427.562 105.188C428.188 104.812 428.938 104.109 429.812 103.078C430.688 102.016 431.719 100.516 432.906 98.5781C434.125 96.6094 435.531 94.0312 437.125 90.8438L437.526 90.0024C437.587 88.5514 437.672 87.0975 437.781 85.6406C438.031 82.2969 438.359 78.9062 438.766 75.4688H434.5L435.016 72.6094H439.141L440.453 63.0469C440.922 59.8281 441.344 56.6094 441.719 53.3906H446.5C446.438 54.0781 446.344 55.0781 446.219 56.3906C446.125 57.6719 446 59.1719 445.844 60.8906C445.719 62.5781 445.594 64.4375 445.469 66.4688C445.344 68.4688 445.219 70.5156 445.094 72.6094H454.188L453.719 75.4688H444.906C444.781 77.25 444.672 79 444.578 80.7188C444.484 82.4375 444.391 84.0781 444.297 85.6406C444.234 87.1719 444.188 88.5938 444.156 89.9062C444.125 91.1875 444.109 92.2969 444.109 93.2344C444.109 95.6094 444.172 97.5938 444.297 99.1875C444.453 100.781 444.672 102.062 444.953 103.031C445.266 104 445.641 104.688 446.078 105.094C446.547 105.5 447.078 105.703 447.672 105.703C448.453 105.703 449.312 105.312 450.25 104.531C451.219 103.719 452.219 102.641 453.25 101.297C454.281 99.9531 455.328 98.3906 456.391 96.6094C457.453 94.7969 458.484 92.875 459.484 90.8438L459.953 89.8594L461.875 91.3125L461.406 92.2969C459.969 95.2031 458.531 97.8125 457.094 100.125C455.688 102.438 454.297 104.406 452.922 106.031C451.547 107.625 450.203 108.859 448.891 109.734C447.578 110.578 446.312 111 445.094 111C443.875 111 442.781 110.719 441.812 110.156C440.875 109.594 440.078 108.703 439.422 107.484C438.766 106.234 438.266 104.641 437.922 102.703C437.578 100.766 437.406 98.4062 437.406 95.625C437.406 95.5852 437.406 95.5454 437.406 95.5056C436.182 97.8419 435.057 99.8505 434.031 101.531C432.562 103.938 431.203 105.844 429.953 107.25C428.734 108.656 427.578 109.641 426.484 110.203C425.391 110.734 424.297 111 423.203 111C421.359 111 419.859 110.297 418.703 108.891C417.547 107.484 416.969 105.312 416.969 102.375C416.969 100.781 417.188 99.125 417.625 97.4062C418.062 95.6875 418.609 93.9844 419.266 92.2969C419.922 90.5781 420.656 88.8906 421.469 87.2344C422.281 85.5781 423.047 84.0156 423.766 82.5469C424.516 81.0469 425.188 79.6562 425.781 78.375C426.375 77.0938 426.797 75.9688 427.047 75L426.766 74.7188C426.266 74.7188 425.594 74.9844 424.75 75.5156C423.906 76.0469 422.953 76.6562 421.891 77.3438C420.859 78 419.75 78.625 418.562 79.2188C417.375 79.8125 416.172 80.1719 414.953 80.2969C414.891 80.7344 414.75 81.375 414.531 82.2188C414.344 83.0625 414.078 84 413.734 85.0312C413.391 86.0625 413 87.125 412.562 88.2188C412.125 89.3125 411.672 90.3438 411.203 91.3125L410.734 92.2969L410.667 92.2461ZM386.641 88.3594C386.141 86.7969 385.891 85.0938 385.891 83.25C385.891 81.1875 386.266 79.5938 387.016 78.4688C387.766 77.3125 388.672 76.7344 389.734 76.7344C390.516 76.7344 391.281 77.0781 392.031 77.7656C392.781 78.4531 393.438 79.4375 394 80.7188C394.562 81.9688 395.016 83.5 395.359 85.3125C395.703 87.0938 395.875 89.0938 395.875 91.3125C395.875 92.3125 395.844 93.2969 395.781 94.2656C395.75 95.2031 395.656 96.1094 395.5 96.9844C394.188 96.6719 392.953 96.125 391.797 95.3438C390.641 94.5625 389.625 93.5938 388.75 92.4375C387.875 91.25 387.172 89.8906 386.641 88.3594ZM410.406 72.3281C410.594 72.1406 410.828 72.0469 411.109 72.0469C411.641 72.0469 412.047 72.3438 412.328 72.9375C412.609 73.5 412.75 74.2188 412.75 75.0938C412.531 75.0938 412.266 75.0625 411.953 75C411.672 74.9062 411.391 74.7812 411.109 74.625C410.828 74.4375 410.594 74.2188 410.406 73.9688C410.219 73.6875 410.125 73.3594 410.125 72.9844C410.125 72.7344 410.219 72.5156 410.406 72.3281Z" fill="#817E7E"/>
</g>
<defs>
<clipPath id="clip0">
<rect width="496" height="201" fill="white"/>
</clipPath>
</defs>
</svg>
