<svg width="104" height="36" viewBox="0 0 104 36" fill="none" xmlns="http://www.w3.org/2000/svg">
<g clip-path="url(#clip0)">
<path d="M23.481 17.9678C23.481 19.8681 21.9404 21.4087 20.04 21.4087C18.1396 21.4087 16.5991 19.8681 16.5991 17.9678C16.5991 16.0674 18.1396 14.5268 20.04 14.5268C21.9404 14.5268 23.481 16.0674 23.481 17.9678Z" fill="#817E7E" stroke="#817E7E" stroke-width="0.06928"/>
<path fill-rule="evenodd" clip-rule="evenodd" d="M20.0402 10.9023C24.7067 10.9023 29.0417 11.5719 32.3102 12.6972C36.2484 14.053 38.6697 16.108 38.6697 17.9689C38.6697 19.9081 36.1036 22.0913 31.8745 23.4925C28.6772 24.5517 24.4699 25.1047 20.0402 25.1047C15.4987 25.1047 11.198 24.5857 7.96474 23.4808C3.87403 22.0826 1.41016 19.8711 1.41016 17.9689C1.41016 16.1231 3.72203 14.084 7.60483 12.7302C10.8856 11.5864 15.3276 10.9023 20.0396 10.9023H20.0402Z" stroke="#817E7E" stroke-width="1.66272"/>
<path fill-rule="evenodd" clip-rule="evenodd" d="M13.8884 14.4558C16.2197 10.4134 18.9653 6.99265 21.5729 4.72331C24.7148 1.98911 27.7047 0.918314 29.3167 1.84784C30.9966 2.81659 31.6058 6.13032 30.7069 10.4937C30.0279 13.7927 28.4044 17.7135 26.1915 21.5508C23.9226 25.4851 21.3246 28.9513 18.7524 31.1996C15.4976 34.0448 12.351 35.0744 10.7031 34.1241C9.10414 33.2027 8.49268 30.1807 9.25975 26.1407C9.90786 22.7273 11.5343 18.5376 13.8877 14.4557L13.8884 14.4558Z" stroke="#817E7E" stroke-width="1.66272"/>
<path fill-rule="evenodd" clip-rule="evenodd" d="M13.8943 21.5605C11.5564 17.5227 9.9647 13.4349 9.30031 10.0424C8.50054 5.95484 9.066 2.82962 10.6765 1.89739C12.3547 0.925807 15.5299 2.05285 18.8612 5.01083C21.38 7.24719 23.9663 10.6112 26.1857 14.4449C28.4611 18.3754 30.1665 22.3574 30.83 25.7086C31.6694 29.9494 30.99 33.1897 29.3437 34.1427C27.7463 35.0675 24.8232 34.0884 21.7063 31.4062C19.0727 29.14 16.2552 25.6384 13.8943 21.5604V21.5605Z" stroke="#817E7E" stroke-width="1.66272"/>
<path fill-rule="evenodd" clip-rule="evenodd" d="M58.62 26.8486L54.36 20.4126C56.513 20.2226 58.453 18.6626 58.453 15.8126C58.453 12.9126 56.395 11.0566 53.508 11.0566H47.168V26.8366H49.132V20.5666H52.279L56.301 26.8366L58.62 26.8486ZM53.273 18.8516H49.133V12.8186H53.273C55.143 12.8186 56.42 14.0486 56.42 15.8236C56.42 17.5986 55.142 18.8536 53.273 18.8536V18.8516ZM65.931 27.1316C67.801 27.1316 69.338 26.5166 70.474 25.3816L69.622 24.2216C68.722 25.1446 67.398 25.6646 66.097 25.6646C63.637 25.6646 62.122 23.8666 61.98 21.7146H71.23V21.2646C71.23 17.8346 69.195 15.1366 65.74 15.1366C62.475 15.1366 60.11 17.8106 60.11 21.1226C60.11 24.6956 62.547 27.1226 65.93 27.1226L65.931 27.1316ZM69.481 20.4116H61.981C62.076 18.6616 63.281 16.6016 65.719 16.6016C68.322 16.6016 69.457 18.7076 69.481 20.4116ZM83.015 26.8476V18.9926C83.015 16.2246 81.005 15.1356 78.591 15.1356C76.721 15.1356 75.255 15.7506 74.025 17.0286L74.853 18.2586C75.87 17.1706 76.983 16.6736 78.355 16.6736C80.011 16.6736 81.242 17.5486 81.242 19.0866V21.1446C80.319 20.0796 79.018 19.5826 77.456 19.5826C75.516 19.5826 73.456 20.7896 73.456 23.3446C73.456 25.8286 75.514 27.1306 77.456 27.1306C78.994 27.1306 80.296 26.5866 81.242 25.5456V26.8456L83.015 26.8476ZM78.095 25.8536C76.439 25.8536 75.279 24.8136 75.279 23.3696C75.279 21.9026 76.439 20.8616 78.095 20.8616C79.349 20.8616 80.555 21.3346 81.242 22.2816V24.4346C80.556 25.3806 79.349 25.8546 78.095 25.8546V25.8536ZM91.595 27.1316C93.677 27.1316 94.907 26.2796 95.783 25.1446L94.6 24.0566C93.843 25.0736 92.873 25.5466 91.7 25.5466C89.263 25.5466 87.75 23.6536 87.75 21.1226C87.75 18.5916 89.264 16.7226 91.7 16.7226C92.883 16.7226 93.853 17.1726 94.6 18.2126L95.783 17.1246C94.908 15.9886 93.677 15.1376 91.595 15.1376C88.188 15.1376 85.893 17.7406 85.893 21.1236C85.893 24.5306 88.188 27.1236 91.595 27.1236V27.1316ZM101.155 27.1316C102.195 27.1316 102.835 26.8236 103.285 26.3986L102.765 25.0736C102.528 25.3336 102.065 25.5466 101.558 25.5466C100.778 25.5466 100.398 24.9316 100.398 24.0796V16.9816H102.718V15.4206H100.398V12.2976H98.623V15.4206H96.73V16.9826H98.623V24.4596C98.623 26.1636 99.475 27.1336 101.155 27.1336V27.1316Z" fill="#817E7E"/>
</g>
<defs>
<clipPath id="clip0">
<rect width="104" height="36" fill="white"/>
</clipPath>
</defs>
</svg>
