<svg width="120" height="25" viewBox="0 0 120 25" fill="none" xmlns="http://www.w3.org/2000/svg">
<path d="M24.6257 15.5316C22.9557 22.213 16.1953 26.297 9.46841 24.6257C2.78701 22.9557 -1.29704 16.1953 0.374314 9.46841C2.04433 2.78701 8.80469 -1.29704 15.5316 0.374314C22.213 2.04433 26.297 8.80469 24.6257 15.5316Z" fill="#817E7E"/>
<path d="M17.9663 10.4111C18.2364 8.72275 16.852 7.81365 14.9624 7.2211L15.5699 4.93752L14.0847 4.5939L13.4772 6.81255L12.2622 6.56227L12.8697 4.34362L11.3846 4L10.7771 6.28359L9.83223 6.06443L7.78777 5.595L7.38326 7.06418L8.4639 7.31445C8.67359 7.33659 8.86544 7.4343 8.99798 7.58645C9.13052 7.7386 9.19309 7.93296 9.17216 8.12751L8.4639 10.725C8.49749 10.725 8.56612 10.7561 8.6333 10.7561C8.59971 10.7561 8.53108 10.725 8.4639 10.725L7.48548 14.3533C7.4183 14.5102 7.21532 14.7916 6.81081 14.6969C6.81081 14.728 5.73016 14.4466 5.73016 14.4466L5 16.043L6.95684 16.4813L8.03748 16.7315L7.42999 19.0314L8.91514 19.375L9.52264 17.0914L10.6909 17.3728L10.0834 19.6564L11.5686 20L12.1761 17.7002C14.7419 18.1385 16.6301 17.9816 17.442 15.8238C18.0845 14.1057 17.4084 13.1181 16.0576 12.4458C17.0711 12.2564 17.7808 11.6638 17.9823 10.4124L17.9663 10.4111ZM14.5564 14.8836C14.0832 16.6017 10.9786 15.6655 9.96512 15.4464L10.7756 12.3822C11.7891 12.6013 15.0295 13.0586 14.5725 14.8849L14.5564 14.8836ZM15.0295 10.4111C14.625 11.975 11.9921 11.193 11.148 10.9739L11.8781 8.19109C12.7222 8.41025 15.456 8.75387 15.0179 10.4097L15.0295 10.4111Z" fill="white"/>
<path d="M36.0392 7.54815C37.0588 7.54815 37.91 7.73542 38.665 8.07384C39.4067 8.44436 40.024 8.90851 40.4877 9.52648C40.9822 10.1445 41.3216 10.8561 41.5568 11.6907C41.7837 12.5588 41.8978 13.4526 41.8962 14.3499C41.9016 15.7605 41.6287 17.1583 41.0931 18.4631C40.5878 19.7186 39.843 20.8635 38.9002 21.8339C37.9636 22.7938 36.8524 23.5656 35.6263 24.1078C34.3302 24.6714 32.9302 24.9558 31.5171 24.9425H30.5283C30.0646 24.9425 29.5087 24.881 28.8913 24.7873L26.9457 24.4168C26.2775 24.2616 25.6174 24.0155 25 23.748L30.4681 0.773142L35.3483 0L33.4027 8.16346C33.8356 7.97619 34.2365 7.8237 34.6695 7.73007C35.1113 7.60334 35.5689 7.54029 36.0285 7.5428L36.0392 7.54815ZM31.9314 21.0928C32.673 21.0928 33.3519 20.9056 34.0027 20.5672C34.6571 20.1971 35.2339 19.7038 35.7011 19.1145C36.1648 18.5259 36.535 17.8464 36.8129 17.0733C37.0909 16.3002 37.2138 15.527 37.2138 14.6924C37.2138 13.6718 37.0588 12.8999 36.7194 12.3114C36.38 11.7549 35.7612 11.446 34.8659 11.446C34.5586 11.446 34.1978 11.5075 33.7234 11.6011C33.249 11.6948 32.8281 11.9409 32.4566 12.2699L30.3853 20.9283C30.5082 20.9591 30.6325 20.9591 30.7247 20.9898C30.8169 21.0206 30.9118 21.0206 31.0321 21.0514C31.1256 21.0514 31.2793 21.0821 31.4022 21.0821H31.9274L31.9314 21.0928ZM47.0049 24.5706H42.3278L46.2699 7.92269H50.9657L47.0049 24.5706ZM49.2606 5.89486C48.6239 5.90335 48.0032 5.69592 47.4993 5.30631C46.9742 4.90503 46.6975 4.31648 46.6975 3.51391C46.6975 3.08053 46.7911 2.64847 46.9755 2.27662C47.1474 1.89536 47.3885 1.54932 47.6864 1.25602C47.9938 0.983415 48.3368 0.753918 48.706 0.573837C49.1069 0.418674 49.5078 0.326377 49.9421 0.326377C50.5787 0.317888 51.1995 0.525325 51.7033 0.914928C52.2285 1.31621 52.5051 1.90476 52.5051 2.70733C52.5051 3.14072 52.4116 3.57277 52.2272 3.94462C52.0552 4.32588 51.8142 4.67192 51.5162 4.96522C51.2383 5.24345 50.8681 5.46014 50.4966 5.63403C50.1252 5.80792 49.7243 5.88149 49.2606 5.88149V5.89486ZM55.0681 3.78946L59.9804 3.01632L58.775 7.93339H64.0267L63.0686 11.8125H57.8476L56.4579 17.6257C56.3451 18.0718 56.2726 18.5271 56.2414 18.9861C56.212 19.4181 56.2721 19.7592 56.3964 20.0562C56.4568 20.2141 56.548 20.3584 56.6648 20.4806C56.7816 20.6028 56.9216 20.7004 57.0766 20.7678C57.416 20.923 57.8784 21.0152 58.4664 21.0152C58.9608 21.0152 59.4552 20.9537 59.9363 20.8601C60.421 20.7691 60.8964 20.6343 61.3568 20.4575L61.6962 24.0757C61.0288 24.3122 60.3479 24.5083 59.657 24.6629C58.9154 24.8502 58.0508 24.9104 57.0312 24.9104C55.5799 24.9104 54.4655 24.6937 53.6637 24.2616C52.8619 23.8296 52.3047 23.241 51.9666 22.4987C51.6285 21.7563 51.4721 20.8909 51.5336 19.9304C51.5644 18.9714 51.7207 17.9508 51.9666 16.8539L55.0681 3.78946ZM63.8102 17.9213C63.8124 16.543 64.0423 15.1744 64.4904 13.8711C64.9318 12.6521 65.6028 11.5291 66.4668 10.5631C67.3314 9.60407 68.3817 8.86437 69.6178 8.30524C70.8539 7.74612 72.2129 7.47057 73.7269 7.47057C74.6851 7.47057 75.5176 7.56421 76.2606 7.7488C77.0035 7.93339 77.681 8.15008 78.2997 8.46041L76.6935 12.1388C76.2606 11.9516 75.8289 11.8312 75.3973 11.6747C74.9336 11.5195 74.3777 11.458 73.7296 11.458C72.1528 11.458 70.9501 11.9837 70.0227 13.0658C69.0953 14.1479 68.6329 15.5698 68.6329 17.3943C68.6329 18.4644 68.8802 19.3419 69.3439 19.992C69.8076 20.6608 70.6721 20.9818 71.9096 20.9818C72.5017 20.9845 73.0923 20.9221 73.6708 20.7959C74.1881 20.6858 74.6947 20.5305 75.1848 20.3317L75.5243 24.1038L73.5786 24.7218C72.8677 24.909 72.0018 25 71.0129 25C69.7167 25 68.6035 24.8127 67.7082 24.4436C66.8552 24.0942 66.0863 23.5671 65.4525 22.8973C64.86 22.254 64.4261 21.4807 64.1857 20.6394C63.9355 19.7543 63.8109 18.8385 63.8156 17.9187L63.8102 17.9213ZM84.5683 24.9906C83.4565 24.9906 82.4677 24.8034 81.6646 24.4957C80.8307 24.156 80.1505 23.6932 79.6254 23.0738C79.0873 22.4374 78.6779 21.7024 78.42 20.9096C78.1421 20.0749 78.0191 19.1466 78.0191 18.1581C78.0191 16.89 78.2356 15.622 78.6365 14.3553C79.0248 13.1167 79.6432 11.9626 80.4592 10.9537C81.261 9.93312 82.2499 9.09845 83.3937 8.47913C84.5363 7.83039 85.8659 7.52006 87.3786 7.52006C88.3679 7.51433 89.3507 7.68182 90.2824 8.01498C91.1162 8.35474 91.7964 8.81755 92.3216 9.43687C92.8597 10.0733 93.269 10.8083 93.5269 11.6011C93.8049 12.4358 93.9278 13.3641 93.9278 14.3526C93.9278 15.6207 93.7407 16.8887 93.3398 18.1554C92.9389 19.4222 92.351 20.5671 91.5786 21.557C90.8062 22.5776 89.8173 23.3815 88.6441 24.0316C87.4708 24.6817 86.1104 24.9906 84.5683 24.9906V24.9906ZM86.9162 11.4473C86.2623 11.4474 85.6248 11.6528 85.0935 12.0345C84.5683 12.4358 84.1354 12.9307 83.7652 13.55C83.3951 14.1693 83.1479 14.8181 82.9635 15.5605C82.779 16.3028 82.6855 16.9823 82.6855 17.6338C82.6855 18.6851 82.8726 19.5064 83.1799 20.1083C83.5193 20.6969 84.1381 21.0045 85.0027 21.0045C85.7136 21.0045 86.2989 20.8173 86.8254 20.416C87.3519 20.0147 87.7835 19.5198 88.1536 18.9005C88.5238 18.2812 88.771 17.6324 88.9554 16.89C89.1357 16.2136 89.2291 15.5169 89.2334 14.8167C89.2334 13.7654 89.0784 12.9441 88.7389 12.3422C88.3995 11.7402 87.7808 11.446 86.9162 11.446V11.4473ZM99.0271 24.5559H94.3501L98.3055 7.92001H103.001L99.0271 24.5559ZM101.283 5.88015C100.646 5.88864 100.025 5.6812 99.5216 5.2916C98.9964 4.89032 98.7198 4.30177 98.7198 3.4992C98.7198 3.06581 98.8133 2.63376 98.9977 2.2619C99.1697 1.88065 99.4107 1.5346 99.7087 1.2413C100.016 0.968699 100.359 0.739204 100.728 0.559124C101.129 0.403961 101.53 0.311664 101.964 0.311664C102.601 0.303174 103.222 0.510612 103.726 0.900214C104.251 1.3015 104.527 1.89005 104.527 2.69262C104.527 3.126 104.434 3.55805 104.249 3.92991C104.077 4.31116 103.836 4.65721 103.538 4.95051C103.231 5.22311 102.888 5.45261 102.519 5.63269C102.147 5.81996 101.747 5.88015 101.283 5.88015ZM106.377 8.66239L107.55 8.29187L109.001 7.92135C109.592 7.78905 110.19 7.6961 110.793 7.64313L113.049 7.52006C115.521 7.52006 117.218 8.23167 118.146 9.68432C119.073 11.1062 119.257 13.0859 118.64 15.5591L116.478 24.5265H111.782L113.853 15.7451L114.161 14.1372C114.222 13.6116 114.222 13.1782 114.13 12.7769C114.054 12.3975 113.845 12.0576 113.542 11.8178C113.232 11.5704 112.77 11.4473 112.122 11.4473C111.504 11.4473 110.885 11.5088 110.268 11.6346L107.195 24.4984H102.499L106.377 8.66239Z" fill="#817E7E"/>
</svg>
