<svg width="396" height="242" viewBox="0 0 396 242" fill="none" xmlns="http://www.w3.org/2000/svg">
<g clip-path="url(#clip0)">
<path fill-rule="evenodd" clip-rule="evenodd" d="M210.247 0H232.247V16V32.9302C227.544 35.107 223.138 38.1342 219.26 42.0119L210.247 51.0253V16V0ZM215.409 77.0783L229.867 62.6207C241.689 50.7983 260.857 50.7983 272.679 62.6207C284.502 74.4431 284.502 93.611 272.679 105.433C260.857 117.256 241.689 117.256 229.867 105.433L227.045 102.612L226.916 102.74L208.25 84.0743L208.299 84.0251L197.692 73.4185L176.286 52.0122C158.606 34.3319 129.94 34.3319 112.26 52.0121C94.5799 69.6924 94.5799 98.3578 112.26 116.038C129.94 133.718 158.606 133.718 176.286 116.038L190.75 101.574L180.144 90.9671L165.68 105.431C153.857 117.254 134.689 117.254 122.867 105.431C111.044 93.6091 111.044 74.4412 122.867 62.6188C134.689 50.7964 153.857 50.7964 165.68 62.6188L168.189 65.1283L168.318 64.9992L187.297 83.9776L187.247 84.0271L197.854 94.6337L219.26 116.04C236.94 133.72 265.606 133.72 283.286 116.04C300.966 98.3598 300.966 69.6944 283.286 52.0141C265.606 34.3338 236.94 34.3338 219.26 52.0141L204.796 66.4782L215.402 77.0848L215.403 77.0845L215.404 77.0854L215.409 77.0783Z" fill="#817E7E"/>
<path d="M3.268 180.1C3.268 175.793 4.12933 172.044 5.852 168.852C7.57467 165.609 9.956 163.101 12.996 161.328C16.0867 159.555 19.608 158.668 23.56 158.668C28.6773 158.668 32.8827 159.909 36.176 162.392C39.52 164.875 41.724 168.32 42.788 172.728H35.34C34.6307 170.195 33.2373 168.193 31.16 166.724C29.1333 165.255 26.6 164.52 23.56 164.52C19.608 164.52 16.416 165.888 13.984 168.624C11.552 171.309 10.336 175.135 10.336 180.1C10.336 185.116 11.552 188.992 13.984 191.728C16.416 194.464 19.608 195.832 23.56 195.832C26.6 195.832 29.1333 195.123 31.16 193.704C33.1867 192.285 34.58 190.259 35.34 187.624H42.788C41.6733 191.88 39.444 195.3 36.1 197.884C32.756 200.417 28.576 201.684 23.56 201.684C19.608 201.684 16.0867 200.797 12.996 199.024C9.956 197.251 7.57467 194.743 5.852 191.5C4.12933 188.257 3.268 184.457 3.268 180.1ZM49.4321 180.024C49.4321 175.768 50.2934 172.044 52.0161 168.852C53.7387 165.609 56.0947 163.101 59.0841 161.328C62.1241 159.555 65.4934 158.668 69.1921 158.668C72.8401 158.668 76.0067 159.453 78.6921 161.024C81.3774 162.595 83.3787 164.571 84.6961 166.952V159.352H91.6881V201H84.6961V193.248C83.3281 195.68 81.2761 197.707 78.5401 199.328C75.8547 200.899 72.7134 201.684 69.1161 201.684C65.4174 201.684 62.0734 200.772 59.0841 198.948C56.0947 197.124 53.7387 194.565 52.0161 191.272C50.2934 187.979 49.4321 184.229 49.4321 180.024ZM84.6961 180.1C84.6961 176.959 84.0627 174.223 82.7961 171.892C81.5294 169.561 79.8067 167.788 77.6281 166.572C75.5001 165.305 73.1441 164.672 70.5601 164.672C67.9761 164.672 65.6201 165.28 63.4921 166.496C61.3641 167.712 59.6667 169.485 58.4001 171.816C57.1334 174.147 56.5001 176.883 56.5001 180.024C56.5001 183.216 57.1334 186.003 58.4001 188.384C59.6667 190.715 61.3641 192.513 63.4921 193.78C65.6201 194.996 67.9761 195.604 70.5601 195.604C73.1441 195.604 75.5001 194.996 77.6281 193.78C79.8067 192.513 81.5294 190.715 82.7961 188.384C84.0627 186.003 84.6961 183.241 84.6961 180.1ZM118.119 201.684C114.927 201.684 112.065 201.152 109.531 200.088C106.998 198.973 104.997 197.453 103.527 195.528C102.058 193.552 101.247 191.297 101.095 188.764H108.239C108.442 190.841 109.405 192.539 111.127 193.856C112.901 195.173 115.206 195.832 118.043 195.832C120.678 195.832 122.755 195.249 124.275 194.084C125.795 192.919 126.555 191.449 126.555 189.676C126.555 187.852 125.745 186.509 124.123 185.648C122.502 184.736 119.994 183.849 116.599 182.988C113.509 182.177 110.975 181.367 108.999 180.556C107.074 179.695 105.402 178.453 103.983 176.832C102.615 175.16 101.931 172.981 101.931 170.296C101.931 168.168 102.565 166.217 103.831 164.444C105.098 162.671 106.897 161.277 109.227 160.264C111.558 159.2 114.218 158.668 117.207 158.668C121.818 158.668 125.542 159.833 128.379 162.164C131.217 164.495 132.737 167.687 132.939 171.74H126.023C125.871 169.561 124.985 167.813 123.363 166.496C121.793 165.179 119.665 164.52 116.979 164.52C114.497 164.52 112.521 165.052 111.051 166.116C109.582 167.18 108.847 168.573 108.847 170.296C108.847 171.664 109.278 172.804 110.139 173.716C111.051 174.577 112.166 175.287 113.483 175.844C114.851 176.351 116.726 176.933 119.107 177.592C122.097 178.403 124.529 179.213 126.403 180.024C128.278 180.784 129.874 181.949 131.191 183.52C132.559 185.091 133.269 187.143 133.319 189.676C133.319 191.956 132.686 194.008 131.419 195.832C130.153 197.656 128.354 199.1 126.023 200.164C123.743 201.177 121.109 201.684 118.119 201.684ZM140.498 180.024C140.498 175.768 141.36 172.044 143.082 168.852C144.805 165.609 147.161 163.101 150.15 161.328C153.19 159.555 156.56 158.668 160.258 158.668C163.906 158.668 167.073 159.453 169.758 161.024C172.444 162.595 174.445 164.571 175.762 166.952V159.352H182.754V201H175.762V193.248C174.394 195.68 172.342 197.707 169.606 199.328C166.921 200.899 163.78 201.684 160.182 201.684C156.484 201.684 153.14 200.772 150.15 198.948C147.161 197.124 144.805 194.565 143.082 191.272C141.36 187.979 140.498 184.229 140.498 180.024ZM175.762 180.1C175.762 176.959 175.129 174.223 173.862 171.892C172.596 169.561 170.873 167.788 168.694 166.572C166.566 165.305 164.21 164.672 161.626 164.672C159.042 164.672 156.686 165.28 154.558 166.496C152.43 167.712 150.733 169.485 149.466 171.816C148.2 174.147 147.566 176.883 147.566 180.024C147.566 183.216 148.2 186.003 149.466 188.384C150.733 190.715 152.43 192.513 154.558 193.78C156.686 194.996 159.042 195.604 161.626 195.604C164.21 195.604 166.566 194.996 168.694 193.78C170.873 192.513 172.596 190.715 173.862 188.384C175.129 186.003 175.762 183.241 175.762 180.1ZM221.62 167.104C223.038 164.621 225.116 162.595 227.852 161.024C230.588 159.453 233.704 158.668 237.2 158.668C240.949 158.668 244.318 159.555 247.308 161.328C250.297 163.101 252.653 165.609 254.376 168.852C256.098 172.044 256.96 175.768 256.96 180.024C256.96 184.229 256.098 187.979 254.376 191.272C252.653 194.565 250.272 197.124 247.232 198.948C244.242 200.772 240.898 201.684 237.2 201.684C233.602 201.684 230.436 200.899 227.7 199.328C225.014 197.757 222.988 195.756 221.62 193.324V201H214.704V144.76H221.62V167.104ZM249.892 180.024C249.892 176.883 249.258 174.147 247.992 171.816C246.725 169.485 245.002 167.712 242.824 166.496C240.696 165.28 238.34 164.672 235.756 164.672C233.222 164.672 230.866 165.305 228.688 166.572C226.56 167.788 224.837 169.587 223.52 171.968C222.253 174.299 221.62 177.009 221.62 180.1C221.62 183.241 222.253 186.003 223.52 188.384C224.837 190.715 226.56 192.513 228.688 193.78C230.866 194.996 233.222 195.604 235.756 195.604C238.34 195.604 240.696 194.996 242.824 193.78C245.002 192.513 246.725 190.715 247.992 188.384C249.258 186.003 249.892 183.216 249.892 180.024ZM304.063 178.58C304.063 179.897 303.987 181.291 303.835 182.76H270.547C270.8 186.864 272.194 190.081 274.727 192.412C277.311 194.692 280.427 195.832 284.075 195.832C287.064 195.832 289.547 195.148 291.523 193.78C293.55 192.361 294.968 190.487 295.779 188.156H303.227C302.112 192.159 299.883 195.427 296.539 197.96C293.195 200.443 289.04 201.684 284.075 201.684C280.123 201.684 276.576 200.797 273.435 199.024C270.344 197.251 267.912 194.743 266.139 191.5C264.366 188.207 263.479 184.407 263.479 180.1C263.479 175.793 264.34 172.019 266.063 168.776C267.786 165.533 270.192 163.051 273.283 161.328C276.424 159.555 280.022 158.668 284.075 158.668C288.027 158.668 291.523 159.529 294.563 161.252C297.603 162.975 299.934 165.356 301.555 168.396C303.227 171.385 304.063 174.78 304.063 178.58ZM296.919 177.136C296.919 174.501 296.336 172.247 295.171 170.372C294.006 168.447 292.41 167.003 290.383 166.04C288.407 165.027 286.203 164.52 283.771 164.52C280.275 164.52 277.286 165.635 274.803 167.864C272.371 170.093 270.978 173.184 270.623 177.136H296.919ZM320.108 144.76V201H313.192V144.76H320.108ZM338.811 144.76V201H331.895V144.76H338.811ZM348.014 180.024C348.014 175.768 348.875 172.044 350.598 168.852C352.321 165.609 354.677 163.101 357.666 161.328C360.706 159.555 364.075 158.668 367.774 158.668C371.422 158.668 374.589 159.453 377.274 161.024C379.959 162.595 381.961 164.571 383.278 166.952V159.352H390.27V201H383.278V193.248C381.91 195.68 379.858 197.707 377.122 199.328C374.437 200.899 371.295 201.684 367.698 201.684C363.999 201.684 360.655 200.772 357.666 198.948C354.677 197.124 352.321 194.565 350.598 191.272C348.875 187.979 348.014 184.229 348.014 180.024ZM383.278 180.1C383.278 176.959 382.645 174.223 381.378 171.892C380.111 169.561 378.389 167.788 376.21 166.572C374.082 165.305 371.726 164.672 369.142 164.672C366.558 164.672 364.202 165.28 362.074 166.496C359.946 167.712 358.249 169.485 356.982 171.816C355.715 174.147 355.082 176.883 355.082 180.024C355.082 183.216 355.715 186.003 356.982 188.384C358.249 190.715 359.946 192.513 362.074 193.78C364.202 194.996 366.558 195.604 369.142 195.604C371.726 195.604 374.082 194.996 376.21 193.78C378.389 192.513 380.111 190.715 381.378 188.384C382.645 186.003 383.278 183.241 383.278 180.1Z" fill="#817E7E"/>
<path d="M36.184 225.2V242H34.48V228.56L27.88 239.864H27.04L20.44 228.632V242H18.736V225.2H20.2L27.496 237.656L34.72 225.2H36.184ZM49.0979 225.2H50.8739V242H49.0979V225.2ZM77.8201 225.2V242H76.3561L65.5561 228.368V242H63.7801V225.2H65.2441L76.0681 238.832V225.2H77.8201ZM90.7435 225.2H92.5195V242H90.7435V225.2ZM122.874 225.2V242H121.17V228.56L114.57 239.864H113.73L107.13 228.632V242H105.426V225.2H106.89L114.186 237.656L121.41 225.2H122.874ZM146.324 237.512H136.964L134.948 242H133.1L140.78 225.2H142.532L150.212 242H148.34L146.324 237.512ZM145.676 236.072L141.644 227.048L137.612 236.072H145.676ZM160.431 225.2H162.207V240.464H171.615V242H160.431V225.2ZM182.004 225.2H183.78V242H182.004V225.2ZM201.318 242.144C200.07 242.144 198.87 241.944 197.718 241.544C196.582 241.144 195.702 240.616 195.078 239.96L195.774 238.592C196.382 239.2 197.19 239.696 198.198 240.08C199.206 240.448 200.246 240.632 201.318 240.632C202.822 240.632 203.95 240.36 204.702 239.816C205.454 239.256 205.83 238.536 205.83 237.656C205.83 236.984 205.622 236.448 205.206 236.048C204.806 235.648 204.31 235.344 203.718 235.136C203.126 234.912 202.302 234.672 201.246 234.416C199.982 234.096 198.974 233.792 198.222 233.504C197.47 233.2 196.822 232.744 196.278 232.136C195.75 231.528 195.486 230.704 195.486 229.664C195.486 228.816 195.71 228.048 196.158 227.36C196.606 226.656 197.294 226.096 198.222 225.68C199.15 225.264 200.302 225.056 201.678 225.056C202.638 225.056 203.574 225.192 204.486 225.464C205.414 225.72 206.214 226.08 206.886 226.544L206.286 227.96C205.582 227.496 204.83 227.152 204.03 226.928C203.23 226.688 202.446 226.568 201.678 226.568C200.206 226.568 199.094 226.856 198.342 227.432C197.606 227.992 197.238 228.72 197.238 229.616C197.238 230.288 197.438 230.832 197.838 231.248C198.254 231.648 198.766 231.96 199.374 232.184C199.998 232.392 200.83 232.624 201.87 232.88C203.102 233.184 204.094 233.488 204.846 233.792C205.614 234.08 206.262 234.528 206.79 235.136C207.318 235.728 207.582 236.536 207.582 237.56C207.582 238.408 207.35 239.184 206.886 239.888C206.438 240.576 205.742 241.128 204.798 241.544C203.854 241.944 202.694 242.144 201.318 242.144ZM221.921 226.736H216.017V225.2H229.601V226.736H223.697V242H221.921V226.736ZM253.599 225.2H260.439C262.215 225.2 263.783 225.56 265.143 226.28C266.503 226.984 267.559 227.976 268.311 229.256C269.063 230.52 269.439 231.968 269.439 233.6C269.439 235.232 269.063 236.688 268.311 237.968C267.559 239.232 266.503 240.224 265.143 240.944C263.783 241.648 262.215 242 260.439 242H253.599V225.2ZM260.343 240.464C261.815 240.464 263.103 240.176 264.207 239.6C265.311 239.008 266.167 238.2 266.775 237.176C267.383 236.136 267.687 234.944 267.687 233.6C267.687 232.256 267.383 231.072 266.775 230.048C266.167 229.008 265.311 228.2 264.207 227.624C263.103 227.032 261.815 226.736 260.343 226.736H255.375V240.464H260.343ZM292.748 240.464V242H280.868V225.2H292.388V226.736H282.644V232.712H291.332V234.224H282.644V240.464H292.748ZM308.994 242.144C307.746 242.144 306.546 241.944 305.394 241.544C304.258 241.144 303.378 240.616 302.754 239.96L303.45 238.592C304.058 239.2 304.866 239.696 305.874 240.08C306.882 240.448 307.922 240.632 308.994 240.632C310.498 240.632 311.626 240.36 312.378 239.816C313.13 239.256 313.506 238.536 313.506 237.656C313.506 236.984 313.298 236.448 312.882 236.048C312.482 235.648 311.986 235.344 311.394 235.136C310.802 234.912 309.978 234.672 308.922 234.416C307.658 234.096 306.65 233.792 305.898 233.504C305.146 233.2 304.498 232.744 303.954 232.136C303.426 231.528 303.162 230.704 303.162 229.664C303.162 228.816 303.386 228.048 303.834 227.36C304.282 226.656 304.97 226.096 305.898 225.68C306.826 225.264 307.978 225.056 309.354 225.056C310.314 225.056 311.25 225.192 312.162 225.464C313.09 225.72 313.89 226.08 314.562 226.544L313.962 227.96C313.258 227.496 312.506 227.152 311.706 226.928C310.906 226.688 310.122 226.568 309.354 226.568C307.882 226.568 306.77 226.856 306.018 227.432C305.282 227.992 304.914 228.72 304.914 229.616C304.914 230.288 305.114 230.832 305.514 231.248C305.93 231.648 306.442 231.96 307.05 232.184C307.674 232.392 308.506 232.624 309.546 232.88C310.778 233.184 311.77 233.488 312.522 233.792C313.29 234.08 313.938 234.528 314.466 235.136C314.994 235.728 315.258 236.536 315.258 237.56C315.258 238.408 315.026 239.184 314.562 239.888C314.114 240.576 313.418 241.128 312.474 241.544C311.53 241.944 310.37 242.144 308.994 242.144ZM326.568 225.2H328.344V242H326.568V225.2ZM353.082 233.6H354.786V240.008C354.002 240.696 353.074 241.224 352.002 241.592C350.93 241.96 349.802 242.144 348.618 242.144C346.938 242.144 345.426 241.776 344.082 241.04C342.738 240.304 341.682 239.288 340.914 237.992C340.146 236.68 339.762 235.216 339.762 233.6C339.762 231.984 340.146 230.528 340.914 229.232C341.682 227.92 342.738 226.896 344.082 226.16C345.426 225.424 346.946 225.056 348.642 225.056C349.922 225.056 351.098 225.264 352.17 225.68C353.242 226.08 354.146 226.68 354.882 227.48L353.778 228.608C352.45 227.296 350.762 226.64 348.714 226.64C347.354 226.64 346.122 226.944 345.018 227.552C343.93 228.144 343.074 228.976 342.45 230.048C341.826 231.104 341.514 232.288 341.514 233.6C341.514 234.912 341.826 236.096 342.45 237.152C343.074 238.208 343.93 239.04 345.018 239.648C346.106 240.256 347.33 240.56 348.69 240.56C350.418 240.56 351.882 240.128 353.082 239.264V233.6ZM381.293 225.2V242H379.829L369.029 228.368V242H367.253V225.2H368.717L379.541 238.832V225.2H381.293Z" fill="#817E7E"/>
</g>
<defs>
<clipPath id="clip0">
<rect width="396" height="242" fill="white"/>
</clipPath>
</defs>
</svg>
