<svg width="512" height="512" viewBox="0 0 512 512" fill="none" xmlns="http://www.w3.org/2000/svg">
<path d="M474 165.31L458.225 122.519L469.189 97.9596C470.596 94.7875 469.909 91.0922 467.471 88.6068L437.656 58.488C431.257 51.9957 423.143 47.4542 414.26 45.393C405.378 43.3318 396.091 43.8357 387.484 46.846L379.302 49.7401L333.761 0.425145L256 0L178.239 0.605003L132.747 50.3124L124.647 47.451C115.984 44.4054 106.631 43.8923 97.6861 45.9718C88.7414 48.0513 80.5758 52.6371 74.1479 59.1911L43.6128 89.8822C42.6601 90.843 42.0205 92.0693 41.7781 93.4C41.5357 94.7308 41.7018 96.1037 42.2546 97.3383L53.7094 122.846L38 165.604L94.4064 379.919C99.741 400.161 111.998 417.902 129.065 430.051L240.618 505.593C244.998 509.093 250.44 511 256.049 511C261.658 511 267.1 509.093 271.48 505.593L382.968 429.937C400.019 417.788 412.423 400.047 417.577 379.804L463.593 203.997L474 165.31Z" fill="url(#paint0_linear)"/>
<path d="M268.942 317.228C265.996 315.908 262.957 314.806 259.85 313.931H254.364C251.257 314.806 248.218 315.908 245.272 317.228L231.476 322.971L215.896 330.143L190.526 343.387C188.647 343.992 187.33 345.695 187.193 347.509C187.056 349.322 188.153 351.356 189.936 352.207L211.961 367.787L225.496 378.559L231.695 384.054L244.668 395.43L250.538 400.651C254.282 403.783 259.726 403.783 263.47 400.651L288.841 378.476L302.349 367.705L324.374 351.905C325.244 351.485 325.967 350.811 326.448 349.973C326.93 349.134 327.148 348.17 327.074 347.205C327 346.241 326.637 345.321 326.033 344.567C325.429 343.812 324.612 343.257 323.688 342.975L298.359 330.088L282.725 322.916L268.942 317.228ZM425.281 175.058L425.994 172.764C426.036 169.69 425.844 166.617 425.419 163.573C423.285 158.137 420.543 152.96 417.245 148.144L402.914 127.082L392.711 113.343L373.511 89.259C371.756 86.9234 369.863 84.684 367.82 82.5819H367.408L358.878 84.1619L316.68 92.309C312.566 92.5151 308.137 91.8969 304.105 90.4818L280.791 82.9803L264.334 78.3916C259.466 77.8695 254.556 77.8695 249.688 78.3916L233.231 83.0216L209.917 90.578C205.885 91.9931 201.607 92.6113 197.341 92.4052L184.478 89.9597L146.572 82.8842H146.161C144.114 84.9771 142.212 87.208 140.47 89.5613L121.311 113.646L111.108 127.522L96.7084 148.267C94.2399 151.895 91.9771 155.686 89.9337 159.575C88.706 163.921 88.0558 168.412 88 172.929L88.7131 175.223C89.0597 176.698 89.5041 178.149 90.0434 179.565L101.357 192.589L151.509 245.992C154.897 250.114 155.87 255.609 154.046 260.349L145.846 279.831C143.976 284.995 143.837 290.628 145.448 295.878L147.093 300.412C149.781 307.762 154.403 314.233 160.451 319.179L168.336 325.609C172.492 328.631 177.909 329.263 182.668 327.326L210.685 313.945C215.828 311.362 220.642 308.174 225.016 304.437L247.439 284.159C249.249 282.51 250.181 280.229 250.401 277.798C250.44 276.594 250.24 275.394 249.811 274.269C249.382 273.144 248.734 272.116 247.905 271.244L197.163 237.076C195.257 235.706 193.899 233.702 193.334 231.421C192.769 229.14 193.032 226.732 194.078 224.628L213.689 187.533C215.938 182.958 216.431 177.682 214.649 172.86C212.206 168.305 208.274 164.73 203.513 162.735L141.978 139.447C137.535 137.757 137.782 135.875 142.486 135.573L178.636 132.001C184.295 131.659 189.974 132.121 195.504 133.375L226.95 142.167C229.185 142.838 231.101 144.301 232.337 146.284C233.574 148.266 234.048 150.632 233.67 152.939L221.327 220.534C220.504 224.285 220.299 228.132 220.724 231.937C221.231 233.558 225.455 235.509 230.077 236.677L249.235 240.771C254.802 241.802 260.509 241.802 266.076 240.771L283.301 236.856C287.922 235.812 292.119 233.627 292.654 232.006C293.067 228.191 292.849 224.333 292.009 220.589L279.584 152.994C279.213 150.669 279.706 148.288 280.969 146.303C282.233 144.317 284.18 142.866 286.441 142.222L317.887 133.388C323.4 132.014 329.092 131.52 334.755 132.014L370.905 135.394C375.637 135.806 375.842 137.592 371.454 139.269L309.947 162.625C305.179 164.61 301.244 168.188 298.811 172.75C297.183 177.577 297.533 182.855 299.785 187.423L319.451 224.518C321.645 228.86 320.328 234.135 316.365 236.966L265.788 271.203C264.101 272.962 263.21 275.325 263.292 277.756C263.374 280.188 264.444 282.483 266.254 284.117L288.704 304.382C293.092 308.092 297.892 311.293 303.035 314L331.053 327.354C335.811 329.277 341.228 328.618 345.384 325.595L353.269 319.138C359.329 314.186 363.944 307.688 366.627 300.329L368.272 295.796C369.884 290.545 369.744 284.912 367.875 279.749L359.646 260.267C357.822 255.376 358.796 249.88 362.183 245.91L412.335 192.438L423.622 179.414C424.227 178.038 424.74 176.625 425.158 175.182L425.281 175.058Z" fill="white"/>
<defs>
<linearGradient id="paint0_linear" x1="38.1309" y1="255.486" x2="473.853" y2="255.486" gradientUnits="userSpaceOnUse">
<stop stop-color="#F1562B"/>
<stop offset="0.3" stop-color="#F1542B"/>
<stop offset="0.41" stop-color="#F04D2A"/>
<stop offset="0.49" stop-color="#EF4229"/>
<stop offset="0.5" stop-color="#EF4029"/>
<stop offset="0.56" stop-color="#E83E28"/>
<stop offset="0.67" stop-color="#E13C26"/>
<stop offset="1" stop-color="#DF3C26"/>
</linearGradient>
</defs>
</svg>
