<svg width="512" height="512" viewBox="0 0 512 512" fill="none" xmlns="http://www.w3.org/2000/svg">
<rect width="512" height="512" fill="white"/>
<rect width="512" height="512" rx="10" fill="#333333"/>
<path d="M186.68 318.96C187.448 322.032 187.832 325.872 187.832 330.48C187.832 334.896 187.448 338.736 186.68 342H106.04C105.272 338.736 104.888 334.896 104.888 330.48C104.888 325.872 105.272 322.032 106.04 318.96C105.272 315.696 104.888 311.856 104.888 307.44C104.888 302.832 105.272 298.992 106.04 295.92C105.272 292.656 104.888 288.816 104.888 284.4C104.888 279.792 105.272 275.952 106.04 272.88C105.272 269.616 104.888 265.776 104.888 261.36C104.888 256.752 105.272 252.912 106.04 249.84C105.272 246.576 104.888 242.736 104.888 238.32C104.888 233.712 105.272 229.872 106.04 226.8C105.272 223.536 104.888 219.696 104.888 215.28C104.888 210.672 105.272 206.832 106.04 203.76C105.272 200.496 104.888 196.656 104.888 192.24C104.888 187.632 105.272 183.792 106.04 180.72H129.08C129.848 183.792 130.232 187.632 130.232 192.24C130.232 196.656 129.848 200.496 129.08 203.76C129.848 206.832 130.232 210.672 130.232 215.28C130.232 219.696 129.848 223.536 129.08 226.8C129.848 229.872 130.232 233.712 130.232 238.32C130.232 242.736 129.848 246.576 129.08 249.84C129.848 252.912 130.232 256.752 130.232 261.36C130.232 265.776 129.848 269.616 129.08 272.88C129.848 275.952 130.232 279.792 130.232 284.4C130.232 288.816 129.848 292.656 129.08 295.92C129.848 298.992 130.232 302.832 130.232 307.44C130.232 311.856 129.848 315.696 129.08 318.96H186.68ZM271.465 215.28C271.465 219.696 271.081 223.536 270.312 226.8C271.081 229.872 271.465 233.712 271.465 238.32C271.465 242.736 271.081 246.576 270.312 249.84H241.513C240.745 246.576 240.361 242.736 240.361 238.32C240.361 233.712 240.745 229.872 241.513 226.8C240.745 223.536 240.361 219.696 240.361 215.28C240.361 210.672 240.745 206.832 241.513 203.76H270.312C271.081 206.832 271.465 210.672 271.465 215.28ZM270.312 295.92C271.081 298.992 271.465 302.832 271.465 307.44C271.465 311.856 271.081 315.696 270.312 318.96C271.081 322.032 271.465 325.872 271.465 330.48C271.465 334.896 271.081 338.736 270.312 342H241.513C240.745 338.736 240.361 334.896 240.361 330.48C240.361 325.872 240.745 322.032 241.513 318.96C240.745 315.696 240.361 311.856 240.361 307.44C240.361 302.832 240.745 298.992 241.513 295.92H270.312ZM405.497 261.36C405.497 265.776 405.113 269.616 404.345 272.88H389.945C390.713 275.952 391.097 279.792 391.097 284.4C391.097 288.816 390.713 292.656 389.945 295.92H375.545C376.313 298.992 376.697 302.832 376.697 307.44C376.697 311.856 376.313 315.696 375.545 318.96H361.145C361.913 322.032 362.297 325.872 362.297 330.48C362.297 334.896 361.913 338.736 361.145 342H338.105C337.337 338.736 336.953 334.896 336.953 330.48C336.953 325.872 337.337 322.032 338.105 318.96H352.505C351.737 315.696 351.353 311.856 351.353 307.44C351.353 302.832 351.737 298.992 352.505 295.92H366.905C366.137 292.656 365.753 288.816 365.753 284.4C365.753 279.792 366.137 275.952 366.905 272.88H381.305C380.537 269.616 380.153 265.776 380.153 261.36C380.153 256.752 380.537 252.912 381.305 249.84H366.905C366.137 246.576 365.753 242.736 365.753 238.32C365.753 233.712 366.137 229.872 366.905 226.8H352.505C351.737 223.536 351.353 219.696 351.353 215.28C351.353 210.672 351.737 206.832 352.505 203.76H338.105C337.337 200.496 336.953 196.656 336.953 192.24C336.953 187.632 337.337 183.792 338.105 180.72H361.145C361.913 183.792 362.297 187.632 362.297 192.24C362.297 196.656 361.913 200.496 361.145 203.76H375.545C376.313 206.832 376.697 210.672 376.697 215.28C376.697 219.696 376.313 223.536 375.545 226.8H389.945C390.713 229.872 391.097 233.712 391.097 238.32C391.097 242.736 390.713 246.576 389.945 249.84H404.345C405.113 252.912 405.497 256.752 405.497 261.36Z" fill="#6EFFA8"/>
</svg>
