<svg width="35" height="11" viewBox="0 0 35 11" fill="none" xmlns="http://www.w3.org/2000/svg">
<g clip-path="url(#clip0_1964_6)">
<path d="M5.48 9.56C5.528 9.752 5.552 9.992 5.552 10.28C5.552 10.556 5.528 10.796 5.48 11H0.44C0.392 10.796 0.368 10.556 0.368 10.28C0.368 9.992 0.392 9.752 0.44 9.56C0.392 9.356 0.368 9.116 0.368 8.84C0.368 8.552 0.392 8.312 0.44 8.12C0.392 7.916 0.368 7.676 0.368 7.4C0.368 7.112 0.392 6.872 0.44 6.68C0.392 6.476 0.368 6.236 0.368 5.96C0.368 5.672 0.392 5.432 0.44 5.24C0.392 5.036 0.368 4.796 0.368 4.52C0.368 4.232 0.392 3.992 0.44 3.8C0.392 3.596 0.368 3.356 0.368 3.08C0.368 2.792 0.392 2.552 0.44 2.36C0.392 2.156 0.368 1.916 0.368 1.64C0.368 1.352 0.392 1.112 0.44 0.92H1.88C1.928 1.112 1.952 1.352 1.952 1.64C1.952 1.916 1.928 2.156 1.88 2.36C1.928 2.552 1.952 2.792 1.952 3.08C1.952 3.356 1.928 3.596 1.88 3.8C1.928 3.992 1.952 4.232 1.952 4.52C1.952 4.796 1.928 5.036 1.88 5.24C1.928 5.432 1.952 5.672 1.952 5.96C1.952 6.236 1.928 6.476 1.88 6.68C1.928 6.872 1.952 7.112 1.952 7.4C1.952 7.676 1.928 7.916 1.88 8.12C1.928 8.312 1.952 8.552 1.952 8.84C1.952 9.116 1.928 9.356 1.88 9.56H5.48ZM10.779 3.08C10.779 3.356 10.755 3.596 10.707 3.8C10.755 3.992 10.779 4.232 10.779 4.52C10.779 4.796 10.755 5.036 10.707 5.24H8.90703C8.85903 5.036 8.83503 4.796 8.83503 4.52C8.83503 4.232 8.85903 3.992 8.90703 3.8C8.85903 3.596 8.83503 3.356 8.83503 3.08C8.83503 2.792 8.85903 2.552 8.90703 2.36H10.707C10.755 2.552 10.779 2.792 10.779 3.08ZM10.707 8.12C10.755 8.312 10.779 8.552 10.779 8.84C10.779 9.116 10.755 9.356 10.707 9.56C10.755 9.752 10.779 9.992 10.779 10.28C10.779 10.556 10.755 10.796 10.707 11H8.90703C8.85903 10.796 8.83503 10.556 8.83503 10.28C8.83503 9.992 8.85903 9.752 8.90703 9.56C8.85903 9.356 8.83503 9.116 8.83503 8.84C8.83503 8.552 8.85903 8.312 8.90703 8.12H10.707ZM19.1561 5.96C19.1561 6.236 19.1321 6.476 19.0841 6.68H18.1841C18.2321 6.872 18.2561 7.112 18.2561 7.4C18.2561 7.676 18.2321 7.916 18.1841 8.12H17.2841C17.3321 8.312 17.3561 8.552 17.3561 8.84C17.3561 9.116 17.3321 9.356 17.2841 9.56H16.3841C16.4321 9.752 16.4561 9.992 16.4561 10.28C16.4561 10.556 16.4321 10.796 16.3841 11H14.9441C14.8961 10.796 14.8721 10.556 14.8721 10.28C14.8721 9.992 14.8961 9.752 14.9441 9.56H15.8441C15.7961 9.356 15.7721 9.116 15.7721 8.84C15.7721 8.552 15.7961 8.312 15.8441 8.12H16.7441C16.6961 7.916 16.6721 7.676 16.6721 7.4C16.6721 7.112 16.6961 6.872 16.7441 6.68H17.6441C17.5961 6.476 17.5721 6.236 17.5721 5.96C17.5721 5.672 17.5961 5.432 17.6441 5.24H16.7441C16.6961 5.036 16.6721 4.796 16.6721 4.52C16.6721 4.232 16.6961 3.992 16.7441 3.8H15.8441C15.7961 3.596 15.7721 3.356 15.7721 3.08C15.7721 2.792 15.7961 2.552 15.8441 2.36H14.9441C14.8961 2.156 14.8721 1.916 14.8721 1.64C14.8721 1.352 14.8961 1.112 14.9441 0.92H16.3841C16.4321 1.112 16.4561 1.352 16.4561 1.64C16.4561 1.916 16.4321 2.156 16.3841 2.36H17.2841C17.3321 2.552 17.3561 2.792 17.3561 3.08C17.3561 3.356 17.3321 3.596 17.2841 3.8H18.1841C18.2321 3.992 18.2561 4.232 18.2561 4.52C18.2561 4.796 18.2321 5.036 18.1841 5.24H19.0841C19.1321 5.432 19.1561 5.672 19.1561 5.96ZM27.1011 2.36C27.1491 2.552 27.1731 2.792 27.1731 3.08C27.1731 3.356 27.1491 3.596 27.1011 3.8C27.1491 3.992 27.1731 4.232 27.1731 4.52C27.1731 4.796 27.1491 5.036 27.1011 5.24C27.1491 5.432 27.1731 5.672 27.1731 5.96C27.1731 6.236 27.1491 6.476 27.1011 6.68C27.1491 6.872 27.1731 7.112 27.1731 7.4C27.1731 7.676 27.1491 7.916 27.1011 8.12C27.1491 8.312 27.1731 8.552 27.1731 8.84C27.1731 9.116 27.1491 9.356 27.1011 9.56H26.3811C26.4291 9.752 26.4531 9.992 26.4531 10.28C26.4531 10.556 26.4291 10.796 26.3811 11H22.0611C22.0131 10.796 21.9891 10.556 21.9891 10.28C21.9891 9.992 22.0131 9.752 22.0611 9.56H21.3411C21.2931 9.356 21.2691 9.116 21.2691 8.84C21.2691 8.552 21.2931 8.312 21.3411 8.12C21.2931 7.916 21.2691 7.676 21.2691 7.4C21.2691 7.112 21.2931 6.872 21.3411 6.68C21.2931 6.476 21.2691 6.236 21.2691 5.96C21.2691 5.672 21.2931 5.432 21.3411 5.24C21.2931 5.036 21.2691 4.796 21.2691 4.52C21.2691 4.232 21.2931 3.992 21.3411 3.8C21.2931 3.596 21.2691 3.356 21.2691 3.08C21.2691 2.792 21.2931 2.552 21.3411 2.36C21.2931 2.156 21.2691 1.916 21.2691 1.64C21.2691 1.352 21.2931 1.112 21.3411 0.92H22.7811C22.8291 1.112 22.8531 1.352 22.8531 1.64C22.8531 1.916 22.8291 2.156 22.7811 2.36C22.8291 2.552 22.8531 2.792 22.8531 3.08C22.8531 3.356 22.8291 3.596 22.7811 3.8C22.8291 3.992 22.8531 4.232 22.8531 4.52C22.8531 4.796 22.8291 5.036 22.7811 5.24C22.8291 5.432 22.8531 5.672 22.8531 5.96C22.8531 6.236 22.8291 6.476 22.7811 6.68C22.8291 6.872 22.8531 7.112 22.8531 7.4C22.8531 7.676 22.8291 7.916 22.7811 8.12C22.8291 8.312 22.8531 8.552 22.8531 8.84C22.8531 9.116 22.8291 9.356 22.7811 9.56H25.6611C25.6131 9.356 25.5891 9.116 25.5891 8.84C25.5891 8.552 25.6131 8.312 25.6611 8.12C25.6131 7.916 25.5891 7.676 25.5891 7.4C25.5891 7.112 25.6131 6.872 25.6611 6.68C25.6131 6.476 25.5891 6.236 25.5891 5.96C25.5891 5.672 25.6131 5.432 25.6611 5.24C25.6131 5.036 25.5891 4.796 25.5891 4.52C25.5891 4.232 25.6131 3.992 25.6611 3.8C25.6131 3.596 25.5891 3.356 25.5891 3.08C25.5891 2.792 25.6131 2.552 25.6611 2.36C25.6131 2.156 25.5891 1.916 25.5891 1.64C25.5891 1.352 25.6131 1.112 25.6611 0.92H27.1011C27.1491 1.112 27.1731 1.352 27.1731 1.64C27.1731 1.916 27.1491 2.156 27.1011 2.36ZM34.3081 5.24C34.3561 5.432 34.3801 5.672 34.3801 5.96C34.3801 6.236 34.3561 6.476 34.3081 6.68C34.3561 6.872 34.3801 7.112 34.3801 7.4C34.3801 7.676 34.3561 7.916 34.3081 8.12C34.3561 8.312 34.3801 8.552 34.3801 8.84C34.3801 9.116 34.3561 9.356 34.3081 9.56H33.5881C33.6361 9.752 33.6601 9.992 33.6601 10.28C33.6601 10.556 33.6361 10.796 33.5881 11H29.9881C29.9401 10.796 29.9161 10.556 29.9161 10.28C29.9161 9.992 29.9401 9.752 29.9881 9.56H29.2681C29.2201 9.356 29.1961 9.116 29.1961 8.84C29.1961 8.552 29.2201 8.312 29.2681 8.12H28.5481C28.5001 7.916 28.4761 7.676 28.4761 7.4C28.4761 7.112 28.5001 6.872 28.5481 6.68C28.5001 6.476 28.4761 6.236 28.4761 5.96C28.4761 5.672 28.5001 5.432 28.5481 5.24C28.5001 5.036 28.4761 4.796 28.4761 4.52C28.4761 4.232 28.5001 3.992 28.5481 3.8H29.2681C29.2201 3.596 29.1961 3.356 29.1961 3.08C29.1961 2.792 29.2201 2.552 29.2681 2.36H29.9881C29.9401 2.156 29.9161 1.916 29.9161 1.64C29.9161 1.352 29.9401 1.112 29.9881 0.92H33.5881C33.6361 1.112 33.6601 1.352 33.6601 1.64C33.6601 1.916 33.6361 2.156 33.5881 2.36H34.3081C34.3561 2.552 34.3801 2.792 34.3801 3.08C34.3801 3.356 34.3561 3.596 34.3081 3.8H32.8681C32.8201 3.596 32.7961 3.356 32.7961 3.08C32.7961 2.792 32.8201 2.552 32.8681 2.36H30.7081C30.7561 2.552 30.7801 2.792 30.7801 3.08C30.7801 3.356 30.7561 3.596 30.7081 3.8H29.9881C30.0361 3.992 30.0601 4.232 30.0601 4.52C30.0601 4.796 30.0361 5.036 29.9881 5.24C30.0361 5.432 30.0601 5.672 30.0601 5.96C30.0601 6.236 30.0361 6.476 29.9881 6.68C30.0361 6.872 30.0601 7.112 30.0601 7.4C30.0601 7.676 30.0361 7.916 29.9881 8.12H30.7081C30.7561 8.312 30.7801 8.552 30.7801 8.84C30.7801 9.116 30.7561 9.356 30.7081 9.56H32.8681C32.8201 9.356 32.7961 9.116 32.7961 8.84C32.7961 8.552 32.8201 8.312 32.8681 8.12C32.8201 7.916 32.7961 7.676 32.7961 7.4C32.7961 7.112 32.8201 6.872 32.8681 6.68H31.7881C31.7401 6.476 31.7161 6.236 31.7161 5.96C31.7161 5.672 31.7401 5.432 31.7881 5.24H34.3081Z" fill="#141518"/>
</g>
<defs>
<clipPath id="clip0_1964_6">
<rect width="35" height="11" fill="white"/>
</clipPath>
</defs>
</svg>
