<svg width="446" height="71" viewBox="0 0 446 71" fill="none" xmlns="http://www.w3.org/2000/svg">
<g clip-path="url(#clip0)">
<path d="M2.36 69C1.848 69 1.368 68.808 0.92 68.424C0.536 68.04 0.344 67.56 0.344 66.984L0.536 66.12L23.672 4.2C24.12 2.6 25.24 1.8 27.032 1.8H37.496C39.16 1.8 40.28 2.6 40.856 4.2L63.992 66.12C64.056 66.312 64.088 66.6 64.088 66.984C64.088 67.56 63.896 68.04 63.512 68.424C63.128 68.808 62.68 69 62.168 69H53.816C52.984 69 52.344 68.808 51.896 68.424C51.448 68.04 51.16 67.624 51.032 67.176L46.52 55.464H18.008L13.496 67.176C12.984 68.392 12.056 69 10.712 69H2.36ZM43.16 44.424L32.216 14.76L21.368 44.424H43.16ZM99.5465 69.96C92.9545 69.96 87.8345 67.688 84.1865 63.144V66.696C84.1865 67.336 83.9625 67.88 83.5145 68.328C83.1305 68.776 82.5865 69 81.8825 69H74.2985C73.6585 69 73.1145 68.776 72.6665 68.328C72.2185 67.88 71.9945 67.336 71.9945 66.696V3.144C71.9945 2.44 72.2185 1.896 72.6665 1.512C73.1145 1.064 73.6585 0.839996 74.2985 0.839996H82.4585C83.1625 0.839996 83.7065 1.064 84.0905 1.512C84.5385 1.896 84.7625 2.44 84.7625 3.144V24.456C88.4105 20.232 93.3385 18.12 99.5465 18.12C106.011 18.12 110.971 20.232 114.427 24.456C117.883 28.68 119.739 34.152 119.995 40.872C120.059 41.64 120.091 42.664 120.091 43.944C120.091 45.288 120.059 46.344 119.995 47.112C119.739 54.024 117.883 59.56 114.427 63.72C110.971 67.88 106.011 69.96 99.5465 69.96ZM95.9945 59.688C102.907 59.688 106.587 55.432 107.035 46.92C107.099 46.28 107.131 45.32 107.131 44.04C107.131 42.76 107.099 41.8 107.035 41.16C106.587 32.648 102.907 28.392 95.9945 28.392C92.4105 28.392 89.6585 29.544 87.7385 31.848C85.8825 34.088 84.8905 36.808 84.7625 40.008L84.6665 43.656L84.7625 47.4C84.9545 50.856 85.9465 53.768 87.7385 56.136C89.5305 58.504 92.2825 59.688 95.9945 59.688ZM152.854 69.96C145.366 69.96 139.574 68.04 135.478 64.2C131.382 60.296 129.174 54.984 128.854 48.264L128.758 44.04L128.854 39.816C129.174 33.16 131.414 27.88 135.574 23.976C139.734 20.072 145.494 18.12 152.854 18.12C160.214 18.12 165.974 20.072 170.134 23.976C174.294 27.88 176.534 33.16 176.854 39.816C176.918 40.584 176.95 41.992 176.95 44.04C176.95 46.088 176.918 47.496 176.854 48.264C176.534 54.984 174.326 60.296 170.23 64.2C166.134 68.04 160.342 69.96 152.854 69.96ZM152.854 60.456C156.246 60.456 158.87 59.4 160.726 57.288C162.582 55.112 163.606 51.944 163.798 47.784C163.862 47.144 163.894 45.896 163.894 44.04C163.894 42.184 163.862 40.936 163.798 40.296C163.606 36.136 162.582 33 160.726 30.888C158.87 28.712 156.246 27.624 152.854 27.624C149.462 27.624 146.838 28.712 144.982 30.888C143.126 33 142.102 36.136 141.91 40.296L141.814 44.04L141.91 47.784C142.102 51.944 143.126 55.112 144.982 57.288C146.838 59.4 149.462 60.456 152.854 60.456ZM206.114 69.96C200.226 69.96 195.586 68.04 192.194 64.2C188.802 60.296 187.106 55.016 187.106 48.36V21.384C187.106 20.744 187.33 20.2 187.778 19.752C188.226 19.304 188.77 19.08 189.41 19.08H197.858C198.562 19.08 199.106 19.304 199.49 19.752C199.938 20.136 200.162 20.68 200.162 21.384V47.784C200.162 55.72 203.65 59.688 210.626 59.688C213.954 59.688 216.578 58.632 218.498 56.52C220.482 54.408 221.474 51.496 221.474 47.784V21.384C221.474 20.744 221.698 20.2 222.146 19.752C222.594 19.304 223.138 19.08 223.778 19.08H232.226C232.93 19.08 233.474 19.304 233.858 19.752C234.306 20.136 234.53 20.68 234.53 21.384V66.696C234.53 67.336 234.306 67.88 233.858 68.328C233.474 68.776 232.93 69 232.226 69H224.45C223.81 69 223.266 68.776 222.818 68.328C222.37 67.88 222.146 67.336 222.146 66.696V62.76C218.562 67.56 213.218 69.96 206.114 69.96ZM269.771 69C263.947 69 259.563 67.496 256.619 64.488C253.739 61.416 252.299 56.936 252.299 51.048V29.256H244.715C244.075 29.256 243.531 29.032 243.083 28.584C242.635 28.072 242.411 27.496 242.411 26.856V21.384C242.411 20.744 242.635 20.2 243.083 19.752C243.531 19.304 244.075 19.08 244.715 19.08H252.299V3.144C252.299 2.44 252.523 1.896 252.971 1.512C253.419 1.064 253.963 0.839996 254.603 0.839996H262.379C263.083 0.839996 263.627 1.064 264.011 1.512C264.459 1.896 264.683 2.44 264.683 3.144V19.08H276.683C277.387 19.08 277.931 19.304 278.315 19.752C278.763 20.136 278.987 20.68 278.987 21.384V26.856C278.987 27.56 278.763 28.136 278.315 28.584C277.867 29.032 277.323 29.256 276.683 29.256H264.683V50.088C264.683 52.84 265.163 54.92 266.123 56.328C267.083 57.736 268.683 58.44 270.923 58.44H277.547C278.187 58.44 278.731 58.664 279.179 59.112C279.627 59.56 279.851 60.104 279.851 60.744V66.696C279.851 67.336 279.627 67.88 279.179 68.328C278.795 68.776 278.251 69 277.547 69H269.771ZM312.609 69C311.969 69 311.425 68.776 310.977 68.328C310.529 67.88 310.305 67.336 310.305 66.696V21.384C310.305 20.744 310.529 20.2 310.977 19.752C311.425 19.304 311.969 19.08 312.609 19.08H320.097C320.737 19.08 321.281 19.304 321.729 19.752C322.177 20.2 322.401 20.744 322.401 21.384V24.648C325.729 20.296 330.369 18.12 336.321 18.12C343.425 18.12 348.385 20.968 351.201 26.664C352.737 24.104 354.913 22.056 357.729 20.52C360.545 18.92 363.585 18.12 366.849 18.12C372.097 18.12 376.385 19.912 379.713 23.496C383.041 27.08 384.705 32.296 384.705 39.144V66.696C384.705 67.336 384.481 67.88 384.033 68.328C383.649 68.776 383.105 69 382.401 69H374.529C373.889 69 373.345 68.776 372.897 68.328C372.449 67.88 372.225 67.336 372.225 66.696V39.912C372.225 35.88 371.361 32.968 369.633 31.176C367.969 29.32 365.729 28.392 362.913 28.392C360.417 28.392 358.273 29.32 356.481 31.176C354.753 33.032 353.889 35.944 353.889 39.912V66.696C353.889 67.336 353.665 67.88 353.217 68.328C352.769 68.776 352.225 69 351.585 69H343.713C343.073 69 342.529 68.776 342.081 68.328C341.633 67.88 341.409 67.336 341.409 66.696V39.912C341.409 35.88 340.513 32.968 338.721 31.176C336.993 29.32 334.785 28.392 332.097 28.392C329.537 28.392 327.361 29.32 325.569 31.176C323.841 33.032 322.977 35.944 322.977 39.912V66.696C322.977 67.336 322.753 67.88 322.305 68.328C321.857 68.776 321.313 69 320.673 69H312.609ZM418.434 69.96C411.33 69.96 405.666 67.912 401.442 63.816C397.282 59.656 395.074 53.832 394.818 46.344L394.722 43.944L394.818 41.544C395.138 34.248 397.378 28.52 401.538 24.36C405.762 20.2 411.394 18.12 418.434 18.12C425.986 18.12 431.81 20.424 435.906 25.032C440.066 29.64 442.146 35.784 442.146 43.464V45.48C442.146 46.12 441.922 46.664 441.474 47.112C441.026 47.56 440.45 47.784 439.746 47.784H407.874V48.552C408.002 52.072 408.962 55.048 410.754 57.48C412.61 59.848 415.138 61.032 418.338 61.032C422.114 61.032 425.154 59.56 427.458 56.616C428.034 55.912 428.482 55.464 428.802 55.272C429.186 55.08 429.73 54.984 430.434 54.984H438.69C439.266 54.984 439.746 55.176 440.13 55.56C440.578 55.88 440.802 56.296 440.802 56.808C440.802 58.344 439.874 60.168 438.018 62.28C436.226 64.328 433.634 66.12 430.242 67.656C426.85 69.192 422.914 69.96 418.434 69.96ZM429.09 39.72V39.432C429.09 35.656 428.13 32.616 426.21 30.312C424.354 28.008 421.762 26.856 418.434 26.856C415.106 26.856 412.514 28.008 410.658 30.312C408.802 32.616 407.874 35.656 407.874 39.432V39.72H429.09Z" fill="#F7F7F7"/>
</g>
<defs>
<clipPath id="clip0">
<rect width="446" height="71" fill="white"/>
</clipPath>
</defs>
</svg>
