<svg width="371" height="72" viewBox="0 0 371 72" fill="none" xmlns="http://www.w3.org/2000/svg">
<g clip-path="url(#clip0)">
<path d="M32.408 70.96C23.576 70.96 16.728 68.688 11.864 64.144C7.064 59.6 4.504 53.2 4.184 44.944C4.12 43.216 4.088 40.4 4.088 36.496C4.088 32.528 4.12 29.648 4.184 27.856C4.504 19.664 7.096 13.296 11.96 8.752C16.888 4.144 23.704 1.84 32.408 1.84C38.104 1.84 43.064 2.832 47.288 4.816C51.512 6.736 54.776 9.392 57.08 12.784C59.384 16.112 60.6 19.888 60.728 24.112V24.304C60.728 24.816 60.504 25.264 60.056 25.648C59.672 25.968 59.224 26.128 58.712 26.128H49.592C48.824 26.128 48.248 25.968 47.864 25.648C47.48 25.328 47.16 24.72 46.904 23.824C45.88 19.792 44.184 16.976 41.816 15.376C39.448 13.712 36.28 12.88 32.312 12.88C23.096 12.88 18.296 18.032 17.912 28.336C17.848 30.064 17.816 32.72 17.816 36.304C17.816 39.888 17.848 42.608 17.912 44.464C18.296 54.768 23.096 59.92 32.312 59.92C36.28 59.92 39.448 59.088 41.816 57.424C44.248 55.76 45.944 52.944 46.904 48.976C47.096 48.08 47.384 47.472 47.768 47.152C48.216 46.832 48.824 46.672 49.592 46.672H58.712C59.288 46.672 59.768 46.864 60.152 47.248C60.6 47.632 60.792 48.112 60.728 48.688C60.6 52.912 59.384 56.72 57.08 60.112C54.776 63.44 51.512 66.096 47.288 68.08C43.064 70 38.104 70.96 32.408 70.96ZM93.041 70.96C85.553 70.96 79.761 69.04 75.665 65.2C71.569 61.296 69.361 55.984 69.041 49.264L68.945 45.04L69.041 40.816C69.361 34.16 71.601 28.88 75.761 24.976C79.921 21.072 85.681 19.12 93.041 19.12C100.401 19.12 106.161 21.072 110.321 24.976C114.481 28.88 116.721 34.16 117.041 40.816C117.105 41.584 117.137 42.992 117.137 45.04C117.137 47.088 117.105 48.496 117.041 49.264C116.721 55.984 114.513 61.296 110.417 65.2C106.321 69.04 100.529 70.96 93.041 70.96ZM93.041 61.456C96.433 61.456 99.057 60.4 100.913 58.288C102.769 56.112 103.793 52.944 103.985 48.784C104.049 48.144 104.081 46.896 104.081 45.04C104.081 43.184 104.049 41.936 103.985 41.296C103.793 37.136 102.769 34 100.913 31.888C99.057 29.712 96.433 28.624 93.041 28.624C89.649 28.624 87.025 29.712 85.169 31.888C83.313 34 82.289 37.136 82.097 41.296L82.001 45.04L82.097 48.784C82.289 52.944 83.313 56.112 85.169 58.288C87.025 60.4 89.649 61.456 93.041 61.456ZM130.078 70C129.438 70 128.894 69.776 128.446 69.328C127.998 68.88 127.773 68.336 127.773 67.696V22.384C127.773 21.744 127.998 21.2 128.446 20.752C128.894 20.304 129.438 20.08 130.078 20.08H137.95C138.59 20.08 139.134 20.304 139.582 20.752C140.03 21.2 140.254 21.744 140.254 22.384V26.32C144.03 21.52 149.374 19.12 156.286 19.12C162.174 19.12 166.846 21.072 170.302 24.976C173.758 28.816 175.486 34.064 175.486 40.72V67.696C175.486 68.336 175.262 68.88 174.814 69.328C174.43 69.776 173.886 70 173.182 70H164.734C164.094 70 163.55 69.776 163.102 69.328C162.654 68.88 162.43 68.336 162.43 67.696V41.296C162.43 37.52 161.502 34.608 159.646 32.56C157.854 30.448 155.23 29.392 151.774 29.392C148.382 29.392 145.694 30.448 143.71 32.56C141.79 34.672 140.83 37.584 140.83 41.296V67.696C140.83 68.336 140.606 68.88 140.158 69.328C139.774 69.776 139.23 70 138.526 70H130.078ZM209.677 70C203.853 70 199.469 68.496 196.525 65.488C193.645 62.416 192.205 57.936 192.205 52.048V30.256H184.621C183.981 30.256 183.437 30.032 182.989 29.584C182.541 29.072 182.317 28.496 182.317 27.856V22.384C182.317 21.744 182.541 21.2 182.989 20.752C183.437 20.304 183.981 20.08 184.621 20.08H192.205V4.144C192.205 3.44 192.429 2.896 192.877 2.512C193.325 2.064 193.869 1.84 194.509 1.84H202.285C202.989 1.84 203.533 2.064 203.917 2.512C204.365 2.896 204.589 3.44 204.589 4.144V20.08H216.589C217.293 20.08 217.837 20.304 218.221 20.752C218.669 21.136 218.893 21.68 218.893 22.384V27.856C218.893 28.56 218.669 29.136 218.221 29.584C217.773 30.032 217.229 30.256 216.589 30.256H204.589V51.088C204.589 53.84 205.069 55.92 206.029 57.328C206.989 58.736 208.589 59.44 210.829 59.44H217.453C218.093 59.44 218.637 59.664 219.085 60.112C219.533 60.56 219.757 61.104 219.757 61.744V67.696C219.757 68.336 219.533 68.88 219.085 69.328C218.701 69.776 218.157 70 217.453 70H209.677ZM242.77 70.96C239.506 70.96 236.498 70.32 233.746 69.04C231.058 67.696 228.914 65.904 227.314 63.664C225.778 61.424 225.01 58.96 225.01 56.272C225.01 51.92 226.77 48.4 230.29 45.712C233.81 43.024 238.642 41.2 244.786 40.24L257.938 38.32V36.304C257.938 33.488 257.234 31.376 255.826 29.968C254.418 28.56 252.146 27.856 249.01 27.856C246.898 27.856 245.17 28.272 243.826 29.104C242.546 29.872 241.522 30.64 240.754 31.408C239.986 32.24 239.474 32.784 239.218 33.04C238.962 33.808 238.482 34.192 237.778 34.192H230.386C229.81 34.192 229.298 34 228.85 33.616C228.466 33.232 228.273 32.72 228.273 32.08C228.338 30.48 229.106 28.656 230.578 26.608C232.114 24.56 234.45 22.8 237.586 21.328C240.722 19.856 244.562 19.12 249.106 19.12C256.658 19.12 262.162 20.816 265.618 24.208C269.074 27.6 270.802 32.048 270.802 37.552V67.696C270.802 68.336 270.578 68.88 270.13 69.328C269.746 69.776 269.202 70 268.498 70H260.722C260.082 70 259.538 69.776 259.09 69.328C258.642 68.88 258.418 68.336 258.418 67.696V63.952C257.01 66 254.994 67.696 252.37 69.04C249.81 70.32 246.61 70.96 242.77 70.96ZM246.034 61.84C249.554 61.84 252.434 60.688 254.674 58.384C256.914 56.08 258.034 52.72 258.034 48.304V46.288L248.434 47.824C244.722 48.4 241.906 49.328 239.986 50.608C238.13 51.888 237.202 53.456 237.202 55.312C237.202 57.36 238.066 58.96 239.794 60.112C241.522 61.264 243.602 61.84 246.034 61.84ZM304.717 70.96C297.677 70.96 292.045 69.008 287.821 65.104C283.661 61.2 281.453 55.792 281.197 48.88L281.101 45.04L281.197 41.2C281.453 34.288 283.661 28.88 287.821 24.976C292.045 21.072 297.677 19.12 304.717 19.12C309.709 19.12 313.933 20.016 317.389 21.808C320.909 23.6 323.501 25.808 325.165 28.432C326.893 30.992 327.821 33.424 327.949 35.728C328.013 36.368 327.789 36.912 327.277 37.36C326.829 37.808 326.285 38.032 325.645 38.032H317.197C316.557 38.032 316.045 37.904 315.661 37.648C315.341 37.328 315.021 36.816 314.701 36.112C313.741 33.616 312.461 31.824 310.861 30.736C309.325 29.648 307.341 29.104 304.909 29.104C301.645 29.104 299.085 30.16 297.229 32.272C295.373 34.32 294.381 37.456 294.253 41.68L294.157 45.232L294.253 48.4C294.509 56.784 298.061 60.976 304.909 60.976C307.405 60.976 309.421 60.432 310.957 59.344C312.493 58.256 313.741 56.464 314.701 53.968C315.021 53.264 315.341 52.784 315.661 52.528C316.045 52.208 316.557 52.048 317.197 52.048H325.645C326.285 52.048 326.829 52.272 327.277 52.72C327.789 53.168 328.013 53.712 327.949 54.352C327.821 56.592 326.925 58.992 325.261 61.552C323.597 64.112 321.037 66.32 317.581 68.176C314.125 70.032 309.837 70.96 304.717 70.96ZM360.521 70C354.697 70 350.313 68.496 347.369 65.488C344.489 62.416 343.049 57.936 343.049 52.048V30.256H335.465C334.825 30.256 334.281 30.032 333.833 29.584C333.385 29.072 333.161 28.496 333.161 27.856V22.384C333.161 21.744 333.385 21.2 333.833 20.752C334.281 20.304 334.825 20.08 335.465 20.08H343.049V4.144C343.049 3.44 343.273 2.896 343.721 2.512C344.169 2.064 344.713 1.84 345.353 1.84H353.129C353.833 1.84 354.377 2.064 354.761 2.512C355.209 2.896 355.433 3.44 355.433 4.144V20.08H367.433C368.137 20.08 368.681 20.304 369.065 20.752C369.513 21.136 369.737 21.68 369.737 22.384V27.856C369.737 28.56 369.513 29.136 369.065 29.584C368.617 30.032 368.073 30.256 367.433 30.256H355.433V51.088C355.433 53.84 355.913 55.92 356.873 57.328C357.833 58.736 359.433 59.44 361.673 59.44H368.297C368.937 59.44 369.481 59.664 369.929 60.112C370.377 60.56 370.601 61.104 370.601 61.744V67.696C370.601 68.336 370.377 68.88 369.929 69.328C369.545 69.776 369.001 70 368.297 70H360.521Z" fill="#F7F7F7"/>
</g>
<defs>
<clipPath id="clip0">
<rect width="371" height="72" fill="white"/>
</clipPath>
</defs>
</svg>
