<svg width="385" height="89" viewBox="0 0 385 89" fill="none" xmlns="http://www.w3.org/2000/svg">
<g clip-path="url(#clip0)">
<path d="M8.792 70C8.152 70 7.608 69.776 7.16 69.328C6.712 68.88 6.488 68.336 6.488 67.696V5.2C6.488 4.496 6.68 3.92 7.064 3.472C7.512 3.024 8.088 2.8 8.792 2.8H34.52C42.2 2.8 48.248 4.624 52.664 8.272C57.08 11.856 59.288 17.136 59.288 24.112C59.288 31.088 57.08 36.368 52.664 39.952C48.312 43.472 42.264 45.232 34.52 45.232H20.216V67.696C20.216 68.336 19.992 68.88 19.544 69.328C19.16 69.776 18.616 70 17.912 70H8.792ZM34.04 34.576C37.752 34.576 40.6 33.712 42.584 31.984C44.568 30.192 45.56 27.568 45.56 24.112C45.56 20.784 44.6 18.192 42.68 16.336C40.76 14.416 37.88 13.456 34.04 13.456H20.024V34.576H34.04ZM70.9213 70C70.2813 70 69.7373 69.776 69.2893 69.328C68.8413 68.88 68.6172 68.336 68.6172 67.696V22.48C68.6172 21.84 68.8413 21.296 69.2893 20.848C69.7373 20.336 70.2813 20.08 70.9213 20.08H78.6973C79.4013 20.08 79.9773 20.304 80.4253 20.752C80.8733 21.2 81.0973 21.776 81.0973 22.48V26.416C82.6333 24.368 84.5533 22.8 86.8573 21.712C89.2253 20.624 91.9133 20.08 94.9213 20.08H98.8573C99.5613 20.08 100.105 20.304 100.489 20.752C100.937 21.136 101.161 21.68 101.161 22.384V29.296C101.161 29.936 100.937 30.48 100.489 30.928C100.105 31.376 99.5613 31.6 98.8573 31.6H91.3693C88.3613 31.6 85.9933 32.464 84.2653 34.192C82.5373 35.92 81.6733 38.288 81.6733 41.296V67.696C81.6733 68.336 81.4493 68.88 81.0013 69.328C80.5533 69.776 79.9773 70 79.2733 70H70.9213ZM130.072 70.96C122.584 70.96 116.792 69.04 112.696 65.2C108.6 61.296 106.392 55.984 106.072 49.264L105.976 45.04L106.072 40.816C106.392 34.16 108.632 28.88 112.792 24.976C116.952 21.072 122.712 19.12 130.072 19.12C137.432 19.12 143.192 21.072 147.352 24.976C151.512 28.88 153.752 34.16 154.072 40.816C154.136 41.584 154.168 42.992 154.168 45.04C154.168 47.088 154.136 48.496 154.072 49.264C153.752 55.984 151.544 61.296 147.448 65.2C143.352 69.04 137.56 70.96 130.072 70.96ZM130.072 61.456C133.464 61.456 136.088 60.4 137.944 58.288C139.8 56.112 140.824 52.944 141.016 48.784C141.08 48.144 141.112 46.896 141.112 45.04C141.112 43.184 141.08 41.936 141.016 41.296C140.824 37.136 139.8 34 137.944 31.888C136.088 29.712 133.464 28.624 130.072 28.624C126.68 28.624 124.056 29.712 122.2 31.888C120.344 34 119.32 37.136 119.128 41.296L119.032 45.04L119.128 48.784C119.32 52.944 120.344 56.112 122.2 58.288C124.056 60.4 126.68 61.456 130.072 61.456ZM167.781 11.824C167.141 11.824 166.597 11.6 166.149 11.152C165.701 10.704 165.477 10.16 165.477 9.51999V2.608C165.477 1.968 165.701 1.424 166.149 0.975996C166.597 0.527998 167.141 0.303999 167.781 0.303999H176.805C177.445 0.303999 177.989 0.527998 178.437 0.975996C178.949 1.424 179.205 1.968 179.205 2.608V9.51999C179.205 10.16 178.981 10.704 178.533 11.152C178.085 11.6 177.509 11.824 176.805 11.824H167.781ZM156.549 88.24C155.845 88.24 155.301 88.016 154.917 87.568C154.469 87.184 154.245 86.64 154.245 85.936V80.464C154.245 79.76 154.469 79.184 154.917 78.736C155.365 78.288 155.909 78.064 156.549 78.064H159.045C161.733 78.064 163.525 77.36 164.421 75.952C165.381 74.608 165.861 72.592 165.861 69.904V22.384C165.861 21.68 166.085 21.136 166.533 20.752C166.981 20.304 167.525 20.08 168.165 20.08H176.517C177.157 20.08 177.701 20.304 178.149 20.752C178.597 21.2 178.821 21.744 178.821 22.384V70.096C178.821 75.856 177.253 80.304 174.117 83.44C171.045 86.64 166.405 88.24 160.197 88.24H156.549ZM213.121 70.96C206.017 70.96 200.353 68.912 196.129 64.816C191.969 60.656 189.761 54.832 189.505 47.344L189.409 44.944L189.505 42.544C189.825 35.248 192.065 29.52 196.225 25.36C200.449 21.2 206.081 19.12 213.121 19.12C220.673 19.12 226.497 21.424 230.593 26.032C234.753 30.64 236.833 36.784 236.833 44.464V46.48C236.833 47.12 236.609 47.664 236.161 48.112C235.713 48.56 235.137 48.784 234.433 48.784H202.561V49.552C202.689 53.072 203.649 56.048 205.441 58.48C207.297 60.848 209.825 62.032 213.025 62.032C216.801 62.032 219.841 60.56 222.145 57.616C222.721 56.912 223.169 56.464 223.489 56.272C223.873 56.08 224.417 55.984 225.121 55.984H233.377C233.953 55.984 234.433 56.176 234.817 56.56C235.265 56.88 235.489 57.296 235.489 57.808C235.489 59.344 234.561 61.168 232.705 63.28C230.913 65.328 228.321 67.12 224.929 68.656C221.537 70.192 217.601 70.96 213.121 70.96ZM223.777 40.72V40.432C223.777 36.656 222.817 33.616 220.897 31.312C219.041 29.008 216.449 27.856 213.121 27.856C209.793 27.856 207.201 29.008 205.345 31.312C203.489 33.616 202.561 36.656 202.561 40.432V40.72H223.777ZM268.624 70.96C261.584 70.96 255.952 69.008 251.728 65.104C247.568 61.2 245.36 55.792 245.104 48.88L245.008 45.04L245.104 41.2C245.36 34.288 247.568 28.88 251.728 24.976C255.952 21.072 261.584 19.12 268.624 19.12C273.616 19.12 277.84 20.016 281.296 21.808C284.816 23.6 287.408 25.808 289.072 28.432C290.8 30.992 291.728 33.424 291.856 35.728C291.92 36.368 291.696 36.912 291.184 37.36C290.736 37.808 290.192 38.032 289.552 38.032H281.104C280.464 38.032 279.952 37.904 279.568 37.648C279.248 37.328 278.928 36.816 278.608 36.112C277.648 33.616 276.368 31.824 274.768 30.736C273.232 29.648 271.248 29.104 268.816 29.104C265.552 29.104 262.992 30.16 261.136 32.272C259.28 34.32 258.288 37.456 258.16 41.68L258.064 45.232L258.16 48.4C258.416 56.784 261.968 60.976 268.816 60.976C271.312 60.976 273.328 60.432 274.864 59.344C276.4 58.256 277.648 56.464 278.608 53.968C278.928 53.264 279.248 52.784 279.568 52.528C279.952 52.208 280.464 52.048 281.104 52.048H289.552C290.192 52.048 290.736 52.272 291.184 52.72C291.696 53.168 291.92 53.712 291.856 54.352C291.728 56.592 290.832 58.992 289.167 61.552C287.504 64.112 284.944 66.32 281.488 68.176C278.032 70.032 273.744 70.96 268.624 70.96ZM324.427 70C318.603 70 314.219 68.496 311.275 65.488C308.395 62.416 306.955 57.936 306.955 52.048V30.256H299.371C298.731 30.256 298.187 30.032 297.739 29.584C297.291 29.072 297.067 28.496 297.067 27.856V22.384C297.067 21.744 297.291 21.2 297.739 20.752C298.187 20.304 298.731 20.08 299.371 20.08H306.955V4.144C306.955 3.44 307.179 2.896 307.627 2.512C308.075 2.064 308.619 1.84 309.259 1.84H317.035C317.739 1.84 318.283 2.064 318.667 2.512C319.115 2.896 319.339 3.44 319.339 4.144V20.08H331.339C332.043 20.08 332.587 20.304 332.971 20.752C333.419 21.136 333.643 21.68 333.643 22.384V27.856C333.643 28.56 333.419 29.136 332.971 29.584C332.523 30.032 331.979 30.256 331.339 30.256H319.339V51.088C319.339 53.84 319.819 55.92 320.779 57.328C321.739 58.736 323.339 59.44 325.579 59.44H332.203C332.843 59.44 333.387 59.664 333.835 60.112C334.283 60.56 334.507 61.104 334.507 61.744V67.696C334.507 68.336 334.283 68.88 333.835 69.328C333.451 69.776 332.907 70 332.203 70H324.427ZM361.936 70.96C357.136 70.96 353.104 70.256 349.84 68.848C346.576 67.376 344.144 65.68 342.544 63.76C341.008 61.776 340.24 60.08 340.24 58.672C340.24 58.032 340.464 57.52 340.912 57.136C341.36 56.752 341.872 56.56 342.448 56.56H350.032C350.608 56.56 351.088 56.784 351.472 57.232C351.728 57.424 352.4 58 353.488 58.96C354.576 59.984 355.856 60.784 357.328 61.36C358.8 61.936 360.432 62.224 362.224 62.224C364.784 62.224 366.896 61.712 368.56 60.688C370.224 59.664 371.056 58.256 371.056 56.464C371.056 55.12 370.672 54.032 369.904 53.2C369.2 52.368 367.888 51.632 365.968 50.992C364.048 50.288 361.2 49.552 357.424 48.784C351.984 47.632 347.952 45.872 345.328 43.504C342.768 41.136 341.488 38 341.488 34.096C341.488 31.536 342.256 29.136 343.792 26.896C345.328 24.592 347.6 22.736 350.608 21.328C353.68 19.856 357.328 19.12 361.552 19.12C365.84 19.12 369.552 19.824 372.688 21.232C375.824 22.576 378.192 24.208 379.792 26.128C381.456 27.984 382.288 29.648 382.288 31.12C382.288 31.696 382.064 32.208 381.616 32.656C381.232 33.04 380.752 33.232 380.176 33.232H373.072C372.56 33.232 372.016 33.008 371.44 32.56C370.992 32.24 370.288 31.632 369.328 30.736C368.368 29.84 367.248 29.136 365.968 28.624C364.688 28.112 363.184 27.856 361.456 27.856C359.088 27.856 357.232 28.368 355.888 29.392C354.608 30.416 353.968 31.76 353.968 33.424C353.968 34.64 354.288 35.632 354.928 36.4C355.568 37.168 356.816 37.904 358.672 38.608C360.528 39.312 363.312 40.016 367.024 40.72C373.168 41.936 377.552 43.824 380.176 46.384C382.864 48.944 384.208 52.08 384.208 55.792C384.208 60.272 382.256 63.92 378.352 66.736C374.448 69.552 368.976 70.96 361.936 70.96Z" fill="#F7F7F7"/>
</g>
<defs>
<clipPath id="clip0">
<rect width="385" height="89" fill="white"/>
</clipPath>
</defs>
</svg>
