<svg width="264" height="71" viewBox="0 0 264 71" fill="none" xmlns="http://www.w3.org/2000/svg">
<g clip-path="url(#clip0)">
<path d="M29.816 69.96C24.12 69.96 19.224 69.096 15.128 67.368C11.032 65.64 7.928 63.368 5.816 60.552C3.704 57.736 2.584 54.696 2.456 51.432C2.456 50.856 2.648 50.376 3.032 49.992C3.416 49.608 3.896 49.416 4.472 49.416H13.016C13.784 49.416 14.36 49.576 14.744 49.896C15.192 50.152 15.608 50.6 15.992 51.24C16.632 53.416 18.104 55.24 20.408 56.712C22.712 58.184 25.848 58.92 29.816 58.92C34.36 58.92 37.784 58.184 40.088 56.712C42.392 55.176 43.544 53.064 43.544 50.376C43.544 48.584 42.936 47.112 41.72 45.96C40.568 44.808 38.808 43.816 36.44 42.984C34.136 42.152 30.68 41.128 26.072 39.912C18.52 38.12 12.984 35.752 9.464 32.808C6.008 29.8 4.28 25.544 4.28 20.04C4.28 16.328 5.272 13.032 7.256 10.152C9.304 7.272 12.216 5 15.992 3.336C19.832 1.672 24.28 0.839996 29.336 0.839996C34.584 0.839996 39.128 1.768 42.968 3.62399C46.808 5.48 49.72 7.816 51.704 10.632C53.752 13.384 54.84 16.136 54.968 18.888C54.968 19.464 54.776 19.944 54.392 20.328C54.008 20.712 53.528 20.904 52.952 20.904H44.024C42.68 20.904 41.752 20.296 41.24 19.08C40.856 17.032 39.576 15.336 37.4 13.992C35.224 12.584 32.536 11.88 29.336 11.88C25.752 11.88 22.936 12.552 20.888 13.896C18.84 15.24 17.816 17.192 17.816 19.752C17.816 21.544 18.328 23.016 19.352 24.168C20.376 25.32 21.976 26.344 24.152 27.24C26.392 28.136 29.592 29.128 33.752 30.216C39.384 31.496 43.864 32.936 47.192 34.536C50.584 36.136 53.08 38.152 54.68 40.584C56.28 43.016 57.08 46.12 57.08 49.896C57.08 53.992 55.928 57.576 53.624 60.648C51.384 63.656 48.184 65.96 44.024 67.56C39.928 69.16 35.192 69.96 29.816 69.96ZM89.4898 69C83.6658 69 79.2818 67.496 76.3378 64.488C73.4578 61.416 72.0178 56.936 72.0178 51.048V29.256H64.4338C63.7938 29.256 63.2498 29.032 62.8018 28.584C62.3538 28.072 62.1298 27.496 62.1298 26.856V21.384C62.1298 20.744 62.3538 20.2 62.8018 19.752C63.2498 19.304 63.7938 19.08 64.4338 19.08H72.0178V3.144C72.0178 2.44 72.2418 1.896 72.6898 1.512C73.1378 1.064 73.6818 0.839996 74.3218 0.839996H82.0978C82.8018 0.839996 83.3458 1.064 83.7298 1.512C84.1778 1.896 84.4018 2.44 84.4018 3.144V19.08H96.4018C97.1058 19.08 97.6498 19.304 98.0338 19.752C98.4818 20.136 98.7058 20.68 98.7058 21.384V26.856C98.7058 27.56 98.4818 28.136 98.0338 28.584C97.5858 29.032 97.0418 29.256 96.4018 29.256H84.4018V50.088C84.4018 52.84 84.8818 54.92 85.8418 56.328C86.8018 57.736 88.4018 58.44 90.6418 58.44H97.2658C97.9058 58.44 98.4498 58.664 98.8978 59.112C99.3458 59.56 99.5698 60.104 99.5698 60.744V66.696C99.5698 67.336 99.3458 67.88 98.8978 68.328C98.5138 68.776 97.9698 69 97.2658 69H89.4898ZM122.582 69.96C119.318 69.96 116.31 69.32 113.558 68.04C110.87 66.696 108.726 64.904 107.126 62.664C105.59 60.424 104.822 57.96 104.822 55.272C104.822 50.92 106.582 47.4 110.102 44.712C113.622 42.024 118.454 40.2 124.598 39.24L137.75 37.32V35.304C137.75 32.488 137.046 30.376 135.638 28.968C134.23 27.56 131.958 26.856 128.822 26.856C126.71 26.856 124.982 27.272 123.638 28.104C122.358 28.872 121.334 29.64 120.566 30.408C119.798 31.24 119.286 31.784 119.03 32.04C118.774 32.808 118.294 33.192 117.59 33.192H110.198C109.622 33.192 109.11 33 108.662 32.616C108.278 32.232 108.086 31.72 108.086 31.08C108.15 29.48 108.918 27.656 110.39 25.608C111.926 23.56 114.262 21.8 117.398 20.328C120.534 18.856 124.374 18.12 128.918 18.12C136.47 18.12 141.974 19.816 145.43 23.208C148.886 26.6 150.614 31.048 150.614 36.552V66.696C150.614 67.336 150.39 67.88 149.942 68.328C149.558 68.776 149.014 69 148.31 69H140.534C139.894 69 139.35 68.776 138.902 68.328C138.454 67.88 138.23 67.336 138.23 66.696V62.952C136.822 65 134.806 66.696 132.182 68.04C129.622 69.32 126.422 69.96 122.582 69.96ZM125.846 60.84C129.366 60.84 132.246 59.688 134.486 57.384C136.726 55.08 137.846 51.72 137.846 47.304V45.288L128.246 46.824C124.534 47.4 121.718 48.328 119.798 49.608C117.942 50.888 117.014 52.456 117.014 54.312C117.014 56.36 117.878 57.96 119.606 59.112C121.334 60.264 123.414 60.84 125.846 60.84ZM184.53 69.96C177.49 69.96 171.858 68.008 167.634 64.104C163.474 60.2 161.266 54.792 161.01 47.88L160.914 44.04L161.01 40.2C161.266 33.288 163.474 27.88 167.634 23.976C171.858 20.072 177.49 18.12 184.53 18.12C189.522 18.12 193.746 19.016 197.202 20.808C200.722 22.6 203.314 24.808 204.978 27.432C206.706 29.992 207.634 32.424 207.762 34.728C207.826 35.368 207.602 35.912 207.09 36.36C206.642 36.808 206.098 37.032 205.458 37.032H197.01C196.37 37.032 195.858 36.904 195.474 36.648C195.154 36.328 194.834 35.816 194.514 35.112C193.554 32.616 192.274 30.824 190.674 29.736C189.138 28.648 187.154 28.104 184.722 28.104C181.458 28.104 178.898 29.16 177.042 31.272C175.186 33.32 174.194 36.456 174.066 40.68L173.97 44.232L174.066 47.4C174.322 55.784 177.874 59.976 184.722 59.976C187.218 59.976 189.234 59.432 190.77 58.344C192.306 57.256 193.554 55.464 194.514 52.968C194.834 52.264 195.154 51.784 195.474 51.528C195.858 51.208 196.37 51.048 197.01 51.048H205.458C206.098 51.048 206.642 51.272 207.09 51.72C207.602 52.168 207.826 52.712 207.762 53.352C207.634 55.592 206.738 57.992 205.074 60.552C203.41 63.112 200.85 65.32 197.394 67.176C193.938 69.032 189.65 69.96 184.53 69.96ZM220.174 69C219.534 69 218.99 68.776 218.542 68.328C218.094 67.88 217.87 67.336 217.87 66.696V3.144C217.87 2.44 218.094 1.896 218.542 1.512C218.99 1.064 219.534 0.839996 220.174 0.839996H227.95C228.654 0.839996 229.198 1.064 229.582 1.512C230.03 1.896 230.254 2.44 230.254 3.144V35.976L246.382 20.712C246.574 20.584 246.894 20.328 247.342 19.944C247.726 19.624 248.11 19.4 248.494 19.272C248.878 19.144 249.358 19.08 249.934 19.08H258.862C259.502 19.08 260.014 19.272 260.398 19.656C260.782 20.04 260.974 20.552 260.974 21.192C260.974 21.768 260.654 22.344 260.014 22.92L240.238 41.448L262.414 65.256C263.054 65.896 263.374 66.44 263.374 66.888C263.374 67.528 263.15 68.04 262.702 68.424C262.318 68.808 261.838 69 261.262 69H252.142C251.246 69 250.574 68.904 250.126 68.712C249.742 68.456 249.23 68.008 248.59 67.368L230.254 48.072V66.696C230.254 67.336 230.03 67.88 229.582 68.328C229.198 68.776 228.654 69 227.95 69H220.174Z" fill="#F7F7F7"/>
</g>
<defs>
<clipPath id="clip0">
<rect width="264" height="71" fill="white"/>
</clipPath>
</defs>
</svg>
